STARTFONT 2.1
COMMENT
COMMENT Converted from OpenType font "verdanab.ttf" by "otf2bdf 3.0".
COMMENT
FONT -FreeType-Verdana-Bold-R-Normal--25-180-100-100-P-156-ISO10646-1
SIZE 18 100 100
FONTBOUNDINGBOX 44 31 -1 -5
STARTPROPERTIES 19
FOUNDRY "FreeType"
FAMILY_NAME "Verdana"
WEIGHT_NAME "Bold"
SLANT "R"
SETWIDTH_NAME "Normal"
ADD_STYLE_NAME ""
PIXEL_SIZE 25
POINT_SIZE 180
RESOLUTION_X 100
RESOLUTION_Y 100
SPACING "P"
AVERAGE_WIDTH 156
CHARSET_REGISTRY "ISO10646"
CHARSET_ENCODING "1"
FONT_ASCENT 25
FONT_DESCENT 5
COPYRIGHT "Typeface and data © 1996 Microsoft Corporation. All Rights Reserved"
_OTF_FONTFILE "verdanab.ttf"
_OTF_PSNAME "Verdana-Bold"
ENDPROPERTIES
CHARS 677
STARTCHAR 0020
ENCODING 32
SWIDTH 360 0
DWIDTH 9 0
BBX 0 0 0 0
BITMAP
ENDCHAR
STARTCHAR 0021
ENCODING 33
SWIDTH 400 0
DWIDTH 10 0
BBX 5 19 3 0
BITMAP
F8
F8
F0
F0
F0
F0
F0
F0
F0
F0
F0
F0
F0
F0
00
00
F8
F8
F8
ENDCHAR
STARTCHAR 0022
ENCODING 34
SWIDTH 600 0
DWIDTH 15 0
BBX 11 7 2 13
BITMAP
F3E0
F1E0
F1C0
F1C0
71C0
71C0
71C0
ENDCHAR
STARTCHAR 0023
ENCODING 35
SWIDTH 880 0
DWIDTH 22 0
BBX 18 19 2 0
BITMAP
038700
038E00
038E00
038E00
7FFFC0
7FFFC0
7FFFC0
071C00
0E1C00
0E3800
0E3800
FFFF00
FFFF00
FFFF00
1C7000
1C7000
1C7000
387000
38E000
ENDCHAR
STARTCHAR 0024
ENCODING 36
SWIDTH 720 0
DWIDTH 18 0
BBX 14 23 2 -4
BITMAP
0300
0300
0300
1FF0
7FF8
FFF8
FB18
F300
FB00
FFC0
7FF0
3FFC
07FC
037C
833C
F37C
FFF8
FFF0
3FC0
0300
0300
0300
0300
ENDCHAR
STARTCHAR 0025
ENCODING 37
SWIDTH 1280 0
DWIDTH 32 0
BBX 28 19 2 0
BITMAP
1F007000
7F80F000
FFC0E000
F1C1E000
E1E1C000
E1E3C000
E1E38000
E1E78F80
F1C73FE0
FFCF3FE0
7F8E78F0
1F1E78F0
001C78F0
003C78F0
003878F0
007878F0
00703FE0
00F03FE0
00E00F80
ENDCHAR
STARTCHAR 0026
ENCODING 38
SWIDTH 880 0
DWIDTH 22 0
BBX 21 19 1 0
BITMAP
07E000
1FF800
3FFC00
7C7C00
7C7C00
7C7C00
3E7800
1FF800
0FE3C0
3FC3C0
7FF3C0
7DFBC0
78FFC0
F87F80
7C3F80
7E1F80
7FFFC0
3FFBF0
0FE1F8
ENDCHAR
STARTCHAR 0027
ENCODING 39
SWIDTH 320 0
DWIDTH 8 0
BBX 4 7 2 13
BITMAP
F0
F0
F0
F0
70
70
70
ENDCHAR
STARTCHAR 0028
ENCODING 40
SWIDTH 560 0
DWIDTH 14 0
BBX 9 25 2 -5
BITMAP
0780
0F00
1F00
1E00
3C00
3C00
7800
7800
7800
7800
F000
F000
F000
F000
F000
7800
7800
7800
7800
3C00
3C00
1E00
1F00
0F00
0780
ENDCHAR
STARTCHAR 0029
ENCODING 41
SWIDTH 560 0
DWIDTH 14 0
BBX 9 25 2 -5
BITMAP
F800
7C00
3C00
1E00
1E00
0F00
0F00
0F80
0780
0780
0780
0780
0780
0780
0780
0780
0780
0F80
0F00
0F00
1F00
1E00
3C00
7C00
F800
ENDCHAR
STARTCHAR 002A
ENCODING 42
SWIDTH 720 0
DWIDTH 18 0
BBX 12 12 3 8
BITMAP
0600
0600
C620
E670
77E0
1F80
1F80
7FE0
E670
C620
0600
0600
ENDCHAR
STARTCHAR 002B
ENCODING 43
SWIDTH 880 0
DWIDTH 22 0
BBX 16 15 3 1
BITMAP
03C0
03C0
03C0
03C0
03C0
03C0
FFFF
FFFF
FFFF
03C0
03C0
03C0
03C0
03C0
03C0
ENDCHAR
STARTCHAR 002C
ENCODING 44
SWIDTH 360 0
DWIDTH 9 0
BBX 6 9 1 -4
BITMAP
3C
7C
78
78
70
F0
E0
E0
C0
ENDCHAR
STARTCHAR 002D
ENCODING 45
SWIDTH 480 0
DWIDTH 12 0
BBX 10 3 1 7
BITMAP
FFC0
FFC0
FFC0
ENDCHAR
STARTCHAR 002E
ENCODING 46
SWIDTH 360 0
DWIDTH 9 0
BBX 5 5 2 0
BITMAP
F8
F8
F8
F8
F8
ENDCHAR
STARTCHAR 002F
ENCODING 47
SWIDTH 680 0
DWIDTH 17 0
BBX 13 24 2 -4
BITMAP
0078
0070
00F0
00F0
01E0
01E0
01C0
03C0
03C0
0780
0780
0700
0F00
0E00
1E00
1E00
3C00
3C00
3800
7800
7800
F000
F000
E000
ENDCHAR
STARTCHAR 0030
ENCODING 48
SWIDTH 720 0
DWIDTH 18 0
BBX 15 19 1 0
BITMAP
07E0
1FF8
3FFC
7C7C
7C3E
783E
781E
F81E
F81E
F81E
F81E
F81E
783E
783E
7C3E
7C7C
3FFC
1FF8
07E0
ENDCHAR
STARTCHAR 0031
ENCODING 49
SWIDTH 720 0
DWIDTH 18 0
BBX 12 19 3 0
BITMAP
0F80
0F80
FF80
FF80
FF80
0F80
0F80
0F80
0F80
0F80
0F80
0F80
0F80
0F80
0F80
0F80
FFF0
FFF0
FFF0
ENDCHAR
STARTCHAR 0032
ENCODING 50
SWIDTH 720 0
DWIDTH 18 0
BBX 15 19 2 0
BITMAP
1FC0
7FF0
7FF8
70F8
407C
007C
007C
007C
00F8
01F8
01F0
03E0
07C0
0F80
1F00
7E00
FFFE
FFFE
FFFE
ENDCHAR
STARTCHAR 0033
ENCODING 51
SWIDTH 720 0
DWIDTH 18 0
BBX 14 19 2 0
BITMAP
3FC0
FFF0
FFF8
E0F8
807C
0078
00F8
0FF0
0FC0
0FF8
00F8
007C
007C
007C
807C
E0F8
FFF8
FFF0
3FC0
ENDCHAR
STARTCHAR 0034
ENCODING 52
SWIDTH 720 0
DWIDTH 18 0
BBX 16 19 1 0
BITMAP
00F8
01F8
01F8
03F8
07F8
07F8
0F78
1E78
3C78
3C78
7878
F078
FFFF
FFFF
FFFF
0078
0078
0078
0078
ENDCHAR
STARTCHAR 0035
ENCODING 53
SWIDTH 720 0
DWIDTH 18 0
BBX 14 19 2 0
BITMAP
7FFC
7FFC
7FFC
7800
7800
7800
7800
7FC0
7FF0
7FF8
60FC
007C
007C
007C
807C
E0F8
FFF8
FFF0
3FC0
ENDCHAR
STARTCHAR 0036
ENCODING 54
SWIDTH 720 0
DWIDTH 18 0
BBX 15 19 2 0
BITMAP
03F8
0FF8
3FF8
7E08
7C00
F800
FBE0
FFF8
FFFC
F07C
F07C
F03C
F03E
F83C
F87C
7C7C
7FF8
3FF0
0FC0
ENDCHAR
STARTCHAR 0037
ENCODING 55
SWIDTH 720 0
DWIDTH 18 0
BBX 14 19 2 0
BITMAP
FFFC
FFFC
FFFC
007C
00F8
00F8
01F0
01F0
03E0
03E0
07C0
07C0
0F80
0F80
1F00
1F00
3E00
7E00
7C00
ENDCHAR
STARTCHAR 0038
ENCODING 56
SWIDTH 720 0
DWIDTH 18 0
BBX 16 19 1 0
BITMAP
07E0
1FFC
7FFC
7C3E
783E
783E
7E3E
7FBC
3FF0
0FF8
3FFE
787E
F81E
F81F
F81E
7C3E
7FFE
3FF8
0FE0
ENDCHAR
STARTCHAR 0039
ENCODING 57
SWIDTH 720 0
DWIDTH 18 0
BBX 15 19 1 0
BITMAP
07E0
1FF8
3FF8
7C7C
783E
F83E
F83E
F83E
F83E
7C3E
7FFE
3FFE
0FBE
003C
007C
20F8
3FF0
3FE0
3F80
ENDCHAR
STARTCHAR 003A
ENCODING 58
SWIDTH 400 0
DWIDTH 10 0
BBX 4 14 3 0
BITMAP
F0
F0
F0
F0
F0
00
00
00
00
F0
F0
F0
F0
F0
ENDCHAR
STARTCHAR 003B
ENCODING 59
SWIDTH 400 0
DWIDTH 10 0
BBX 7 18 1 -4
BITMAP
3C
3C
3C
3C
3C
00
00
00
00
3E
3C
3C
78
78
70
70
E0
E0
ENDCHAR
STARTCHAR 003C
ENCODING 60
SWIDTH 880 0
DWIDTH 22 0
BBX 17 16 2 0
BITMAP
000080
000780
001F80
00FF80
03FC00
1FF000
7F8000
FE0000
FE0000
7F8000
1FF000
03FC00
00FF80
001F80
000780
000080
ENDCHAR
STARTCHAR 003D
ENCODING 61
SWIDTH 880 0
DWIDTH 22 0
BBX 16 9 3 4
BITMAP
FFFF
FFFF
FFFF
0000
0000
0000
FFFF
FFFF
FFFF
ENDCHAR
STARTCHAR 003E
ENCODING 62
SWIDTH 880 0
DWIDTH 22 0
BBX 16 16 3 0
BITMAP
8000
F000
FC00
FF00
1FE0
07F8
00FF
003F
003F
00FF
07F8
1FE0
FF00
FC00
F000
8000
ENDCHAR
STARTCHAR 003F
ENCODING 63
SWIDTH 600 0
DWIDTH 15 0
BBX 12 19 2 0
BITMAP
7F80
FFC0
FFE0
C3F0
01F0
01F0
01F0
01F0
03E0
0FC0
1F00
1E00
1E00
1E00
0000
0000
3E00
3E00
3E00
ENDCHAR
STARTCHAR 0040
ENCODING 64
SWIDTH 960 0
DWIDTH 24 0
BBX 20 22 2 -3
BITMAP
01F800
07FF00
1F0780
3C01C0
3800E0
70FE60
63FE70
E78E70
E70E30
C70E30
C70E30
C70E30
C70E30
E70E70
E71E70
63FFE0
71EFE0
300000
3C0000
1E0600
07FE00
01FE00
ENDCHAR
STARTCHAR 0041
ENCODING 65
SWIDTH 760 0
DWIDTH 19 0
BBX 19 19 0 0
BITMAP
01F800
03F800
03F800
03FC00
07FC00
07BC00
07BE00
0FBE00
0F9E00
0F1F00
1F1F00
1F0F00
1FFF80
3FFF80
3FFFC0
3C07C0
7C07C0
7C03E0
F803E0
ENDCHAR
STARTCHAR 0042
ENCODING 66
SWIDTH 760 0
DWIDTH 19 0
BBX 16 19 2 0
BITMAP
FFF0
FFF8
FFFC
F87E
F83E
F83E
F83C
F87C
FFF8
FFF8
FFFE
F83E
F81F
F81F
F81F
F83E
FFFE
FFFC
FFF0
ENDCHAR
STARTCHAR 0043
ENCODING 67
SWIDTH 720 0
DWIDTH 18 0
BBX 16 19 1 0
BITMAP
03F8
0FFF
1FFF
3F0F
7E03
7C01
7C00
F800
F800
F800
F800
F800
7C00
7C01
7E03
3F0F
1FFF
0FFF
03F8
ENDCHAR
STARTCHAR 0044
ENCODING 68
SWIDTH 840 0
DWIDTH 21 0
BBX 17 19 2 0
BITMAP
FFE000
FFF800
FFFE00
F87F00
F81F00
F80F80
F80F80
F80F80
F80780
F80780
F80780
F80F80
F80F80
F80F80
F81F00
F83F00
FFFE00
FFF800
FFE000
ENDCHAR
STARTCHAR 0045
ENCODING 69
SWIDTH 680 0
DWIDTH 17 0
BBX 13 19 2 0
BITMAP
FFF8
FFF8
FFF8
F800
F800
F800
F800
FFF8
FFF8
FFF8
F800
F800
F800
F800
F800
F800
FFF8
FFF8
FFF8
ENDCHAR
STARTCHAR 0046
ENCODING 70
SWIDTH 640 0
DWIDTH 16 0
BBX 13 19 2 0
BITMAP
FFF8
FFF8
FFF8
F800
F800
F800
F800
FFF8
FFF8
FFF8
F800
F800
F800
F800
F800
F800
F800
F800
F800
ENDCHAR
STARTCHAR 0047
ENCODING 71
SWIDTH 800 0
DWIDTH 20 0
BBX 17 19 1 0
BITMAP
01FC00
0FFF80
1FFF80
3F0780
7E0180
7C0080
7C0000
F80000
F80000
F87F80
F87F80
F87F80
7C0780
7C0780
7E0780
3F0780
1FFF80
0FFF80
01FC00
ENDCHAR
STARTCHAR 0048
ENCODING 72
SWIDTH 840 0
DWIDTH 21 0
BBX 17 19 2 0
BITMAP
F80F80
F80F80
F80F80
F80F80
F80F80
F80F80
F80F80
FFFF80
FFFF80
FFFF80
F80F80
F80F80
F80F80
F80F80
F80F80
F80F80
F80F80
F80F80
F80F80
ENDCHAR
STARTCHAR 0049
ENCODING 73
SWIDTH 560 0
DWIDTH 14 0
BBX 11 19 1 0
BITMAP
FFE0
FFE0
FFE0
1F00
1F00
1F00
1F00
1F00
1F00
1F00
1F00
1F00
1F00
1F00
1F00
1F00
FFE0
FFE0
FFE0
ENDCHAR
STARTCHAR 004A
ENCODING 74
SWIDTH 560 0
DWIDTH 14 0
BBX 11 19 1 0
BITMAP
3FE0
3FE0
3FE0
03E0
03E0
03E0
03E0
03E0
03E0
03E0
03E0
03E0
03E0
03E0
03E0
87C0
FFC0
FF80
FE00
ENDCHAR
STARTCHAR 004B
ENCODING 75
SWIDTH 760 0
DWIDTH 19 0
BBX 17 19 2 0
BITMAP
F81F80
F83F00
F83E00
F87C00
F8F800
F9F800
F9F000
FBE000
FFC000
FFC000
FFE000
FFF000
F9F800
F8F800
F8FC00
F87E00
F83E00
F83F00
F81F80
ENDCHAR
STARTCHAR 004C
ENCODING 76
SWIDTH 640 0
DWIDTH 16 0
BBX 13 19 2 0
BITMAP
F800
F800
F800
F800
F800
F800
F800
F800
F800
F800
F800
F800
F800
F800
F800
F800
FFF8
FFF8
FFF8
ENDCHAR
STARTCHAR 004D
ENCODING 77
SWIDTH 960 0
DWIDTH 24 0
BBX 19 19 2 0
BITMAP
FC03E0
FC07E0
FE07E0
FE0FE0
FF0FE0
FF0FE0
FF1FE0
FF9DE0
FBBDE0
FBFDE0
FBF9E0
F9F9E0
F9F1E0
F8F1E0
F8F1E0
F801E0
F801E0
F801E0
F801E0
ENDCHAR
STARTCHAR 004E
ENCODING 78
SWIDTH 840 0
DWIDTH 21 0
BBX 17 19 2 0
BITMAP
FC0780
FE0780
FE0780
FF0780
FF8780
FF8780
FFC780
FBC780
FBE780
F9F780
F9F780
F8FF80
F8FF80
F87F80
F83F80
F83F80
F81F80
F81F80
F80F80
ENDCHAR
STARTCHAR 004F
ENCODING 79
SWIDTH 840 0
DWIDTH 21 0
BBX 19 19 1 0
BITMAP
03F800
0FFE00
1FFF00
3F0F80
7C07C0
7C07C0
7C03E0
F803E0
F803E0
F803E0
F803E0
F803E0
7C03E0
7C07C0
7C07C0
3F0F80
1FFF00
0FFE00
03F800
ENDCHAR
STARTCHAR 0050
ENCODING 80
SWIDTH 720 0
DWIDTH 18 0
BBX 15 19 2 0
BITMAP
FFE0
FFF8
FFFC
F87E
F83E
F83E
F83E
F83E
F83E
F87E
FFFC
FFF8
FFE0
F800
F800
F800
F800
F800
F800
ENDCHAR
STARTCHAR 0051
ENCODING 81
SWIDTH 840 0
DWIDTH 21 0
BBX 19 24 1 -5
BITMAP
03F800
0FFE00
1FFF00
3F0F80
7C07C0
7C07C0
7C03E0
F803E0
F803E0
F803E0
F803E0
F803E0
7C03E0
7C07C0
7C07C0
3F0F80
1FFF00
0FFE00
03F800
007800
007C00
003FE0
003FE0
000FE0
ENDCHAR
STARTCHAR 0052
ENCODING 82
SWIDTH 800 0
DWIDTH 20 0
BBX 17 19 2 0
BITMAP
FFF000
FFFC00
FFFE00
F87E00
F83E00
F83E00
F83E00
F83E00
F87E00
FFFC00
FFF000
FFF000
F9F800
F8FC00
F87C00
F83E00
F83F00
F81F80
F80F80
ENDCHAR
STARTCHAR 0053
ENCODING 83
SWIDTH 720 0
DWIDTH 18 0
BBX 16 19 1 0
BITMAP
07F8
1FFE
3FFE
7C0E
7802
F800
FC00
7FC0
7FF8
3FFE
1FFE
01FF
003F
801F
E01F
F83E
FFFE
FFF8
1FE0
ENDCHAR
STARTCHAR 0054
ENCODING 84
SWIDTH 680 0
DWIDTH 17 0
BBX 17 19 0 0
BITMAP
FFFF80
FFFF80
FFFF80
03E000
03E000
03E000
03E000
03E000
03E000
03E000
03E000
03E000
03E000
03E000
03E000
03E000
03E000
03E000
03E000
ENDCHAR
STARTCHAR 0055
ENCODING 85
SWIDTH 800 0
DWIDTH 20 0
BBX 16 19 2 0
BITMAP
F80F
F80F
F80F
F80F
F80F
F80F
F80F
F80F
F80F
F80F
F80F
F80F
F80F
F81F
F81F
7C3E
7FFE
1FFC
0FF0
ENDCHAR
STARTCHAR 0056
ENCODING 86
SWIDTH 760 0
DWIDTH 19 0
BBX 19 19 0 0
BITMAP
F803E0
7C07C0
7C07C0
3C07C0
3E0780
3E0F80
1E0F80
1F0F00
1F1F00
0F1F00
0F9E00
0FBE00
07BC00
07FC00
07FC00
03F800
03F800
03F800
01F000
ENDCHAR
STARTCHAR 0057
ENCODING 87
SWIDTH 1120 0
DWIDTH 28 0
BBX 26 19 1 0
BITMAP
F81F03C0
F83F07C0
F83F07C0
783F07C0
7C3F8780
7C7F8F80
7C7F8F80
3C7F8F00
3E7BCF00
3EF3DF00
1EF3DF00
1EF3DE00
1EF1FE00
1FE1FE00
0FE1FE00
0FE1FC00
0FE0FC00
0FC0FC00
07C0FC00
ENDCHAR
STARTCHAR 0058
ENCODING 88
SWIDTH 760 0
DWIDTH 19 0
BBX 17 19 1 0
BITMAP
F80F80
FC0F80
7C1F00
3E3E00
3F3E00
1F7C00
0FF800
0FF800
07F000
03F000
07F000
0FF800
0FFC00
1F7C00
3E3E00
3E3E00
7C1F00
F81F80
F80F80
ENDCHAR
STARTCHAR 0059
ENCODING 89
SWIDTH 720 0
DWIDTH 18 0
BBX 18 19 0 0
BITMAP
FC07C0
7C0F80
3E0F80
3E1F00
1F1F00
1F3E00
0FBE00
0FFC00
07F800
03F800
03F000
01F000
01F000
01F000
01F000
01F000
01F000
01F000
01F000
ENDCHAR
STARTCHAR 005A
ENCODING 90
SWIDTH 680 0
DWIDTH 17 0
BBX 15 19 1 0
BITMAP
7FFE
7FFE
7FFE
007E
00FC
01F8
01F0
03F0
07E0
07C0
0FC0
1F80
1F00
3F00
7E00
FC00
FFFE
FFFE
FFFE
ENDCHAR
STARTCHAR 005B
ENCODING 91
SWIDTH 560 0
DWIDTH 14 0
BBX 8 25 3 -5
BITMAP
FF
FF
FF
F0
F0
F0
F0
F0
F0
F0
F0
F0
F0
F0
F0
F0
F0
F0
F0
F0
F0
F0
FF
FF
FF
ENDCHAR
STARTCHAR 005C
ENCODING 92
SWIDTH 680 0
DWIDTH 17 0
BBX 13 24 3 -4
BITMAP
E000
F000
F000
7800
7800
3800
3C00
3C00
1E00
1E00
0E00
0F00
0F00
0780
0780
0380
03C0
03C0
01E0
01E0
00E0
00F0
00F0
0078
ENDCHAR
STARTCHAR 005D
ENCODING 93
SWIDTH 560 0
DWIDTH 14 0
BBX 9 25 2 -5
BITMAP
FF80
FF80
FF80
0780
0780
0780
0780
0780
0780
0780
0780
0780
0780
0780
0780
0780
0780
0780
0780
0780
0780
0780
FF80
FF80
FF80
ENDCHAR
STARTCHAR 005E
ENCODING 94
SWIDTH 880 0
DWIDTH 22 0
BBX 16 10 3 9
BITMAP
03C0
07C0
0FE0
0FF0
1EF0
3C78
3C3C
781E
F01E
F00F
ENDCHAR
STARTCHAR 005F
ENCODING 95
SWIDTH 720 0
DWIDTH 18 0
BBX 18 3 0 -5
BITMAP
FFFFC0
FFFFC0
FFFFC0
ENDCHAR
STARTCHAR 0060
ENCODING 96
SWIDTH 720 0
DWIDTH 18 0
BBX 7 5 5 16
BITMAP
F0
78
38
1C
1E
ENDCHAR
STARTCHAR 0061
ENCODING 97
SWIDTH 680 0
DWIDTH 17 0
BBX 14 14 1 0
BITMAP
3FE0
7FF0
7FF8
607C
007C
07FC
3FFC
7FFC
FC7C
F87C
F87C
FFFC
7FFC
3F7C
ENDCHAR
STARTCHAR 0062
ENCODING 98
SWIDTH 680 0
DWIDTH 17 0
BBX 14 20 2 0
BITMAP
F000
F000
F000
F000
F000
F000
F1E0
F7F8
FFF8
F87C
F07C
F03C
F03C
F03C
F03C
F07C
F0FC
FFF8
FFF0
F7E0
ENDCHAR
STARTCHAR 0063
ENCODING 99
SWIDTH 600 0
DWIDTH 15 0
BBX 13 14 1 0
BITMAP
07E0
1FF8
3FF8
7C38
F808
F800
F800
F800
F800
F808
7C38
3FF8
1FF8
07E0
ENDCHAR
STARTCHAR 0064
ENCODING 100
SWIDTH 680 0
DWIDTH 17 0
BBX 14 20 1 0
BITMAP
003C
003C
003C
003C
003C
003C
0FBC
3FFC
7FFC
7C3C
F83C
F83C
F83C
F83C
F83C
F83C
7C7C
7FFC
3FFC
1FBC
ENDCHAR
STARTCHAR 0065
ENCODING 101
SWIDTH 680 0
DWIDTH 17 0
BBX 15 14 1 0
BITMAP
07E0
1FF8
3FFC
783C
F83C
FFFE
FFFE
FFFE
F800
F804
7C1C
7FFC
1FFC
07F0
ENDCHAR
STARTCHAR 0066
ENCODING 102
SWIDTH 440 0
DWIDTH 11 0
BBX 10 20 1 0
BITMAP
0FC0
1FC0
3FC0
3C00
7C00
7C00
FF80
FF80
FF80
7C00
7C00
7C00
7C00
7C00
7C00
7C00
7C00
7C00
7C00
7C00
ENDCHAR
STARTCHAR 0067
ENCODING 103
SWIDTH 680 0
DWIDTH 17 0
BBX 14 19 1 -5
BITMAP
0FBC
3FFC
7FFC
7C3C
F83C
F83C
F83C
F83C
F83C
F83C
7C7C
7FFC
3FFC
1FBC
003C
207C
3FF8
3FF0
3FC0
ENDCHAR
STARTCHAR 0068
ENCODING 104
SWIDTH 720 0
DWIDTH 18 0
BBX 14 20 2 0
BITMAP
F000
F000
F000
F000
F000
F000
F1E0
F7F8
FFF8
FFFC
F87C
F07C
F07C
F07C
F07C
F07C
F07C
F07C
F07C
F07C
ENDCHAR
STARTCHAR 0069
ENCODING 105
SWIDTH 360 0
DWIDTH 9 0
BBX 5 20 2 0
BITMAP
F8
F8
F8
00
00
00
F0
F0
F0
F0
F0
F0
F0
F0
F0
F0
F0
F0
F0
F0
ENDCHAR
STARTCHAR 006A
ENCODING 106
SWIDTH 400 0
DWIDTH 10 0
BBX 9 25 -1 -5
BITMAP
0F80
0F80
0F80
0000
0000
0000
3F80
3F80
3F80
0780
0780
0780
0780
0780
0780
0780
0780
0780
0780
0780
0F80
0F80
FF00
FF00
FC00
ENDCHAR
STARTCHAR 006B
ENCODING 107
SWIDTH 680 0
DWIDTH 17 0
BBX 14 20 2 0
BITMAP
F000
F000
F000
F000
F000
F000
F07C
F0F8
F1F0
F1E0
F3E0
F7C0
FFC0
FFC0
FBE0
F1F0
F1F0
F0F8
F07C
F07C
ENDCHAR
STARTCHAR 006C
ENCODING 108
SWIDTH 360 0
DWIDTH 9 0
BBX 4 20 2 0
BITMAP
F0
F0
F0
F0
F0
F0
F0
F0
F0
F0
F0
F0
F0
F0
F0
F0
F0
F0
F0
F0
ENDCHAR
STARTCHAR 006D
ENCODING 109
SWIDTH 1040 0
DWIDTH 26 0
BBX 22 14 2 0
BITMAP
F1E0F0
F7F3F8
FFFFFC
FFFFFC
F87C3C
F0783C
F0783C
F0783C
F0783C
F0783C
F0783C
F0783C
F0783C
F0783C
ENDCHAR
STARTCHAR 006E
ENCODING 110
SWIDTH 720 0
DWIDTH 18 0
BBX 14 14 2 0
BITMAP
F1E0
F7F8
FFF8
FFFC
F87C
F07C
F07C
F07C
F07C
F07C
F07C
F07C
F07C
F07C
ENDCHAR
STARTCHAR 006F
ENCODING 111
SWIDTH 680 0
DWIDTH 17 0
BBX 15 14 1 0
BITMAP
0FE0
3FF8
7FFC
7C7C
F83E
F83E
F81E
F81E
F83E
F83E
7C7C
7FFC
3FF8
0FE0
ENDCHAR
STARTCHAR 0070
ENCODING 112
SWIDTH 680 0
DWIDTH 17 0
BBX 14 19 2 -5
BITMAP
F3E0
FFF8
FFF8
F87C
F07C
F03C
F03C
F03C
F03C
F07C
F0FC
FFF8
FFF0
F7E0
F000
F000
F000
F000
F000
ENDCHAR
STARTCHAR 0071
ENCODING 113
SWIDTH 680 0
DWIDTH 17 0
BBX 14 19 1 -5
BITMAP
0FFC
3FFC
7FFC
7C3C
F83C
F83C
F83C
F83C
F83C
F83C
7C7C
7FFC
3FFC
1F3C
003C
003C
003C
003C
003C
ENDCHAR
STARTCHAR 0072
ENCODING 114
SWIDTH 480 0
DWIDTH 12 0
BBX 10 14 2 0
BITMAP
F1C0
F7C0
FFC0
FFC0
F800
F000
F000
F000
F000
F000
F000
F000
F000
F000
ENDCHAR
STARTCHAR 0073
ENCODING 115
SWIDTH 600 0
DWIDTH 15 0
BBX 13 14 1 0
BITMAP
0FE0
3FF0
7FF0
F810
F800
FF80
7FE0
3FF0
0FF8
80F8
E0F8
FFF0
FFE0
3F80
ENDCHAR
STARTCHAR 0074
ENCODING 116
SWIDTH 440 0
DWIDTH 11 0
BBX 10 18 1 0
BITMAP
7C00
7C00
7C00
7C00
FFC0
FFC0
FFC0
7C00
7C00
7C00
7C00
7C00
7C00
7C00
7C00
3FC0
3FC0
1FC0
ENDCHAR
STARTCHAR 0075
ENCODING 117
SWIDTH 720 0
DWIDTH 18 0
BBX 14 14 2 0
BITMAP
F07C
F07C
F07C
F07C
F07C
F07C
F07C
F07C
F87C
F87C
FFFC
FFFC
7FFC
3E7C
ENDCHAR
STARTCHAR 0076
ENCODING 118
SWIDTH 640 0
DWIDTH 16 0
BBX 15 14 1 0
BITMAP
F03E
F83C
F83C
787C
7C78
7C78
3CF0
3CF0
1EF0
1FE0
1FE0
0FE0
0FC0
0FC0
ENDCHAR
STARTCHAR 0077
ENCODING 119
SWIDTH 960 0
DWIDTH 24 0
BBX 23 14 1 0
BITMAP
F0783E
F87C3C
F87C3C
78FC3C
78FE7C
78EE78
7DEE78
3DCE78
3DCFF0
3DC7F0
1FC7F0
1F87E0
1F83E0
0F83E0
ENDCHAR
STARTCHAR 0078
ENCODING 120
SWIDTH 680 0
DWIDTH 17 0
BBX 15 14 1 0
BITMAP
F83E
7C7C
7C78
3EF8
1FF0
0FE0
0FC0
0FC0
0FE0
1FF0
3EF8
7C7C
F87C
F83E
ENDCHAR
STARTCHAR 0079
ENCODING 121
SWIDTH 640 0
DWIDTH 16 0
BBX 15 19 1 -5
BITMAP
F03E
F83C
F83C
787C
7C78
7CF8
3CF0
3EF0
1FF0
1FE0
1FE0
0FC0
0FC0
07C0
0F80
0F80
0F00
1F00
1E00
ENDCHAR
STARTCHAR 007A
ENCODING 122
SWIDTH 600 0
DWIDTH 15 0
BBX 13 14 1 0
BITMAP
FFF8
FFF8
FFF8
01F0
03E0
07C0
0F80
1F80
1F00
3E00
7C00
FFF8
FFF8
FFF8
ENDCHAR
STARTCHAR 007B
ENCODING 123
SWIDTH 720 0
DWIDTH 18 0
BBX 13 25 2 -5
BITMAP
01F8
03F8
07F8
07C0
0780
0780
0780
0780
0780
0F00
1F00
FE00
F800
FE00
1F00
0F00
0780
0780
0780
0780
0780
07C0
07F8
03F8
01F8
ENDCHAR
STARTCHAR 007C
ENCODING 124
SWIDTH 560 0
DWIDTH 14 0
BBX 4 25 5 -5
BITMAP
F0
F0
F0
F0
F0
F0
F0
F0
F0
F0
F0
F0
F0
F0
F0
F0
F0
F0
F0
F0
F0
F0
F0
F0
F0
ENDCHAR
STARTCHAR 007D
ENCODING 125
SWIDTH 720 0
DWIDTH 18 0
BBX 14 25 2 -5
BITMAP
FC00
FF00
FF00
0F80
0780
0780
0780
0780
0780
0780
03C0
01FC
007C
01FC
03E0
07C0
0780
0780
0780
0780
0780
0F80
FF00
FF00
FC00
ENDCHAR
STARTCHAR 007E
ENCODING 126
SWIDTH 880 0
DWIDTH 22 0
BBX 18 8 2 4
BITMAP
1E03C0
3F83C0
7FC3C0
73C380
F1E380
E0FF80
E07F00
E03E00
ENDCHAR
STARTCHAR 00A0
ENCODING 160
SWIDTH 360 0
DWIDTH 9 0
BBX 0 0 0 0
BITMAP
ENDCHAR
STARTCHAR 00A1
ENCODING 161
SWIDTH 400 0
DWIDTH 10 0
BBX 6 19 2 0
BITMAP
7C
7C
7C
00
00
78
78
78
78
78
78
78
78
78
78
78
78
7C
FC
ENDCHAR
STARTCHAR 00A2
ENCODING 162
SWIDTH 720 0
DWIDTH 18 0
BBX 14 22 2 -4
BITMAP
00C0
00C0
00C0
00C0
07F0
1FFC
3FFC
7CDC
78CC
F8C0
F8C0
F8C0
F8C0
78CC
7CDC
3FFC
1FFC
07F0
00C0
00C0
00C0
00C0
ENDCHAR
STARTCHAR 00A3
ENCODING 163
SWIDTH 720 0
DWIDTH 18 0
BBX 14 19 2 0
BITMAP
03F8
0FF8
1FF8
1F08
1E00
3E00
3E00
3E00
3E00
FFF0
FFF0
FFF0
3E00
3E00
3C00
7800
FFFC
FFFC
FFFC
ENDCHAR
STARTCHAR 00A4
ENCODING 164
SWIDTH 720 0
DWIDTH 18 0
BBX 13 14 2 1
BITMAP
2010
7038
7FF8
3FF0
1FE0
3CE0
3870
3870
3CF0
3FE0
7FF0
FFF8
7038
2010
ENDCHAR
STARTCHAR 00A5
ENCODING 165
SWIDTH 720 0
DWIDTH 18 0
BBX 16 19 1 0
BITMAP
F81F
F83E
7C3E
3C3C
3E7C
1E78
1FF8
0FF0
0FE0
07E0
07C0
03C0
3FFC
3FFC
3FFC
03C0
03C0
03C0
03C0
ENDCHAR
STARTCHAR 00A6
ENCODING 166
SWIDTH 560 0
DWIDTH 14 0
BBX 4 25 5 -5
BITMAP
F0
F0
F0
F0
F0
F0
F0
F0
F0
F0
00
00
00
00
00
F0
F0
F0
F0
F0
F0
F0
F0
F0
F0
ENDCHAR
STARTCHAR 00A7
ENCODING 167
SWIDTH 720 0
DWIDTH 18 0
BBX 14 24 2 -5
BITMAP
0FF0
3FF8
7FF8
FC18
F800
FC00
7F00
7FE0
3FF0
7FF8
F8FC
F07C
F03C
FC78
FFF8
7FE0
1FF0
03F8
00F8
00FC
40F8
7FF8
7FF0
3FC0
ENDCHAR
STARTCHAR 00A8
ENCODING 168
SWIDTH 720 0
DWIDTH 18 0
BBX 10 3 4 16
BITMAP
E3C0
E3C0
E3C0
ENDCHAR
STARTCHAR 00A9
ENCODING 169
SWIDTH 960 0
DWIDTH 24 0
BBX 22 21 1 -2
BITMAP
00FC00
03FF00
0F03C0
1C00E0
380070
307C30
71FE38
61C218
638018
63801C
E3801C
63801C
638018
61C218
71FE38
307C30
380070
1C00E0
0F03C0
07FF80
00FC00
ENDCHAR
STARTCHAR 00AA
ENCODING 170
SWIDTH 600 0
DWIDTH 15 0
BBX 11 12 2 7
BITMAP
7F00
7FC0
43C0
01E0
1FE0
7FE0
F1E0
E1E0
E1E0
F3E0
FFE0
3DE0
ENDCHAR
STARTCHAR 00AB
ENCODING 171
SWIDTH 840 0
DWIDTH 21 0
BBX 15 13 3 2
BITMAP
0202
0606
0E1E
3E3E
7C7C
F8F0
E1E0
F8F0
7C7C
3E3E
0E1E
0606
0202
ENDCHAR
STARTCHAR 00AC
ENCODING 172
SWIDTH 880 0
DWIDTH 22 0
BBX 16 10 3 0
BITMAP
FFFF
FFFF
FFFF
000F
000F
000F
000F
000F
000F
000F
ENDCHAR
STARTCHAR 00AD
ENCODING 173
SWIDTH 480 0
DWIDTH 12 0
BBX 10 3 1 7
BITMAP
FFC0
FFC0
FFC0
ENDCHAR
STARTCHAR 00AE
ENCODING 174
SWIDTH 960 0
DWIDTH 24 0
BBX 22 21 1 -2
BITMAP
00FC00
03FF00
0F03C0
1C00E0
380070
31FC30
71FE38
618E18
618E18
61FE1C
E1F81C
619C1C
618E18
618F18
7187B8
300030
380070
1C00E0
0F03C0
07FF80
00FC00
ENDCHAR
STARTCHAR 00AF
ENCODING 175
SWIDTH 720 0
DWIDTH 18 0
BBX 18 3 0 19
BITMAP
FFFFC0
FFFFC0
FFFFC0
ENDCHAR
STARTCHAR 00B0
ENCODING 176
SWIDTH 600 0
DWIDTH 15 0
BBX 10 10 2 9
BITMAP
1F00
3F80
7FC0
F1C0
E0C0
E0C0
F1C0
7FC0
3F80
1F00
ENDCHAR
STARTCHAR 00B1
ENCODING 177
SWIDTH 880 0
DWIDTH 22 0
BBX 16 18 3 0
BITMAP
03C0
03C0
03C0
03C0
03C0
03C0
FFFF
FFFF
FFFF
03C0
03C0
03C0
03C0
03C0
03C0
FFFF
FFFF
FFFF
ENDCHAR
STARTCHAR 00B2
ENCODING 178
SWIDTH 600 0
DWIDTH 15 0
BBX 10 12 3 7
BITMAP
7E00
FF00
C780
8780
0780
0780
0F00
1E00
3C00
7800
FFC0
FFC0
ENDCHAR
STARTCHAR 00B3
ENCODING 179
SWIDTH 600 0
DWIDTH 15 0
BBX 9 12 3 7
BITMAP
7E00
FF80
8780
0780
0780
3F00
3F00
0780
0380
8780
FF80
FE00
ENDCHAR
STARTCHAR 00B4
ENCODING 180
SWIDTH 720 0
DWIDTH 18 0
BBX 7 5 6 16
BITMAP
1E
3C
78
70
E0
ENDCHAR
STARTCHAR 00B5
ENCODING 181
SWIDTH 720 0
DWIDTH 18 0
BBX 14 19 2 -5
BITMAP
F03C
F03C
F03C
F03C
F03C
F03C
F03C
F03C
F03C
F03C
F87C
FFFC
FFFC
F7BC
F000
F000
F000
F000
F000
ENDCHAR
STARTCHAR 00B6
ENCODING 182
SWIDTH 720 0
DWIDTH 18 0
BBX 13 23 2 -4
BITMAP
1FF8
7FF8
FF98
FF98
FF98
FF98
FF98
FF98
7F98
7F98
1F98
0398
0398
0398
0398
0398
0398
0398
0398
0398
0398
0398
0398
ENDCHAR
STARTCHAR 00B7
ENCODING 183
SWIDTH 360 0
DWIDTH 9 0
BBX 5 5 2 6
BITMAP
F8
F8
F8
F8
F8
ENDCHAR
STARTCHAR 00B8
ENCODING 184
SWIDTH 720 0
DWIDTH 18 0
BBX 7 5 5 -5
BITMAP
0E
0E
0E
FE
F8
ENDCHAR
STARTCHAR 00B9
ENCODING 185
SWIDTH 600 0
DWIDTH 15 0
BBX 9 12 3 7
BITMAP
1E00
1E00
FE00
FE00
1E00
1E00
1E00
1E00
1E00
1E00
7F80
7F80
ENDCHAR
STARTCHAR 00BA
ENCODING 186
SWIDTH 600 0
DWIDTH 15 0
BBX 11 12 2 7
BITMAP
1F00
7FC0
F1E0
F1E0
E0E0
E0E0
E0E0
E0E0
E1E0
F1E0
7FC0
1F00
ENDCHAR
STARTCHAR 00BB
ENCODING 187
SWIDTH 840 0
DWIDTH 21 0
BBX 15 13 4 2
BITMAP
8100
C180
E1C0
F1F0
78F8
3E3C
1E1E
3E3C
78F8
F1F0
E1E0
C180
8100
ENDCHAR
STARTCHAR 00BC
ENCODING 188
SWIDTH 1200 0
DWIDTH 30 0
BBX 26 19 2 0
BITMAP
0E01C000
1E01C000
FE038000
FE038000
1E070000
1E070000
1E0E0000
1E0E0F00
1E1C1F00
1E1C3F00
1E387F00
1E38EF00
0071CF00
00718F00
00E1FFC0
01E1FFC0
01C00F00
03C00F00
03800F00
ENDCHAR
STARTCHAR 00BD
ENCODING 189
SWIDTH 1200 0
DWIDTH 30 0
BBX 26 19 2 0
BITMAP
1C01C000
3C038000
FC038000
FC070000
1C070000
1C0E0000
1C0E0000
1C1C7E00
1C1CFF00
1C38C780
1C388780
1C700780
00700780
00E00F00
00E01F00
01C03E00
01C07800
0380FFC0
0380FFC0
ENDCHAR
STARTCHAR 00BE
ENCODING 190
SWIDTH 1200 0
DWIDTH 30 0
BBX 26 19 2 0
BITMAP
7F00F000
FF80E000
C381E000
0381C000
0383C000
3F038000
3F878000
03C70F00
03CE1F00
83CE3F00
FF9C3700
7F1C6700
0038C700
0039C700
0071FFC0
0071FFC0
00E00700
00E00700
01C00700
ENDCHAR
STARTCHAR 00BF
ENCODING 191
SWIDTH 600 0
DWIDTH 15 0
BBX 13 19 1 0
BITMAP
07C0
07C0
07C0
0000
0000
07C0
07C0
07C0
0FC0
3F80
7E00
7C00
7800
F800
F800
7C18
7FF8
3FF8
0FE0
ENDCHAR
STARTCHAR 00C0
ENCODING 192
SWIDTH 760 0
DWIDTH 19 0
BBX 19 26 0 0
BITMAP
03C000
03C000
01E000
00F000
007000
000000
000000
01F800
03F800
03F800
03FC00
07FC00
07BC00
07BE00
0FBE00
0F9E00
0F1F00
1F1F00
1F0F00
1FFF80
3FFF80
3FFFC0
3C07C0
7C07C0
7C03E0
F803E0
ENDCHAR
STARTCHAR 00C1
ENCODING 193
SWIDTH 760 0
DWIDTH 19 0
BBX 19 26 0 0
BITMAP
007C00
007800
00F000
01E000
01C000
000000
000000
01F800
03F800
03F800
03FC00
07FC00
07BC00
07BE00
0FBE00
0F9E00
0F1F00
1F1F00
1F0F00
1FFF80
3FFF80
3FFFC0
3C07C0
7C07C0
7C03E0
F803E0
ENDCHAR
STARTCHAR 00C2
ENCODING 194
SWIDTH 760 0
DWIDTH 19 0
BBX 19 25 0 0
BITMAP
00F000
01F000
03B800
079C00
070E00
000000
01F800
03F800
03F800
03FC00
07FC00
07BC00
07BE00
0FBE00
0F9E00
0F1F00
1F1F00
1F0F00
1FFF80
3FFF80
3FFFC0
3C07C0
7C07C0
7C03E0
F803E0
ENDCHAR
STARTCHAR 00C3
ENCODING 195
SWIDTH 760 0
DWIDTH 19 0
BBX 19 25 0 0
BITMAP
038E00
07FC00
0FFC00
0E7800
000000
000000
01F800
03F800
03F800
03FC00
07FC00
07BC00
07BE00
0FBE00
0F9E00
0F1F00
1F1F00
1F0F00
1FFF80
3FFF80
3FFFC0
3C07C0
7C07C0
7C03E0
F803E0
ENDCHAR
STARTCHAR 00C4
ENCODING 196
SWIDTH 760 0
DWIDTH 19 0
BBX 19 24 0 0
BITMAP
071E00
071E00
071E00
000000
000000
01F800
03F800
03F800
03FC00
07FC00
07BC00
07BE00
0FBE00
0F9E00
0F1F00
1F1F00
1F0F00
1FFF80
3FFF80
3FFFC0
3C07C0
7C07C0
7C03E0
F803E0
ENDCHAR
STARTCHAR 00C5
ENCODING 197
SWIDTH 760 0
DWIDTH 19 0
BBX 19 24 0 0
BITMAP
00F000
03F800
031C00
031C00
031C00
03F800
03F800
03F800
03FC00
07FC00
07BC00
07BE00
0FBE00
0F9E00
0F1F00
1F1F00
1F0F00
1FFF80
3FFF80
3FFFC0
3C07C0
7C07C0
7C03E0
F803E0
ENDCHAR
STARTCHAR 00C6
ENCODING 198
SWIDTH 1080 0
DWIDTH 27 0
BBX 26 19 0 0
BITMAP
01FFFFC0
01FFFFC0
01FFFFC0
03E78000
03C78000
07C78000
07C78000
0787FF80
0F87FF80
0F07FF80
1FFF8000
1FFF8000
1FFF8000
3E078000
3C078000
7C078000
7C07FFC0
7807FFC0
F807FFC0
ENDCHAR
STARTCHAR 00C7
ENCODING 199
SWIDTH 720 0
DWIDTH 18 0
BBX 16 24 1 -5
BITMAP
03F8
0FFF
1FFF
3F0F
7E03
7C01
7C00
F800
F800
F800
F800
F800
7C00
7C01
7E03
3F0F
1FFF
0FFF
03F8
0070
0070
0070
07E0
07C0
ENDCHAR
STARTCHAR 00C8
ENCODING 200
SWIDTH 680 0
DWIDTH 17 0
BBX 13 26 2 0
BITMAP
1E00
0F00
0700
0380
03C0
0000
0000
FFF8
FFF8
FFF8
F800
F800
F800
F800
FFF8
FFF8
FFF8
F800
F800
F800
F800
F800
F800
FFF8
FFF8
FFF8
ENDCHAR
STARTCHAR 00C9
ENCODING 201
SWIDTH 680 0
DWIDTH 17 0
BBX 13 26 2 0
BITMAP
01E0
03C0
0380
0780
0F00
0000
0000
FFF8
FFF8
FFF8
F800
F800
F800
F800
FFF8
FFF8
FFF8
F800
F800
F800
F800
F800
F800
FFF8
FFF8
FFF8
ENDCHAR
STARTCHAR 00CA
ENCODING 202
SWIDTH 680 0
DWIDTH 17 0
BBX 13 26 2 0
BITMAP
0780
0FC0
1FC0
1CE0
3870
0000
0000
FFF8
FFF8
FFF8
F800
F800
F800
F800
FFF8
FFF8
FFF8
F800
F800
F800
F800
F800
F800
FFF8
FFF8
FFF8
ENDCHAR
STARTCHAR 00CB
ENCODING 203
SWIDTH 680 0
DWIDTH 17 0
BBX 13 24 2 0
BITMAP
38F0
38F0
38F0
0000
0000
FFF8
FFF8
FFF8
F800
F800
F800
F800
FFF8
FFF8
FFF8
F800
F800
F800
F800
F800
F800
FFF8
FFF8
FFF8
ENDCHAR
STARTCHAR 00CC
ENCODING 204
SWIDTH 560 0
DWIDTH 14 0
BBX 11 26 1 0
BITMAP
3C00
3E00
1E00
0F00
0700
0000
0000
FFE0
FFE0
FFE0
1F00
1F00
1F00
1F00
1F00
1F00
1F00
1F00
1F00
1F00
1F00
1F00
1F00
FFE0
FFE0
FFE0
ENDCHAR
STARTCHAR 00CD
ENCODING 205
SWIDTH 560 0
DWIDTH 14 0
BBX 11 26 1 0
BITMAP
03C0
0780
0F00
0E00
1C00
0000
0000
FFE0
FFE0
FFE0
1F00
1F00
1F00
1F00
1F00
1F00
1F00
1F00
1F00
1F00
1F00
1F00
1F00
FFE0
FFE0
FFE0
ENDCHAR
STARTCHAR 00CE
ENCODING 206
SWIDTH 560 0
DWIDTH 14 0
BBX 11 26 1 0
BITMAP
0F00
1F80
3F80
39C0
70E0
0000
0000
FFE0
FFE0
FFE0
1F00
1F00
1F00
1F00
1F00
1F00
1F00
1F00
1F00
1F00
1F00
1F00
1F00
FFE0
FFE0
FFE0
ENDCHAR
STARTCHAR 00CF
ENCODING 207
SWIDTH 560 0
DWIDTH 14 0
BBX 11 24 1 0
BITMAP
71E0
71E0
71E0
0000
0000
FFE0
FFE0
FFE0
1F00
1F00
1F00
1F00
1F00
1F00
1F00
1F00
1F00
1F00
1F00
1F00
1F00
FFE0
FFE0
FFE0
ENDCHAR
STARTCHAR 00D0
ENCODING 208
SWIDTH 840 0
DWIDTH 21 0
BBX 19 19 0 0
BITMAP
3FF800
3FFE00
3FFF80
3E1FC0
3E07C0
3E03E0
3E03E0
FFE3E0
FFE1E0
FFE1E0
3E01E0
3E03E0
3E03E0
3E03E0
3E07C0
3E0FC0
3FFF80
3FFE00
3FF800
ENDCHAR
STARTCHAR 00D1
ENCODING 209
SWIDTH 840 0
DWIDTH 21 0
BBX 17 25 2 0
BITMAP
079C00
0FFC00
1FF800
1CF000
000000
000000
FC0780
FE0780
FE0780
FF0780
FF8780
FF8780
FFC780
FBC780
FBE780
F9F780
F9F780
F8FF80
F8FF80
F87F80
F83F80
F83F80
F81F80
F81F80
F80F80
ENDCHAR
STARTCHAR 00D2
ENCODING 210
SWIDTH 840 0
DWIDTH 21 0
BBX 19 26 1 0
BITMAP
03C000
03C000
01E000
00F000
007000
000000
000000
03F800
0FFE00
1FFF00
3F0F80
7C07C0
7C07C0
7C03E0
F803E0
F803E0
F803E0
F803E0
F803E0
7C03E0
7C07C0
7C07C0
3F0F80
1FFF00
0FFE00
03F800
ENDCHAR
STARTCHAR 00D3
ENCODING 211
SWIDTH 840 0
DWIDTH 21 0
BBX 19 26 1 0
BITMAP
007C00
007800
00F000
00E000
01C000
000000
000000
03F800
0FFE00
1FFF00
3F0F80
7C07C0
7C07C0
7C03E0
F803E0
F803E0
F803E0
F803E0
F803E0
7C03E0
7C07C0
7C07C0
3F0F80
1FFF00
0FFE00
03F800
ENDCHAR
STARTCHAR 00D4
ENCODING 212
SWIDTH 840 0
DWIDTH 21 0
BBX 19 26 1 0
BITMAP
00F000
01F000
03B800
079C00
071E00
000000
000000
03F800
0FFE00
1FFF00
3F0F80
7C07C0
7C07C0
7C03E0
F803E0
F803E0
F803E0
F803E0
F803E0
7C03E0
7C07C0
7C07C0
3F0F80
1FFF00
0FFE00
03F800
ENDCHAR
STARTCHAR 00D5
ENCODING 213
SWIDTH 840 0
DWIDTH 21 0
BBX 19 25 1 0
BITMAP
03CE00
07FE00
0FFC00
0E3800
000000
000000
03F800
0FFE00
1FFF00
3F0F80
7C07C0
7C07C0
7C03E0
F803E0
F803E0
F803E0
F803E0
F803E0
7C03E0
7C07C0
7C07C0
3F0F80
1FFF00
0FFE00
03F800
ENDCHAR
STARTCHAR 00D6
ENCODING 214
SWIDTH 840 0
DWIDTH 21 0
BBX 19 24 1 0
BITMAP
071E00
071E00
071E00
000000
000000
03F800
0FFE00
1FFF00
3F0F80
7C07C0
7C07C0
7C03E0
F803E0
F803E0
F803E0
F803E0
F803E0
7C03E0
7C07C0
7C07C0
3F0F80
1FFF00
0FFE00
03F800
ENDCHAR
STARTCHAR 00D7
ENCODING 215
SWIDTH 880 0
DWIDTH 22 0
BBX 14 15 4 1
BITMAP
4008
E01C
F03C
7878
3CF0
1FE0
0FC0
0780
0FC0
1FE0
3CF0
7878
F03C
E01C
4008
ENDCHAR
STARTCHAR 00D8
ENCODING 216
SWIDTH 840 0
DWIDTH 21 0
BBX 19 21 1 -1
BITMAP
0000C0
03F9C0
0FFF80
1FFF00
3F0F80
7C0FC0
7C1FC0
783BE0
F833E0
F873E0
F8E3E0
F8C3E0
F983E0
7B83E0
7F07C0
7E07C0
3F0F80
1FFF00
3FFE00
33F800
600000
ENDCHAR
STARTCHAR 00D9
ENCODING 217
SWIDTH 800 0
DWIDTH 20 0
BBX 16 26 2 0
BITMAP
0F80
0780
03C0
01E0
00E0
0000
0000
F80F
F80F
F80F
F80F
F80F
F80F
F80F
F80F
F80F
F80F
F80F
F80F
F80F
F81F
F81F
7C3E
7FFE
1FFC
0FF0
ENDCHAR
STARTCHAR 00DA
ENCODING 218
SWIDTH 800 0
DWIDTH 20 0
BBX 16 26 2 0
BITMAP
01F0
01E0
03C0
0780
0700
0000
0000
F80F
F80F
F80F
F80F
F80F
F80F
F80F
F80F
F80F
F80F
F80F
F80F
F80F
F81F
F81F
7C3E
7FFE
1FFC
0FF0
ENDCHAR
STARTCHAR 00DB
ENCODING 219
SWIDTH 800 0
DWIDTH 20 0
BBX 16 26 2 0
BITMAP
03C0
07E0
07F0
0E70
1C38
0000
0000
F80F
F80F
F80F
F80F
F80F
F80F
F80F
F80F
F80F
F80F
F80F
F80F
F80F
F81F
F81F
7C3E
7FFE
1FFC
0FF0
ENDCHAR
STARTCHAR 00DC
ENCODING 220
SWIDTH 800 0
DWIDTH 20 0
BBX 16 24 2 0
BITMAP
1E38
1E38
1E38
0000
0000
F80F
F80F
F80F
F80F
F80F
F80F
F80F
F80F
F80F
F80F
F80F
F80F
F80F
F81F
F81F
7C3E
7FFE
1FFC
0FF0
ENDCHAR
STARTCHAR 00DD
ENCODING 221
SWIDTH 720 0
DWIDTH 18 0
BBX 18 26 0 0
BITMAP
007800
00F000
01E000
01C000
038000
000000
000000
FC07C0
7C0F80
3E0F80
3E1F00
1F1F00
1F3E00
0FBE00
0FFC00
07F800
03F800
03F000
01F000
01F000
01F000
01F000
01F000
01F000
01F000
01F000
ENDCHAR
STARTCHAR 00DE
ENCODING 222
SWIDTH 720 0
DWIDTH 18 0
BBX 15 19 2 0
BITMAP
F800
F800
F800
FFE0
FFF8
FFFC
F87E
F83E
F83E
F83E
F83E
F83E
F87E
FFFC
FFF8
FFE0
F800
F800
F800
ENDCHAR
STARTCHAR 00DF
ENCODING 223
SWIDTH 720 0
DWIDTH 18 0
BBX 15 20 2 0
BITMAP
0FC0
3FF0
7FF8
78F8
F878
F878
F078
F0F8
F3E0
F3E0
F3F8
F07C
F03E
F03E
F03E
F03E
F07C
F3FC
F3F8
F3E0
ENDCHAR
STARTCHAR 00E0
ENCODING 224
SWIDTH 680 0
DWIDTH 17 0
BBX 14 21 1 0
BITMAP
1F00
0F00
0780
0380
01C0
0000
0000
3FE0
7FF0
7FF8
607C
007C
07FC
3FFC
7FFC
FC7C
F87C
F87C
FFFC
7FFC
3F7C
ENDCHAR
STARTCHAR 00E1
ENCODING 225
SWIDTH 680 0
DWIDTH 17 0
BBX 14 21 1 0
BITMAP
01F0
01E0
03C0
0780
0700
0000
0000
3FE0
7FF0
7FF8
607C
007C
07FC
3FFC
7FFC
FC7C
F87C
F87C
FFFC
7FFC
3F7C
ENDCHAR
STARTCHAR 00E2
ENCODING 226
SWIDTH 680 0
DWIDTH 17 0
BBX 14 21 1 0
BITMAP
0780
0FC0
0FE0
1CE0
3870
0000
0000
3FE0
7FF0
7FF8
607C
007C
07FC
3FFC
7FFC
FC7C
F87C
F87C
FFFC
7FFC
3F7C
ENDCHAR
STARTCHAR 00E3
ENCODING 227
SWIDTH 680 0
DWIDTH 17 0
BBX 14 20 1 0
BITMAP
0E38
3FF0
3FF0
39E0
0000
0000
3FE0
7FF0
7FF8
607C
007C
07FC
3FFC
7FFC
FC7C
F87C
F87C
FFFC
7FFC
3F7C
ENDCHAR
STARTCHAR 00E4
ENCODING 228
SWIDTH 680 0
DWIDTH 17 0
BBX 14 19 1 0
BITMAP
3C70
3C70
3C70
0000
0000
3FE0
7FF0
7FF8
607C
007C
07FC
3FFC
7FFC
FC7C
F87C
F87C
FFFC
7FFC
3F7C
ENDCHAR
STARTCHAR 00E5
ENCODING 229
SWIDTH 680 0
DWIDTH 17 0
BBX 14 21 1 0
BITMAP
0780
0FC0
0C60
1C60
1C60
0FE0
07C0
3FE0
7FF8
7FF8
607C
007C
07FC
3FFC
7FFC
FC7C
F87C
F87C
FFFC
7FFC
3F7C
ENDCHAR
STARTCHAR 00E6
ENCODING 230
SWIDTH 1000 0
DWIDTH 25 0
BBX 23 14 1 0
BITMAP
3FC3F0
7FFFFC
7FFFFC
607C3E
007C1E
07FFFE
3FFFFE
7FFFFE
FC7C00
F87C02
F87E0E
FFFFFE
7FCFFE
3F03F8
ENDCHAR
STARTCHAR 00E7
ENCODING 231
SWIDTH 600 0
DWIDTH 15 0
BBX 13 19 1 -5
BITMAP
07E0
1FF8
3FF8
7C38
F808
F800
F800
F800
F800
F808
7C38
7FF8
1FF8
07E0
00E0
00E0
01C0
0FC0
0F80
ENDCHAR
STARTCHAR 00E8
ENCODING 232
SWIDTH 680 0
DWIDTH 17 0
BBX 15 21 1 0
BITMAP
1F00
0F00
0780
03C0
01C0
0000
0000
07E0
1FF8
3FFC
783C
F83C
FFFE
FFFE
FFFE
F800
F804
7C1C
7FFC
1FFC
07F0
ENDCHAR
STARTCHAR 00E9
ENCODING 233
SWIDTH 680 0
DWIDTH 17 0
BBX 15 21 1 0
BITMAP
01F0
01E0
03C0
0380
0700
0000
0000
07E0
1FF8
3FFC
783C
F83C
FFFE
FFFE
FFFE
F800
F804
7C1C
7FFC
1FFC
07F0
ENDCHAR
STARTCHAR 00EA
ENCODING 234
SWIDTH 680 0
DWIDTH 17 0
BBX 15 21 1 0
BITMAP
03C0
07C0
0EE0
1E70
1C38
0000
0000
07E0
1FF8
3FFC
783C
F83C
FFFE
FFFE
FFFE
F800
F804
7C1C
7FFC
1FFC
07F0
ENDCHAR
STARTCHAR 00EB
ENCODING 235
SWIDTH 680 0
DWIDTH 17 0
BBX 15 19 1 0
BITMAP
1C78
1C78
1C78
0000
0000
07E0
1FF8
3FFC
783C
F83C
FFFE
FFFE
FFFE
F800
F804
7C1C
7FFC
1FFC
07F0
ENDCHAR
STARTCHAR 00EC
ENCODING 236
SWIDTH 360 0
DWIDTH 9 0
BBX 7 21 0 0
BITMAP
F8
78
3C
1C
0E
00
00
3C
3C
3C
3C
3C
3C
3C
3C
3C
3C
3C
3C
3C
3C
ENDCHAR
STARTCHAR 00ED
ENCODING 237
SWIDTH 360 0
DWIDTH 9 0
BBX 6 21 2 0
BITMAP
3C
78
78
F0
E0
00
00
F0
F0
F0
F0
F0
F0
F0
F0
F0
F0
F0
F0
F0
F0
ENDCHAR
STARTCHAR 00EE
ENCODING 238
SWIDTH 360 0
DWIDTH 9 0
BBX 8 21 0 0
BITMAP
3C
3E
7E
77
E7
00
00
3C
3C
3C
3C
3C
3C
3C
3C
3C
3C
3C
3C
3C
3C
ENDCHAR
STARTCHAR 00EF
ENCODING 239
SWIDTH 360 0
DWIDTH 9 0
BBX 9 19 0 0
BITMAP
E780
E780
E780
0000
0000
3C00
3C00
3C00
3C00
3C00
3C00
3C00
3C00
3C00
3C00
3C00
3C00
3C00
3C00
ENDCHAR
STARTCHAR 00F0
ENCODING 240
SWIDTH 680 0
DWIDTH 17 0
BBX 15 20 1 0
BITMAP
1F90
0FF8
03F0
1FF0
1EF8
1878
007C
0FBC
3FFC
7FFE
7C3E
F83E
F83E
F83E
F83C
F83C
7C7C
7FF8
3FF0
0FC0
ENDCHAR
STARTCHAR 00F1
ENCODING 241
SWIDTH 720 0
DWIDTH 18 0
BBX 14 20 2 0
BITMAP
1E30
3FF0
3FF0
31E0
0000
0000
F1E0
F7F8
FFF8
FFFC
F87C
F07C
F07C
F07C
F07C
F07C
F07C
F07C
F07C
F07C
ENDCHAR
STARTCHAR 00F2
ENCODING 242
SWIDTH 680 0
DWIDTH 17 0
BBX 15 21 1 0
BITMAP
1F00
0F00
0780
03C0
01C0
0000
0000
0FE0
3FF8
7FFC
7C7C
F83E
F83E
F81E
F81E
F83E
F83E
7C7C
7FFC
3FF8
0FE0
ENDCHAR
STARTCHAR 00F3
ENCODING 243
SWIDTH 680 0
DWIDTH 17 0
BBX 15 21 1 0
BITMAP
01F0
01E0
03C0
0780
0700
0000
0000
0FE0
3FF8
7FFC
7C7C
F83E
F83E
F81E
F81E
F83E
F83E
7C7C
7FFC
3FF8
0FE0
ENDCHAR
STARTCHAR 00F4
ENCODING 244
SWIDTH 680 0
DWIDTH 17 0
BBX 15 21 1 0
BITMAP
03C0
07C0
0EE0
1E70
1C78
0000
0000
0FE0
3FF8
7FFC
7C7C
F83E
F83E
F81E
F81E
F83E
F83E
7C7C
7FFC
3FF8
0FE0
ENDCHAR
STARTCHAR 00F5
ENCODING 245
SWIDTH 680 0
DWIDTH 17 0
BBX 15 20 1 0
BITMAP
0F38
1FF8
3FF0
39E0
0000
0000
0FE0
3FF8
7FFC
7C7C
F83E
F83E
F81E
F81E
F83E
F83E
7C7C
7FFC
3FF8
0FE0
ENDCHAR
STARTCHAR 00F6
ENCODING 246
SWIDTH 680 0
DWIDTH 17 0
BBX 15 19 1 0
BITMAP
3C78
3C78
3C78
0000
0000
0FE0
3FF8
7FFC
7C7C
F83E
F83E
F81E
F81E
F83E
F83E
7C7C
7FFC
3FF8
0FE0
ENDCHAR
STARTCHAR 00F7
ENCODING 247
SWIDTH 880 0
DWIDTH 22 0
BBX 16 15 3 1
BITMAP
03C0
03C0
03C0
03C0
0000
0000
FFFF
FFFF
FFFF
0000
0000
03C0
03C0
03C0
03C0
ENDCHAR
STARTCHAR 00F8
ENCODING 248
SWIDTH 680 0
DWIDTH 17 0
BBX 15 17 1 -2
BITMAP
000E
0FEC
3FF8
7FFC
7C7C
F87E
F8DE
F99E
FB1E
FB1E
FE3E
7C7C
3FFC
3FF8
3FE0
6000
C000
ENDCHAR
STARTCHAR 00F9
ENCODING 249
SWIDTH 720 0
DWIDTH 18 0
BBX 14 21 2 0
BITMAP
1E00
0F00
0700
0380
01C0
0000
0000
F07C
F07C
F07C
F07C
F07C
F07C
F07C
F07C
F87C
F87C
FFFC
FFFC
7FFC
3E7C
ENDCHAR
STARTCHAR 00FA
ENCODING 250
SWIDTH 720 0
DWIDTH 18 0
BBX 14 21 2 0
BITMAP
03E0
03C0
0780
0F00
0E00
0000
0000
F07C
F07C
F07C
F07C
F07C
F07C
F07C
F07C
F87C
F87C
FFFC
FFFC
7FFC
3E7C
ENDCHAR
STARTCHAR 00FB
ENCODING 251
SWIDTH 720 0
DWIDTH 18 0
BBX 14 21 2 0
BITMAP
0780
0FC0
1FC0
1CE0
3870
0000
0000
F07C
F07C
F07C
F07C
F07C
F07C
F07C
F07C
F87C
F87C
FFFC
FFFC
7FFC
3E7C
ENDCHAR
STARTCHAR 00FC
ENCODING 252
SWIDTH 720 0
DWIDTH 18 0
BBX 14 19 2 0
BITMAP
38F0
38F0
38F0
0000
0000
F07C
F07C
F07C
F07C
F07C
F07C
F07C
F07C
F87C
F87C
FFFC
FFFC
7FFC
3E7C
ENDCHAR
STARTCHAR 00FD
ENCODING 253
SWIDTH 640 0
DWIDTH 16 0
BBX 15 26 1 -5
BITMAP
01F0
01E0
03C0
0780
0700
0000
0000
F03E
F83C
F83C
787C
7C78
7CF8
3CF0
3EF0
1FF0
1FE0
1FE0
0FC0
0FC0
07C0
0F80
0F80
0F00
1F00
1E00
ENDCHAR
STARTCHAR 00FE
ENCODING 254
SWIDTH 680 0
DWIDTH 17 0
BBX 14 25 2 -5
BITMAP
F000
F000
F000
F000
F000
F000
F1E0
F7F8
FFF8
F87C
F07C
F03C
F03C
F03C
F03C
F07C
F0FC
FFF8
FFF0
F7E0
F000
F000
F000
F000
F000
ENDCHAR
STARTCHAR 00FF
ENCODING 255
SWIDTH 640 0
DWIDTH 16 0
BBX 15 24 1 -5
BITMAP
3C70
3C70
3C70
0000
0000
F03E
F83C
F83C
787C
7C78
7CF8
3CF0
3EF0
1FF0
1FE0
1FE0
0FC0
0FC0
07C0
0F80
0F80
0F00
1F00
1E00
ENDCHAR
STARTCHAR 0100
ENCODING 256
SWIDTH 760 0
DWIDTH 19 0
BBX 19 24 0 0
BITMAP
07FE00
07FE00
07FE00
000000
000000
01F800
03F800
03F800
03FC00
07FC00
07BC00
07BE00
0FBE00
0F9E00
0F1F00
1F1F00
1F0F00
1FFF80
3FFF80
3FFFC0
3C07C0
7C07C0
7C03E0
F803E0
ENDCHAR
STARTCHAR 0101
ENCODING 257
SWIDTH 680 0
DWIDTH 17 0
BBX 14 19 1 0
BITMAP
3FF0
3FF0
3FF0
0000
0000
3FE0
7FF0
7FF8
607C
007C
07FC
3FFC
7FFC
FC7C
F87C
F87C
FFFC
7FFC
3F7C
ENDCHAR
STARTCHAR 0102
ENCODING 258
SWIDTH 760 0
DWIDTH 19 0
BBX 19 25 0 0
BITMAP
070C00
071C00
071C00
03F800
01F000
000000
01F800
03F800
03F800
03FC00
07FC00
07BC00
07BE00
0FBE00
0F9E00
0F1F00
1F1F00
1F0F00
1FFF80
3FFF80
3FFFC0
3C07C0
7C07C0
7C03E0
F803E0
ENDCHAR
STARTCHAR 0103
ENCODING 259
SWIDTH 680 0
DWIDTH 17 0
BBX 14 20 1 0
BITMAP
1870
1870
1CE0
0FE0
07C0
0000
3FE0
7FF0
7FF8
607C
007C
07FC
3FFC
7FFC
FC7C
F87C
F87C
FFFC
7FFC
3F7C
ENDCHAR
STARTCHAR 0104
ENCODING 260
SWIDTH 760 0
DWIDTH 19 0
BBX 20 24 0 -5
BITMAP
01F800
03F800
03F800
03FC00
07FC00
07BC00
07BE00
0FBE00
0F9E00
0F1F00
1F1F00
1F0F00
1FFF80
3FFF80
3FFFC0
3C07C0
7C07C0
7C03E0
F803E0
000300
000300
000380
0003F0
0001F0
ENDCHAR
STARTCHAR 0105
ENCODING 261
SWIDTH 680 0
DWIDTH 17 0
BBX 16 19 1 -5
BITMAP
3FE0
7FF0
7FF8
607C
007C
07FC
3FFC
7FFC
FC7C
F87C
F87C
FFFC
7FFC
3E7C
0070
0070
0078
003F
001F
ENDCHAR
STARTCHAR 0106
ENCODING 262
SWIDTH 720 0
DWIDTH 18 0
BBX 16 26 1 0
BITMAP
0078
00F0
00E0
01E0
03C0
0000
0000
03F8
0FFF
1FFF
3F0F
7E03
7C01
7C00
F800
F800
F800
F800
F800
7C00
7C01
7E03
3F0F
1FFF
0FFF
03F8
ENDCHAR
STARTCHAR 0107
ENCODING 263
SWIDTH 600 0
DWIDTH 15 0
BBX 13 21 1 0
BITMAP
01F0
01E0
03C0
0380
0700
0000
0000
07E0
1FF8
3FF8
7C38
F808
F800
F800
F800
F800
F808
7C38
3FF8
1FF8
07E0
ENDCHAR
STARTCHAR 0108
ENCODING 264
SWIDTH 720 0
DWIDTH 18 0
BBX 16 26 1 0
BITMAP
01E0
01F0
03F8
073C
0E1C
0000
0000
03F8
0FFF
1FFF
3F0F
7E03
7C01
7C00
F800
F800
F800
F800
F800
7C00
7C01
7E03
3F0F
1FFF
0FFF
03F8
ENDCHAR
STARTCHAR 0109
ENCODING 265
SWIDTH 600 0
DWIDTH 15 0
BBX 13 21 1 0
BITMAP
0380
07C0
0EE0
1CF0
3C78
0000
0000
07E0
1FF8
3FF8
7C38
F808
F800
F800
F800
F800
F808
7C38
3FF8
1FF8
07E0
ENDCHAR
STARTCHAR 010A
ENCODING 266
SWIDTH 720 0
DWIDTH 18 0
BBX 16 24 1 0
BITMAP
01F0
01F0
01F0
0000
0000
03F8
0FFF
1FFF
3F0F
7E03
7C01
7C00
F800
F800
F800
F800
F800
7C00
7C01
7E03
3F0F
1FFF
0FFF
03F8
ENDCHAR
STARTCHAR 010B
ENCODING 267
SWIDTH 600 0
DWIDTH 15 0
BBX 13 19 1 0
BITMAP
07C0
07C0
07C0
0000
0000
07E0
1FF8
3FF8
7C38
F808
F800
F800
F800
F800
F808
7C38
3FF8
1FF8
07E0
ENDCHAR
STARTCHAR 010C
ENCODING 268
SWIDTH 720 0
DWIDTH 18 0
BBX 16 26 1 0
BITMAP
0E1C
073C
03B8
01F0
01E0
0000
0000
03F8
0FFF
1FFF
3F0F
7E03
7C01
7C00
F800
F800
F800
F800
F800
7C00
7C01
7E03
3F0F
1FFF
0FFF
03F8
ENDCHAR
STARTCHAR 010D
ENCODING 269
SWIDTH 600 0
DWIDTH 15 0
BBX 13 21 1 0
BITMAP
3870
1CF0
0EE0
07C0
0780
0000
0000
07E0
1FF8
3FF8
7C38
F808
F800
F800
F800
F800
F808
7C38
3FF8
1FF8
07E0
ENDCHAR
STARTCHAR 010E
ENCODING 270
SWIDTH 840 0
DWIDTH 21 0
BBX 17 26 2 0
BITMAP
1C3800
0E7000
07F000
07E000
03C000
000000
000000
FFE000
FFF800
FFFE00
F87F00
F81F00
F80F80
F80F80
F80F80
F80780
F80780
F80780
F80F80
F80F80
F80F80
F81F00
F83F00
FFFE00
FFF800
FFE000
ENDCHAR
STARTCHAR 010F
ENCODING 271
SWIDTH 880 0
DWIDTH 22 0
BBX 22 20 1 0
BITMAP
003C3C
003C78
003C78
003C70
003CF0
003CE0
0FBCE0
3FFC00
7FFC00
7C3C00
F83C00
F83C00
F83C00
F83C00
F83C00
F83C00
7C7C00
7FFC00
3FFC00
1FBC00
ENDCHAR
STARTCHAR 0110
ENCODING 272
SWIDTH 840 0
DWIDTH 21 0
BBX 19 19 0 0
BITMAP
3FF800
3FFE00
3FFF80
3E1FC0
3E07C0
3E03E0
3E03E0
FFE3E0
FFE1E0
FFE1E0
3E01E0
3E03E0
3E03E0
3E03E0
3E07C0
3E0FC0
3FFF80
3FFE00
3FF800
ENDCHAR
STARTCHAR 0111
ENCODING 273
SWIDTH 680 0
DWIDTH 17 0
BBX 16 20 1 0
BITMAP
003C
003C
03FF
03FF
03FF
003C
0FBC
3FFC
7FFC
7C3C
F83C
F83C
F83C
F83C
F83C
F83C
7C7C
7FFC
3FFC
1FBC
ENDCHAR
STARTCHAR 0112
ENCODING 274
SWIDTH 680 0
DWIDTH 17 0
BBX 13 24 2 0
BITMAP
3FF0
3FF0
3FF0
0000
0000
FFF8
FFF8
FFF8
F800
F800
F800
F800
FFF8
FFF8
FFF8
F800
F800
F800
F800
F800
F800
FFF8
FFF8
FFF8
ENDCHAR
STARTCHAR 0113
ENCODING 275
SWIDTH 680 0
DWIDTH 17 0
BBX 15 19 1 0
BITMAP
1FF8
1FF8
1FF8
0000
0000
07E0
1FF8
3FFC
783C
F83C
FFFE
FFFE
FFFE
F800
F804
7C1C
7FFC
1FFC
07F0
ENDCHAR
STARTCHAR 0114
ENCODING 276
SWIDTH 680 0
DWIDTH 17 0
BBX 13 25 2 0
BITMAP
3870
3870
1CE0
1FE0
0780
0000
FFF8
FFF8
FFF8
F800
F800
F800
F800
FFF8
FFF8
FFF8
F800
F800
F800
F800
F800
F800
FFF8
FFF8
FFF8
ENDCHAR
STARTCHAR 0115
ENCODING 277
SWIDTH 680 0
DWIDTH 17 0
BBX 15 20 1 0
BITMAP
1C38
1C30
1C70
0FE0
07C0
0000
07E0
1FF8
3FFC
783C
F83C
FFFE
FFFE
FFFE
F800
F804
7C1C
7FFC
1FFC
07F0
ENDCHAR
STARTCHAR 0116
ENCODING 278
SWIDTH 680 0
DWIDTH 17 0
BBX 13 24 2 0
BITMAP
0780
0780
0780
0000
0000
FFF8
FFF8
FFF8
F800
F800
F800
F800
FFF8
FFF8
FFF8
F800
F800
F800
F800
F800
F800
FFF8
FFF8
FFF8
ENDCHAR
STARTCHAR 0117
ENCODING 279
SWIDTH 680 0
DWIDTH 17 0
BBX 15 19 1 0
BITMAP
07C0
07C0
07C0
0000
0000
07E0
1FF8
3FFC
783C
F83C
FFFE
FFFE
FFFE
F800
F804
7C1C
7FFC
1FFC
07F0
ENDCHAR
STARTCHAR 0118
ENCODING 280
SWIDTH 680 0
DWIDTH 17 0
BBX 14 24 2 -5
BITMAP
FFF8
FFF8
FFF8
F800
F800
F800
F800
FFF8
FFF8
FFF8
F800
F800
F800
F800
F800
F800
FFF8
FFF8
FFF8
00C0
00C0
00E0
00FC
007C
ENDCHAR
STARTCHAR 0119
ENCODING 281
SWIDTH 680 0
DWIDTH 17 0
BBX 15 19 1 -5
BITMAP
07E0
1FF8
3FFC
783C
F83C
FFFE
FFFE
FFFE
F800
F804
7C1C
7FFC
1FFC
07F0
01C0
01C0
00E0
00FC
007C
ENDCHAR
STARTCHAR 011A
ENCODING 282
SWIDTH 680 0
DWIDTH 17 0
BBX 13 26 2 0
BITMAP
3870
1CE0
1FC0
0FC0
0780
0000
0000
FFF8
FFF8
FFF8
F800
F800
F800
F800
FFF8
FFF8
FFF8
F800
F800
F800
F800
F800
F800
FFF8
FFF8
FFF8
ENDCHAR
STARTCHAR 011B
ENCODING 283
SWIDTH 680 0
DWIDTH 17 0
BBX 15 21 1 0
BITMAP
1C38
1E70
0EE0
07C0
03C0
0000
0000
07E0
1FF8
3FFC
783C
F83C
FFFE
FFFE
FFFE
F800
F804
7C1C
7FFC
1FFC
07F0
ENDCHAR
STARTCHAR 011C
ENCODING 284
SWIDTH 800 0
DWIDTH 20 0
BBX 17 26 1 0
BITMAP
00F000
01F800
03F800
039C00
070E00
000000
000000
01FC00
0FFF80
1FFF80
3F0780
7E0180
7C0080
7C0000
F80000
F80000
F87F80
F87F80
F87F80
7C0780
7C0780
7E0780
3F0780
1FFF80
0FFF80
01FC00
ENDCHAR
STARTCHAR 011D
ENCODING 285
SWIDTH 680 0
DWIDTH 17 0
BBX 14 26 1 -5
BITMAP
03C0
07E0
0FE0
0E70
1C38
0000
0000
0FBC
3FFC
7FFC
7C3C
F83C
F83C
F83C
F83C
F83C
F83C
7C7C
7FFC
3FFC
1FBC
003C
207C
3FF8
3FF0
3FC0
ENDCHAR
STARTCHAR 011E
ENCODING 286
SWIDTH 800 0
DWIDTH 20 0
BBX 17 25 1 0
BITMAP
070E00
070C00
071C00
03F800
01F000
000000
01FC00
0FFF80
1FFF80
3F0780
7E0180
7C0080
7C0000
F80000
F80000
F87F80
F87F80
F87F80
7C0780
7C0780
7E0780
3F0780
1FFF80
0FFF80
01FC00
ENDCHAR
STARTCHAR 011F
ENCODING 287
SWIDTH 680 0
DWIDTH 17 0
BBX 14 25 1 -5
BITMAP
1C38
1C30
0E70
0FE0
07C0
0000
0FBC
3FFC
7FFC
7C3C
F83C
F83C
F83C
F83C
F83C
F83C
7C7C
7FFC
3FFC
1FBC
003C
207C
3FF8
3FF0
3FC0
ENDCHAR
STARTCHAR 0120
ENCODING 288
SWIDTH 800 0
DWIDTH 20 0
BBX 17 24 1 0
BITMAP
00F000
00F000
00F000
000000
000000
01FC00
0FFF80
1FFF80
3F0780
7E0180
7C0080
7C0000
F80000
F80000
F87F80
F87F80
F87F80
7C0780
7C0780
7E0780
3F0780
1FFF80
0FFF80
01FC00
ENDCHAR
STARTCHAR 0121
ENCODING 289
SWIDTH 680 0
DWIDTH 17 0
BBX 14 24 1 -5
BITMAP
03C0
03C0
03C0
0000
0000
0FBC
3FFC
7FFC
7C3C
F83C
F83C
F83C
F83C
F83C
F83C
7C7C
7FFC
3FFC
1FBC
003C
207C
3FF8
3FF0
3FC0
ENDCHAR
STARTCHAR 0122
ENCODING 290
SWIDTH 800 0
DWIDTH 20 0
BBX 17 24 1 -5
BITMAP
01FC00
0FFF80
1FFF80
3F0780
7E0180
7C0080
7C0000
F80000
F80000
F87F80
F87F80
F87F80
7C0780
7C0780
7E0780
3F0780
1FFF80
0FFF80
01FC00
003800
003800
007800
03F000
03E000
ENDCHAR
STARTCHAR 0123
ENCODING 291
SWIDTH 680 0
DWIDTH 17 0
BBX 14 26 1 -5
BITMAP
00E0
01E0
03C0
03C0
0780
0000
0000
0FBC
3FFC
7FFC
7C3C
F83C
F83C
F83C
F83C
F83C
F83C
7C7C
7FFC
3FFC
1FBC
003C
207C
3FF8
3FF0
3FC0
ENDCHAR
STARTCHAR 0124
ENCODING 292
SWIDTH 840 0
DWIDTH 21 0
BBX 17 26 2 0
BITMAP
01C000
03E000
077000
0E7800
1E3C00
000000
000000
F80F80
F80F80
F80F80
F80F80
F80F80
F80F80
F80F80
FFFF80
FFFF80
FFFF80
F80F80
F80F80
F80F80
F80F80
F80F80
F80F80
F80F80
F80F80
F80F80
ENDCHAR
STARTCHAR 0125
ENCODING 293
SWIDTH 720 0
DWIDTH 18 0
BBX 14 26 2 0
BITMAP
0780
0FC0
0FE0
1CE0
3870
0000
F000
F000
F000
F000
F000
F000
F1E0
F7F8
FFF8
FFFC
F87C
F07C
F07C
F07C
F07C
F07C
F07C
F07C
F07C
F07C
ENDCHAR
STARTCHAR 0126
ENCODING 294
SWIDTH 840 0
DWIDTH 21 0
BBX 19 19 1 0
BITMAP
7C07C0
7C07C0
FFFFE0
FFFFE0
FFFFE0
7C07C0
7C07C0
7FFFC0
7FFFC0
7FFFC0
7C07C0
7C07C0
7C07C0
7C07C0
7C07C0
7C07C0
7C07C0
7C07C0
7C07C0
ENDCHAR
STARTCHAR 0127
ENCODING 295
SWIDTH 720 0
DWIDTH 18 0
BBX 16 20 0 0
BITMAP
3C00
3C00
FFC0
FFC0
FFC0
3C00
3C78
3DFE
3FFE
3FFF
3E1F
3C1F
3C1F
3C1F
3C1F
3C1F
3C1F
3C1F
3C1F
3C1F
ENDCHAR
STARTCHAR 0128
ENCODING 296
SWIDTH 560 0
DWIDTH 14 0
BBX 11 25 1 0
BITMAP
3CE0
7FE0
7FE0
E3C0
0000
0000
FFE0
FFE0
FFE0
1F00
1F00
1F00
1F00
1F00
1F00
1F00
1F00
1F00
1F00
1F00
1F00
1F00
FFE0
FFE0
FFE0
ENDCHAR
STARTCHAR 0129
ENCODING 297
SWIDTH 360 0
DWIDTH 9 0
BBX 9 20 0 0
BITMAP
7180
FB80
CF00
C700
0000
0000
3C00
3C00
3C00
3C00
3C00
3C00
3C00
3C00
3C00
3C00
3C00
3C00
3C00
3C00
ENDCHAR
STARTCHAR 012A
ENCODING 298
SWIDTH 560 0
DWIDTH 14 0
BBX 11 25 1 0
BITMAP
7FE0
7FE0
7FE0
0000
0000
0000
FFE0
FFE0
FFE0
1F00
1F00
1F00
1F00
1F00
1F00
1F00
1F00
1F00
1F00
1F00
1F00
1F00
FFE0
FFE0
FFE0
ENDCHAR
STARTCHAR 012B
ENCODING 299
SWIDTH 360 0
DWIDTH 9 0
BBX 7 20 1 0
BITMAP
FE
FE
FE
00
00
00
78
78
78
78
78
78
78
78
78
78
78
78
78
78
ENDCHAR
STARTCHAR 012C
ENCODING 300
SWIDTH 560 0
DWIDTH 14 0
BBX 11 26 1 0
BITMAP
70E0
70C0
39C0
3FC0
1F00
0000
0000
FFE0
FFE0
FFE0
1F00
1F00
1F00
1F00
1F00
1F00
1F00
1F00
1F00
1F00
1F00
1F00
1F00
FFE0
FFE0
FFE0
ENDCHAR
STARTCHAR 012D
ENCODING 301
SWIDTH 360 0
DWIDTH 9 0
BBX 8 21 0 0
BITMAP
E3
E3
67
7E
3C
00
00
3C
3C
3C
3C
3C
3C
3C
3C
3C
3C
3C
3C
3C
3C
ENDCHAR
STARTCHAR 012E
ENCODING 302
SWIDTH 560 0
DWIDTH 14 0
BBX 12 24 1 -5
BITMAP
FFE0
FFE0
FFE0
1F00
1F00
1F00
1F00
1F00
1F00
1F00
1F00
1F00
1F00
1F00
1F00
1F00
FFE0
FFE0
FFE0
0700
0700
0700
03F0
01F0
ENDCHAR
STARTCHAR 012F
ENCODING 303
SWIDTH 360 0
DWIDTH 9 0
BBX 7 25 2 -5
BITMAP
F8
F8
F8
00
00
00
F0
F0
F0
F0
F0
F0
F0
F0
F0
F0
F0
F0
F0
F0
E0
E0
E0
7E
3E
ENDCHAR
STARTCHAR 0130
ENCODING 304
SWIDTH 560 0
DWIDTH 14 0
BBX 11 24 1 0
BITMAP
0F00
0F00
0F00
0000
0000
FFE0
FFE0
FFE0
1F00
1F00
1F00
1F00
1F00
1F00
1F00
1F00
1F00
1F00
1F00
1F00
1F00
FFE0
FFE0
FFE0
ENDCHAR
STARTCHAR 0131
ENCODING 305
SWIDTH 360 0
DWIDTH 9 0
BBX 4 14 2 0
BITMAP
F0
F0
F0
F0
F0
F0
F0
F0
F0
F0
F0
F0
F0
F0
ENDCHAR
STARTCHAR 0132
ENCODING 306
SWIDTH 1000 0
DWIDTH 25 0
BBX 22 19 1 0
BITMAP
FFE3FC
FFE3FC
FFE3FC
1F007C
1F007C
1F007C
1F007C
1F007C
1F007C
1F007C
1F007C
1F007C
1F007C
1F007C
1F007C
1F08FC
FFEFF8
FFEFF0
FFEFE0
ENDCHAR
STARTCHAR 0133
ENCODING 307
SWIDTH 720 0
DWIDTH 18 0
BBX 14 25 2 -5
BITMAP
F87C
F87C
F87C
0000
0000
0000
F1FC
F1FC
F1FC
F03C
F03C
F03C
F03C
F03C
F03C
F03C
F03C
F03C
F03C
F03C
003C
007C
07FC
07F8
07E0
ENDCHAR
STARTCHAR 0134
ENCODING 308
SWIDTH 560 0
DWIDTH 14 0
BBX 11 26 1 0
BITMAP
0F00
0F80
1DC0
39E0
78E0
0000
0000
3FE0
3FE0
3FE0
03E0
03E0
03E0
03E0
03E0
03E0
03E0
03E0
03E0
03E0
03E0
03E0
87C0
FFC0
FF80
FE00
ENDCHAR
STARTCHAR 0135
ENCODING 309
SWIDTH 400 0
DWIDTH 10 0
BBX 10 26 -1 -5
BITMAP
0F00
1F00
1F80
3980
71C0
0000
0000
3F80
3F80
3F80
0780
0780
0780
0780
0780
0780
0780
0780
0780
0780
0780
0F80
0F80
FF00
FF00
FC00
ENDCHAR
STARTCHAR 0136
ENCODING 310
SWIDTH 760 0
DWIDTH 19 0
BBX 17 24 2 -5
BITMAP
F81F80
F83F00
F83E00
F87C00
F8F800
F9F800
F9F000
FBE000
FFC000
FFC000
FFE000
FFF000
F9F800
F8F800
F8FC00
F87E00
F83E00
F83F00
F81F80
01C000
01C000
03C000
1F8000
1F0000
ENDCHAR
STARTCHAR 0137
ENCODING 311
SWIDTH 680 0
DWIDTH 17 0
BBX 14 25 2 -5
BITMAP
F000
F000
F000
F000
F000
F000
F07C
F0F8
F1F0
F1E0
F3E0
F7C0
FFC0
FFC0
FBE0
F1F0
F1F0
F0F8
F07C
F07C
0380
0380
0700
3F00
3E00
ENDCHAR
STARTCHAR 0138
ENCODING 312
SWIDTH 680 0
DWIDTH 17 0
BBX 14 14 2 0
BITMAP
F07C
F0F8
F1F0
F1E0
F3E0
F7C0
FFC0
FFC0
FBE0
F1F0
F1F0
F0F8
F07C
F07C
ENDCHAR
STARTCHAR 0139
ENCODING 313
SWIDTH 640 0
DWIDTH 16 0
BBX 13 26 2 0
BITMAP
0780
0F00
0E00
1C00
3C00
0000
0000
F800
F800
F800
F800
F800
F800
F800
F800
F800
F800
F800
F800
F800
F800
F800
F800
FFF8
FFF8
FFF8
ENDCHAR
STARTCHAR 013A
ENCODING 314
SWIDTH 360 0
DWIDTH 9 0
BBX 7 26 2 0
BITMAP
3E
3C
78
F0
E0
00
F0
F0
F0
F0
F0
F0
F0
F0
F0
F0
F0
F0
F0
F0
F0
F0
F0
F0
F0
F0
ENDCHAR
STARTCHAR 013B
ENCODING 315
SWIDTH 640 0
DWIDTH 16 0
BBX 13 24 2 -5
BITMAP
F800
F800
F800
F800
F800
F800
F800
F800
F800
F800
F800
F800
F800
F800
F800
F800
FFF8
FFF8
FFF8
01C0
01C0
03C0
1F80
1F00
ENDCHAR
STARTCHAR 013C
ENCODING 316
SWIDTH 360 0
DWIDTH 9 0
BBX 7 25 1 -5
BITMAP
78
78
78
78
78
78
78
78
78
78
78
78
78
78
78
78
78
78
78
78
0E
0E
1C
FC
F8
ENDCHAR
STARTCHAR 013D
ENCODING 317
SWIDTH 640 0
DWIDTH 16 0
BBX 14 20 2 0
BITMAP
007C
F878
F878
F8F0
F8E0
F8E0
F9C0
F800
F800
F800
F800
F800
F800
F800
F800
F800
F800
FFF8
FFF8
FFF8
ENDCHAR
STARTCHAR 013E
ENCODING 318
SWIDTH 520 0
DWIDTH 13 0
BBX 12 20 2 0
BITMAP
F0F0
F1F0
F1E0
F1E0
F1C0
F380
F380
F000
F000
F000
F000
F000
F000
F000
F000
F000
F000
F000
F000
F000
ENDCHAR
STARTCHAR 013F
ENCODING 319
SWIDTH 640 0
DWIDTH 16 0
BBX 13 19 2 0
BITMAP
F800
F800
F800
F800
F800
F800
F800
F8F8
F8F8
F8F8
F8F8
F8F8
F800
F800
F800
F800
FFF8
FFF8
FFF8
ENDCHAR
STARTCHAR 0140
ENCODING 320
SWIDTH 560 0
DWIDTH 14 0
BBX 11 20 2 0
BITMAP
F000
F000
F000
F000
F000
F000
F000
F1E0
F1E0
F1E0
F1E0
F1E0
F000
F000
F000
F000
F000
F000
F000
F000
ENDCHAR
STARTCHAR 0141
ENCODING 321
SWIDTH 640 0
DWIDTH 16 0
BBX 15 19 0 0
BITMAP
3E00
3E00
3E00
3E20
3E60
3EE0
3FE0
3FC0
3F80
3E00
3E00
7E00
FE00
FE00
BE00
3E00
3FFE
3FFE
3FFE
ENDCHAR
STARTCHAR 0142
ENCODING 322
SWIDTH 360 0
DWIDTH 9 0
BBX 9 20 0 0
BITMAP
3E00
3E00
3E00
3E00
3E00
3E00
3E80
3F80
3F80
3E00
7E00
FE00
FE00
BE00
3E00
3E00
3E00
3E00
3E00
3E00
ENDCHAR
STARTCHAR 0143
ENCODING 323
SWIDTH 840 0
DWIDTH 21 0
BBX 17 26 2 0
BITMAP
007800
00F000
01E000
01C000
038000
000000
000000
FC0780
FE0780
FE0780
FF0780
FF8780
FF8780
FFC780
FBC780
FBE780
F9F780
F9F780
F8FF80
F8FF80
F87F80
F83F80
F83F80
F81F80
F81F80
F80F80
ENDCHAR
STARTCHAR 0144
ENCODING 324
SWIDTH 720 0
DWIDTH 18 0
BBX 14 21 2 0
BITMAP
01E0
03C0
0380
0780
0F00
0000
0000
F1E0
F7F8
FFF8
FFFC
F87C
F07C
F07C
F07C
F07C
F07C
F07C
F07C
F07C
F07C
ENDCHAR
STARTCHAR 0145
ENCODING 325
SWIDTH 840 0
DWIDTH 21 0
BBX 17 24 2 -5
BITMAP
FC0780
FE0780
FE0780
FF0780
FF8780
FF8780
FFC780
FBC780
FBE780
F9F780
F9F780
F8FF80
F8FF80
F87F80
F83F80
F83F80
F81F80
F81F80
F80F80
01C000
01C000
01C000
1FC000
1F0000
ENDCHAR
STARTCHAR 0146
ENCODING 326
SWIDTH 720 0
DWIDTH 18 0
BBX 14 19 2 -5
BITMAP
F1E0
F7F8
FFF8
FFFC
F87C
F07C
F07C
F07C
F07C
F07C
F07C
F07C
F07C
F07C
0380
0380
0700
3F00
3E00
ENDCHAR
STARTCHAR 0147
ENCODING 327
SWIDTH 840 0
DWIDTH 21 0
BBX 17 26 2 0
BITMAP
0E1C00
073800
07F000
03F000
01E000
000000
000000
FC0780
FE0780
FE0780
FF0780
FF8780
FF8780
FFC780
FBC780
FBE780
F9F780
F9F780
F8FF80
F8FF80
F87F80
F83F80
F83F80
F81F80
F81F80
F80F80
ENDCHAR
STARTCHAR 0148
ENCODING 328
SWIDTH 720 0
DWIDTH 18 0
BBX 14 21 2 0
BITMAP
3870
1CE0
0FE0
0FC0
0780
0000
0000
F1E0
F7F8
FFF8
FFFC
F87C
F07C
F07C
F07C
F07C
F07C
F07C
F07C
F07C
F07C
ENDCHAR
STARTCHAR 0149
ENCODING 329
SWIDTH 840 0
DWIDTH 21 0
BBX 19 20 0 0
BITMAP
7C0000
780000
780000
700000
F00000
E00000
E78F00
07BFC0
07FFC0
07FFC0
07C3E0
0783E0
0783E0
0783E0
0783E0
0783E0
0783E0
0783E0
0783E0
0783E0
ENDCHAR
STARTCHAR 014A
ENCODING 330
SWIDTH 840 0
DWIDTH 21 0
BBX 17 24 2 -5
BITMAP
FC0780
FE0780
FE0780
FF0780
FF8780
FF8780
FFC780
FBE780
FBE780
F9F780
F9F780
F8FF80
F87F80
F87F80
F83F80
F83F80
F81F80
F80F80
F80F80
000F80
000F80
000F00
00FF00
00FC00
ENDCHAR
STARTCHAR 014B
ENCODING 331
SWIDTH 720 0
DWIDTH 18 0
BBX 14 19 2 -5
BITMAP
F1E0
F7F8
FFF8
FFFC
F87C
F07C
F07C
F07C
F07C
F07C
F07C
F07C
F07C
F07C
007C
007C
0078
07F0
07E0
ENDCHAR
STARTCHAR 014C
ENCODING 332
SWIDTH 840 0
DWIDTH 21 0
BBX 19 24 1 0
BITMAP
07FE00
07FE00
07FE00
000000
000000
03F800
0FFE00
1FFF00
3F0F80
7C07C0
7C07C0
7C03E0
F803E0
F803E0
F803E0
F803E0
F803E0
7C03E0
7C07C0
7C07C0
3F0F80
1FFF00
0FFE00
03F800
ENDCHAR
STARTCHAR 014D
ENCODING 333
SWIDTH 680 0
DWIDTH 17 0
BBX 15 19 1 0
BITMAP
1FF0
1FF0
1FF0
0000
0000
0FE0
3FF8
7FFC
7C7C
F83E
F83E
F81E
F81E
F83E
F83E
7C7C
7FFC
3FF8
0FE0
ENDCHAR
STARTCHAR 014E
ENCODING 334
SWIDTH 840 0
DWIDTH 21 0
BBX 19 25 1 0
BITMAP
070C00
071C00
071C00
03F800
01F000
000000
03F800
0FFE00
1FFF00
3F0F80
7C07C0
7C07C0
7C03E0
F803E0
F803E0
F803E0
F803E0
F803E0
7C03E0
7C07C0
7C07C0
3F0F80
1FFF00
0FFE00
03F800
ENDCHAR
STARTCHAR 014F
ENCODING 335
SWIDTH 680 0
DWIDTH 17 0
BBX 15 20 1 0
BITMAP
1C30
1C70
1C70
0FE0
07C0
0000
0FE0
3FF8
7FFC
7C7C
F83E
F83E
F81E
F81E
F83E
F83E
7C7C
7FFC
3FF8
0FE0
ENDCHAR
STARTCHAR 0150
ENCODING 336
SWIDTH 840 0
DWIDTH 21 0
BBX 19 26 1 0
BITMAP
01EF00
03CE00
039C00
039C00
073800
000000
000000
03F800
0FFE00
1FFF00
3F0F80
7C07C0
7C07C0
7C03E0
F803E0
F803E0
F803E0
F803E0
F803E0
7C03E0
7C07C0
7C07C0
3F0F80
1FFF00
0FFE00
03F800
ENDCHAR
STARTCHAR 0151
ENCODING 337
SWIDTH 680 0
DWIDTH 17 0
BBX 15 21 1 0
BITMAP
07BC
0F38
0E70
0E70
1CE0
0000
0000
0FE0
3FF8
7FFC
7C7C
F83E
F83E
F81E
F81E
F83E
F83E
7C7C
7FFC
3FF8
0FE0
ENDCHAR
STARTCHAR 0152
ENCODING 338
SWIDTH 1120 0
DWIDTH 28 0
BBX 26 19 1 0
BITMAP
01FFFFC0
0FFFFFC0
1FFFFFC0
3F078000
3E078000
7C078000
7C078000
F807FF80
F807FF80
F807FF80
F8078000
F8078000
7C078000
7C078000
7E078000
3F078000
1FFFFFC0
0FFFFFC0
01FFFFC0
ENDCHAR
STARTCHAR 0153
ENCODING 339
SWIDTH 1080 0
DWIDTH 27 0
BBX 25 14 1 0
BITMAP
0FE1F800
3FFFFE00
7FFFFF00
7C7F0F00
F83E0F00
F83FFF80
F81FFF80
F81FFF80
F83E0000
F83E0100
7C7F0300
7FFFFF00
3FFFFF00
0FE1FC00
ENDCHAR
STARTCHAR 0154
ENCODING 340
SWIDTH 800 0
DWIDTH 20 0
BBX 17 26 2 0
BITMAP
00F000
01E000
03C000
038000
070000
000000
000000
FFF000
FFFC00
FFFE00
F87E00
F83E00
F83E00
F83E00
F83E00
F87E00
FFFC00
FFF000
FFF000
F9F800
F8FC00
F87C00
F83E00
F83F00
F81F80
F80F80
ENDCHAR
STARTCHAR 0155
ENCODING 341
SWIDTH 480 0
DWIDTH 12 0
BBX 10 21 2 0
BITMAP
0780
0F00
1E00
1C00
3800
0000
0000
F1C0
F7C0
FFC0
FFC0
F800
F000
F000
F000
F000
F000
F000
F000
F000
F000
ENDCHAR
STARTCHAR 0156
ENCODING 342
SWIDTH 800 0
DWIDTH 20 0
BBX 17 24 2 -5
BITMAP
FFF000
FFFC00
FFFE00
F87E00
F83E00
F83E00
F83E00
F83E00
F87E00
FFFC00
FFF000
FFF000
F9F800
F8FC00
F87C00
F83E00
F83F00
F81F80
F80F80
01C000
01C000
01C000
1F8000
1F0000
ENDCHAR
STARTCHAR 0157
ENCODING 343
SWIDTH 480 0
DWIDTH 12 0
BBX 11 19 1 -5
BITMAP
78E0
7BE0
7FE0
7FE0
7C00
7800
7800
7800
7800
7800
7800
7800
7800
7800
0E00
0E00
0E00
FE00
F800
ENDCHAR
STARTCHAR 0158
ENCODING 344
SWIDTH 800 0
DWIDTH 20 0
BBX 17 26 2 0
BITMAP
1C7800
1E7000
0EE000
07C000
03C000
000000
000000
FFF000
FFFC00
FFFE00
F87E00
F83E00
F83E00
F83E00
F83E00
F87E00
FFFC00
FFF000
FFF000
F9F800
F8FC00
F87C00
F83E00
F83F00
F81F80
F80F80
ENDCHAR
STARTCHAR 0159
ENCODING 345
SWIDTH 480 0
DWIDTH 12 0
BBX 10 21 2 0
BITMAP
E1C0
F380
7700
3E00
1E00
0000
0000
F1C0
F7C0
FFC0
FFC0
F800
F000
F000
F000
F000
F000
F000
F000
F000
F000
ENDCHAR
STARTCHAR 015A
ENCODING 346
SWIDTH 720 0
DWIDTH 18 0
BBX 16 26 1 0
BITMAP
00F8
00F0
01E0
01C0
0380
0000
0000
07F8
1FFE
3FFE
7C0E
7802
F800
FC00
7FC0
7FF8
3FFE
1FFE
01FF
003F
801F
E01F
F83E
FFFE
FFF8
1FE0
ENDCHAR
STARTCHAR 015B
ENCODING 347
SWIDTH 600 0
DWIDTH 15 0
BBX 13 21 1 0
BITMAP
01E0
03C0
0380
0700
0F00
0000
0000
0FE0
3FF0
7FF0
F810
F800
FF80
7FE0
3FF0
0FF8
80F8
E0F8
FFF0
FFE0
3F80
ENDCHAR
STARTCHAR 015C
ENCODING 348
SWIDTH 720 0
DWIDTH 18 0
BBX 16 26 1 0
BITMAP
03C0
03E0
0770
0E78
1E38
0000
0000
07F8
1FFE
3FFE
7C0E
7802
F800
FC00
7FC0
7FF8
3FFE
1FFE
01FF
003F
801F
E01F
F83E
FFFE
FFF8
1FE0
ENDCHAR
STARTCHAR 015D
ENCODING 349
SWIDTH 600 0
DWIDTH 15 0
BBX 13 21 1 0
BITMAP
0780
0F80
1DC0
3CE0
3870
0000
0000
0FE0
3FF0
7FF0
F810
F800
FF80
7FE0
3FF0
0FF8
80F8
E0F8
FFF0
FFE0
3F80
ENDCHAR
STARTCHAR 015E
ENCODING 350
SWIDTH 720 0
DWIDTH 18 0
BBX 16 24 1 -5
BITMAP
07F8
1FFE
3FFE
7C0E
7802
F800
FC00
7FC0
7FF8
3FFE
1FFE
03FF
003F
801F
E01F
F83E
FFFE
FFF8
1FE0
0060
0060
00E0
0FE0
0F80
ENDCHAR
STARTCHAR 015F
ENCODING 351
SWIDTH 600 0
DWIDTH 15 0
BBX 13 19 1 -5
BITMAP
0FE0
3FF0
7FF0
F810
F800
FF80
7FE0
3FF0
0FF8
80F8
E0F8
FFF0
FFE0
3FC0
01C0
01C0
03C0
1F80
1F00
ENDCHAR
STARTCHAR 0160
ENCODING 352
SWIDTH 720 0
DWIDTH 18 0
BBX 16 26 1 0
BITMAP
1C38
0E70
07F0
07E0
03C0
0000
0000
07F8
1FFE
3FFE
7C0E
7802
F800
FC00
7FC0
7FF8
3FFE
1FFE
01FF
003F
801F
E01F
F83E
FFFE
FFF8
1FE0
ENDCHAR
STARTCHAR 0161
ENCODING 353
SWIDTH 600 0
DWIDTH 15 0
BBX 13 21 1 0
BITMAP
3870
3CE0
1DC0
0F80
0780
0000
0000
0FE0
3FF0
7FF0
F810
F800
FF80
7FE0
3FF0
0FF8
80F8
E0F8
FFF0
FFE0
3F80
ENDCHAR
STARTCHAR 0162
ENCODING 354
SWIDTH 680 0
DWIDTH 17 0
BBX 17 24 0 -5
BITMAP
FFFF80
FFFF80
FFFF80
03E000
03E000
03E000
03E000
03E000
03E000
03E000
03E000
03E000
03E000
03E000
03E000
03E000
03E000
03E000
03E000
007000
007000
007000
07E000
07C000
ENDCHAR
STARTCHAR 0163
ENCODING 355
SWIDTH 440 0
DWIDTH 11 0
BBX 10 23 1 -5
BITMAP
7C00
7C00
7C00
7C00
FFC0
FFC0
FFC0
7C00
7C00
7C00
7C00
7C00
7C00
7C00
7C00
3FC0
3FC0
1FC0
0380
0380
0380
3F00
3E00
ENDCHAR
STARTCHAR 0164
ENCODING 356
SWIDTH 680 0
DWIDTH 17 0
BBX 17 26 0 0
BITMAP
1E3C00
0E3800
077000
03E000
01C000
000000
000000
FFFF80
FFFF80
FFFF80
03E000
03E000
03E000
03E000
03E000
03E000
03E000
03E000
03E000
03E000
03E000
03E000
03E000
03E000
03E000
03E000
ENDCHAR
STARTCHAR 0165
ENCODING 357
SWIDTH 480 0
DWIDTH 12 0
BBX 13 23 1 0
BITMAP
0078
0078
0070
00F0
00F0
7CE0
7CE0
7C00
7C00
FFC0
FFC0
FFC0
7C00
7C00
7C00
7C00
7C00
7C00
7C00
7C00
3FC0
3FC0
1FC0
ENDCHAR
STARTCHAR 0166
ENCODING 358
SWIDTH 680 0
DWIDTH 17 0
BBX 17 19 0 0
BITMAP
FFFF80
FFFF80
FFFF80
03E000
03E000
03E000
03E000
03E000
1FFC00
1FFC00
1FFC00
03E000
03E000
03E000
03E000
03E000
03E000
03E000
03E000
ENDCHAR
STARTCHAR 0167
ENCODING 359
SWIDTH 440 0
DWIDTH 11 0
BBX 10 18 1 0
BITMAP
7C00
7C00
7C00
7C00
FFC0
FFC0
FFC0
7C00
7C00
FF80
FF80
FF80
7C00
7C00
7C00
3FC0
3FC0
1FC0
ENDCHAR
STARTCHAR 0168
ENCODING 360
SWIDTH 800 0
DWIDTH 20 0
BBX 16 25 2 0
BITMAP
0F1C
1FF8
1FF8
1CF0
0000
0000
F80F
F80F
F80F
F80F
F80F
F80F
F80F
F80F
F80F
F80F
F80F
F80F
F80F
F81F
F81F
7C3E
7FFE
1FFC
0FF0
ENDCHAR
STARTCHAR 0169
ENCODING 361
SWIDTH 720 0
DWIDTH 18 0
BBX 14 20 2 0
BITMAP
1E38
3FF0
3FF0
39E0
0000
0000
F07C
F07C
F07C
F07C
F07C
F07C
F07C
F07C
F87C
F87C
FFFC
FFFC
7FFC
3E7C
ENDCHAR
STARTCHAR 016A
ENCODING 362
SWIDTH 800 0
DWIDTH 20 0
BBX 16 24 2 0
BITMAP
1FF8
1FF8
1FF8
0000
0000
F80F
F80F
F80F
F80F
F80F
F80F
F80F
F80F
F80F
F80F
F80F
F80F
F80F
F81F
F81F
7C3E
7FFE
1FFC
0FF0
ENDCHAR
STARTCHAR 016B
ENCODING 363
SWIDTH 720 0
DWIDTH 18 0
BBX 14 19 2 0
BITMAP
3FF0
3FF0
3FF0
0000
0000
F07C
F07C
F07C
F07C
F07C
F07C
F07C
F07C
F87C
F87C
FFFC
FFFC
7FFC
3E7C
ENDCHAR
STARTCHAR 016C
ENCODING 364
SWIDTH 800 0
DWIDTH 20 0
BBX 16 25 2 0
BITMAP
1C38
0C38
0E70
0FF0
03E0
0000
F80F
F80F
F80F
F80F
F80F
F80F
F80F
F80F
F80F
F80F
F80F
F80F
F80F
F81F
F81F
7C3E
7FFE
1FFC
0FF0
ENDCHAR
STARTCHAR 016D
ENCODING 365
SWIDTH 720 0
DWIDTH 18 0
BBX 14 20 2 0
BITMAP
3870
3860
1CE0
1FE0
0F80
0000
F07C
F07C
F07C
F07C
F07C
F07C
F07C
F07C
F87C
F87C
FFFC
FFFC
7FFC
3E7C
ENDCHAR
STARTCHAR 016E
ENCODING 366
SWIDTH 800 0
DWIDTH 20 0
BBX 16 25 2 0
BITMAP
03C0
07E0
0E70
0E30
0E70
07E0
FBCF
F80F
F80F
F80F
F80F
F80F
F80F
F80F
F80F
F80F
F80F
F80F
F80F
F81F
F81F
7C3E
7FFE
1FFC
0FF0
ENDCHAR
STARTCHAR 016F
ENCODING 367
SWIDTH 720 0
DWIDTH 18 0
BBX 14 21 2 0
BITMAP
0780
0FC0
1CE0
1860
1CE0
0FC0
0780
F07C
F07C
F07C
F07C
F07C
F07C
F07C
F07C
F87C
F87C
FFFC
FFFC
7FFC
3E7C
ENDCHAR
STARTCHAR 0170
ENCODING 368
SWIDTH 800 0
DWIDTH 20 0
BBX 16 26 2 0
BITMAP
079C
073C
0F38
0E70
0C70
0000
0000
F80F
F80F
F80F
F80F
F80F
F80F
F80F
F80F
F80F
F80F
F80F
F80F
F80F
F81F
F81F
7C3E
7FFE
1FFC
0FF0
ENDCHAR
STARTCHAR 0171
ENCODING 369
SWIDTH 720 0
DWIDTH 18 0
BBX 14 21 2 0
BITMAP
0F78
0E70
1EF0
1CE0
38C0
0000
0000
F07C
F07C
F07C
F07C
F07C
F07C
F07C
F07C
F87C
F87C
FFFC
FFFC
7FFC
3E7C
ENDCHAR
STARTCHAR 0172
ENCODING 370
SWIDTH 800 0
DWIDTH 20 0
BBX 16 24 2 -5
BITMAP
F80F
F80F
F80F
F80F
F80F
F80F
F80F
F80F
F80F
F80F
F80F
F80F
F80F
F81F
F81F
7C3E
7FFE
1FFC
0FF0
0070
0070
0070
003F
001F
ENDCHAR
STARTCHAR 0173
ENCODING 371
SWIDTH 720 0
DWIDTH 18 0
BBX 16 19 2 -5
BITMAP
F07C
F07C
F07C
F07C
F07C
F07C
F07C
F07C
F87C
F87C
FFFC
FFFC
7FFC
3E7C
0070
0070
0070
003F
001F
ENDCHAR
STARTCHAR 0174
ENCODING 372
SWIDTH 1120 0
DWIDTH 28 0
BBX 26 26 1 0
BITMAP
001E0000
003F0000
003F8000
00738000
00E1C000
00000000
00000000
F81F03C0
F83F07C0
F83F07C0
783F07C0
7C3F8780
7C7F8F80
7C7F8F80
3C7F8F00
3E7BCF00
3EF3DF00
1EF3DF00
1EF3DE00
1EF1FE00
1FE1FE00
0FE1FE00
0FE1FC00
0FE0FC00
0FC0FC00
07C0FC00
ENDCHAR
STARTCHAR 0175
ENCODING 373
SWIDTH 960 0
DWIDTH 24 0
BBX 23 21 1 0
BITMAP
007800
007C00
00EE00
01CF00
03C700
000000
000000
F0783E
F87C3C
F87C3C
78FC3C
78FE7C
78EE78
7DEE78
3DCE78
3DCFF0
3DC7F0
1FC7F0
1F87E0
1F83E0
0F83E0
ENDCHAR
STARTCHAR 0176
ENCODING 374
SWIDTH 720 0
DWIDTH 18 0
BBX 18 26 0 0
BITMAP
01E000
01F000
03F800
073C00
0E1C00
000000
000000
FC07C0
7C0F80
3E0F80
3E1F00
1F1F00
1F3E00
0FBE00
0FFC00
07F800
03F800
03F000
01F000
01F000
01F000
01F000
01F000
01F000
01F000
01F000
ENDCHAR
STARTCHAR 0177
ENCODING 375
SWIDTH 640 0
DWIDTH 16 0
BBX 15 26 1 -5
BITMAP
0780
0FC0
0FE0
1CE0
3870
0000
0000
F03E
F83C
F83C
787C
7C78
7CF8
3CF0
3EF0
1FF0
1FE0
1FE0
0FC0
0FC0
07C0
0F80
0F80
0F00
1F00
1E00
ENDCHAR
STARTCHAR 0178
ENCODING 376
SWIDTH 720 0
DWIDTH 18 0
BBX 18 24 0 0
BITMAP
0F1C00
0F1C00
0F1C00
000000
000000
FC07C0
7C0F80
3E0F80
3E1F00
1F1F00
1F3E00
0FBE00
0FFC00
07F800
03F800
03F000
01F000
01F000
01F000
01F000
01F000
01F000
01F000
01F000
ENDCHAR
STARTCHAR 0179
ENCODING 377
SWIDTH 680 0
DWIDTH 17 0
BBX 15 26 1 0
BITMAP
00F0
01F0
01E0
03C0
0380
0000
0000
7FFE
7FFE
7FFE
007E
00FC
01F8
01F0
03F0
07E0
07C0
0FC0
1F80
1F00
3F00
7E00
FC00
FFFE
FFFE
FFFE
ENDCHAR
STARTCHAR 017A
ENCODING 378
SWIDTH 600 0
DWIDTH 15 0
BBX 13 21 1 0
BITMAP
01E0
03C0
0380
0780
0F00
0000
0000
FFF8
FFF8
FFF8
01F0
03E0
07C0
0F80
1F80
1F00
3E00
7C00
FFF8
FFF8
FFF8
ENDCHAR
STARTCHAR 017B
ENCODING 379
SWIDTH 680 0
DWIDTH 17 0
BBX 15 24 1 0
BITMAP
03C0
03C0
03C0
0000
0000
7FFE
7FFE
7FFE
007E
00FC
01F8
01F0
03F0
07E0
07C0
0FC0
1F80
1F00
3F00
7E00
FC00
FFFE
FFFE
FFFE
ENDCHAR
STARTCHAR 017C
ENCODING 380
SWIDTH 600 0
DWIDTH 15 0
BBX 13 19 1 0
BITMAP
0F80
0F80
0F80
0000
0000
FFF8
FFF8
FFF8
01F0
03E0
07C0
0F80
1F80
1F00
3E00
7C00
FFF8
FFF8
FFF8
ENDCHAR
STARTCHAR 017D
ENCODING 381
SWIDTH 680 0
DWIDTH 17 0
BBX 15 26 1 0
BITMAP
1C38
1E70
0EE0
07C0
03C0
0000
0000
7FFE
7FFE
7FFE
007E
00FC
01F8
01F0
03F0
07E0
07C0
0FC0
1F80
1F00
3F00
7E00
FC00
FFFE
FFFE
FFFE
ENDCHAR
STARTCHAR 017E
ENCODING 382
SWIDTH 600 0
DWIDTH 15 0
BBX 13 21 1 0
BITMAP
78F0
38E0
1DC0
0F80
0700
0000
0000
FFF8
FFF8
FFF8
01F0
03E0
07C0
0F80
1F80
1F00
3E00
7C00
FFF8
FFF8
FFF8
ENDCHAR
STARTCHAR 017F
ENCODING 383
SWIDTH 360 0
DWIDTH 9 0
BBX 9 20 2 0
BITMAP
1F80
7F80
7F80
F800
F800
F000
F000
F000
F000
F000
F000
F000
F000
F000
F000
F000
F000
F000
F000
F000
ENDCHAR
STARTCHAR 0192
ENCODING 402
SWIDTH 720 0
DWIDTH 18 0
BBX 16 21 1 -2
BITMAP
003F
00FF
01FF
01F0
01E0
03E0
03E0
03C0
1FFC
1FFC
1FFC
07C0
07C0
07C0
0780
0780
0780
0F80
FF00
FE00
FC00
ENDCHAR
STARTCHAR 01A0
ENCODING 416
SWIDTH 920 0
DWIDTH 23 0
BBX 22 19 1 0
BITMAP
03F81C
0FFE1C
1FFF0C
3F0F9C
7C07FC
7C07F0
7C03E0
F803E0
F803E0
F803E0
F803E0
F803E0
7C03E0
7C07C0
7C07C0
3F0F80
1FFF00
0FFE00
03F800
ENDCHAR
STARTCHAR 01A1
ENCODING 417
SWIDTH 680 0
DWIDTH 17 0
BBX 16 18 1 0
BITMAP
0007
0003
0003
0007
0FFF
3FFE
7FFC
7C7C
F83E
F83E
F81E
F81E
F83E
F83E
7C7C
7FFC
3FF8
0FE0
ENDCHAR
STARTCHAR 01AF
ENCODING 431
SWIDTH 840 0
DWIDTH 21 0
BBX 20 23 2 0
BITMAP
000070
000070
000070
000070
F80FE0
F80FC0
F80F00
F80F00
F80F00
F80F00
F80F00
F80F00
F80F00
F80F00
F80F00
F80F00
F80F00
F81F00
F81F00
7C3E00
7FFE00
1FFC00
0FF000
ENDCHAR
STARTCHAR 01B0
ENCODING 432
SWIDTH 760 0
DWIDTH 19 0
BBX 17 18 2 0
BITMAP
000380
000180
000180
000380
F07F80
F07F00
F07C00
F07C00
F07C00
F07C00
F07C00
F07C00
F87C00
F87C00
FFFC00
FFFC00
7FFC00
3E7C00
ENDCHAR
STARTCHAR 01FA
ENCODING 506
SWIDTH 760 0
DWIDTH 19 0
BBX 19 25 0 0
BITMAP
003C00
007800
00F000
01F000
03F800
031C00
031C00
031C00
03F800
03F800
03F800
03FC00
07FC00
07BE00
0FBE00
0F9E00
0F1F00
1F1F00
1FFF80
3FFF80
3FFF80
3C07C0
7C07C0
7C03E0
F803E0
ENDCHAR
STARTCHAR 01FB
ENCODING 507
SWIDTH 680 0
DWIDTH 17 0
BBX 14 24 1 0
BITMAP
00F0
01C0
0380
07C0
0FE0
0CE0
1C60
1C60
0CE0
07C0
3FE0
7FF8
7FF8
607C
007C
07FC
3FFC
7FFC
FC7C
F87C
F87C
FFFC
7FFC
3F7C
ENDCHAR
STARTCHAR 01FC
ENCODING 508
SWIDTH 1080 0
DWIDTH 27 0
BBX 26 26 0 0
BITMAP
0000F000
0001F000
0001E000
0003C000
00038000
00000000
00000000
01FFFFC0
01FFFFC0
01FFFFC0
03E78000
03C78000
07C78000
07C78000
0787FF80
0F87FF80
0F07FF80
1FFF8000
1FFF8000
1FFF8000
3E078000
3C078000
7C078000
7C07FFC0
7807FFC0
F807FFC0
ENDCHAR
STARTCHAR 01FD
ENCODING 509
SWIDTH 1000 0
DWIDTH 25 0
BBX 23 21 1 0
BITMAP
000780
000F00
001E00
001C00
003800
000000
000000
3FC3F0
7FFFFC
7FFFFC
607C3E
007C1E
07FFFE
3FFFFE
7FFFFE
FC7C00
F87C02
F87E0E
FFFFFE
7FCFFE
3F03F8
ENDCHAR
STARTCHAR 01FE
ENCODING 510
SWIDTH 840 0
DWIDTH 21 0
BBX 19 27 1 -1
BITMAP
007C00
007800
00F000
00E000
01C000
000000
0000C0
03F9C0
0FFF80
1FFF00
3F0F80
7C0FC0
7C1FC0
783BE0
F833E0
F873E0
F8E3E0
F8C3E0
F983E0
7B83E0
7F07C0
7E07C0
3F0F80
1FFF00
3FFE00
33F800
600000
ENDCHAR
STARTCHAR 01FF
ENCODING 511
SWIDTH 680 0
DWIDTH 17 0
BBX 15 23 1 -2
BITMAP
01F0
01E0
03C0
0780
0700
0000
000E
0FEC
3FF8
7FFC
7C7C
F87E
F8DE
F99E
FB1E
FB1E
FE3E
7C7C
3FFC
3FF8
3FE0
6000
C000
ENDCHAR
STARTCHAR 02C6
ENCODING 710
SWIDTH 720 0
DWIDTH 18 0
BBX 10 5 4 16
BITMAP
1E00
3F00
7F00
7380
E1C0
ENDCHAR
STARTCHAR 02C7
ENCODING 711
SWIDTH 720 0
DWIDTH 18 0
BBX 10 5 4 16
BITMAP
E1C0
7380
7F00
3F00
1E00
ENDCHAR
STARTCHAR 02C9
ENCODING 713
SWIDTH 720 0
DWIDTH 18 0
BBX 10 3 4 16
BITMAP
FFC0
FFC0
FFC0
ENDCHAR
STARTCHAR 02D8
ENCODING 728
SWIDTH 720 0
DWIDTH 18 0
BBX 10 5 4 15
BITMAP
E1C0
E180
7380
7F80
1E00
ENDCHAR
STARTCHAR 02D9
ENCODING 729
SWIDTH 720 0
DWIDTH 18 0
BBX 4 3 7 16
BITMAP
F0
F0
F0
ENDCHAR
STARTCHAR 02DA
ENCODING 730
SWIDTH 720 0
DWIDTH 18 0
BBX 8 7 5 14
BITMAP
3C
7E
E7
C3
E7
7E
3C
ENDCHAR
STARTCHAR 02DB
ENCODING 731
SWIDTH 720 0
DWIDTH 18 0
BBX 7 5 5 -5
BITMAP
E0
E0
70
7E
3E
ENDCHAR
STARTCHAR 02DC
ENCODING 732
SWIDTH 720 0
DWIDTH 18 0
BBX 10 4 4 16
BITMAP
78C0
FFC0
FFC0
C780
ENDCHAR
STARTCHAR 02DD
ENCODING 733
SWIDTH 720 0
DWIDTH 18 0
BBX 11 5 4 16
BITMAP
3DE0
39C0
73C0
7380
E700
ENDCHAR
STARTCHAR 0300
ENCODING 768
SWIDTH 0 0
DWIDTH 0 0
BBX 7 5 5 16
BITMAP
F0
78
38
1C
1E
ENDCHAR
STARTCHAR 0301
ENCODING 769
SWIDTH 0 0
DWIDTH 0 0
BBX 7 5 6 16
BITMAP
1E
3C
78
70
E0
ENDCHAR
STARTCHAR 0303
ENCODING 771
SWIDTH 0 0
DWIDTH 0 0
BBX 10 4 4 16
BITMAP
78C0
FFC0
FFC0
C780
ENDCHAR
STARTCHAR 0309
ENCODING 777
SWIDTH 0 0
DWIDTH 0 0
BBX 4 5 7 16
BITMAP
E0
30
30
70
70
ENDCHAR
STARTCHAR 0323
ENCODING 803
SWIDTH 0 0
DWIDTH 0 0
BBX 4 3 7 -5
BITMAP
F0
F0
F0
ENDCHAR
STARTCHAR 037E
ENCODING 894
SWIDTH 400 0
DWIDTH 10 0
BBX 7 18 1 -4
BITMAP
3C
3C
3C
3C
3C
00
00
00
00
3E
3C
3C
78
78
70
70
E0
E0
ENDCHAR
STARTCHAR 0384
ENCODING 900
SWIDTH 720 0
DWIDTH 18 0
BBX 4 5 7 16
BITMAP
F0
F0
F0
F0
E0
ENDCHAR
STARTCHAR 0385
ENCODING 901
SWIDTH 720 0
DWIDTH 18 0
BBX 13 5 2 16
BITMAP
0780
0780
F7B8
F738
F338
ENDCHAR
STARTCHAR 0386
ENCODING 902
SWIDTH 800 0
DWIDTH 20 0
BBX 19 19 0 0
BITMAP
F1F800
F1F800
F1FC00
F3FC00
73FE00
03FE00
07DE00
079F00
079F00
0F8F00
0F0F80
1F0F80
1FFF80
1FFFC0
3FFFC0
3E03C0
3C03E0
7C03E0
7C01E0
ENDCHAR
STARTCHAR 0387
ENCODING 903
SWIDTH 400 0
DWIDTH 10 0
BBX 4 5 3 9
BITMAP
F0
F0
F0
F0
F0
ENDCHAR
STARTCHAR 0388
ENCODING 904
SWIDTH 840 0
DWIDTH 21 0
BBX 20 19 0 0
BITMAP
F3FFF0
F3FFF0
F3FFF0
F3E000
73E000
03E000
03E000
03FFE0
03FFE0
03FFE0
03E000
03E000
03E000
03E000
03E000
03E000
03FFF0
03FFF0
03FFF0
ENDCHAR
STARTCHAR 0389
ENCODING 905
SWIDTH 1000 0
DWIDTH 25 0
BBX 23 19 0 0
BITMAP
F3E03E
F3E03E
F3E03E
F3E03E
73E03E
03E03E
03E03E
03FFFE
03FFFE
03FFFE
03E03E
03E03E
03E03E
03E03E
03E03E
03E03E
03E03E
03E03E
03E03E
ENDCHAR
STARTCHAR 038A
ENCODING 906
SWIDTH 720 0
DWIDTH 18 0
BBX 16 19 0 0
BITMAP
F7FF
F7FF
F7FF
F0F8
70F8
00F8
00F8
00F8
00F8
00F8
00F8
00F8
00F8
00F8
00F8
00F8
07FF
07FF
07FF
ENDCHAR
STARTCHAR 038C
ENCODING 908
SWIDTH 960 0
DWIDTH 24 0
BBX 23 19 0 0
BITMAP
F03F80
F0FFE0
F1FFF0
F3F0F8
77C07C
07C07C
07803E
0F803E
0F803E
0F803E
0F803E
0F803E
07803E
07C07C
07C07C
03F1F8
01FFF0
00FFE0
003F80
ENDCHAR
STARTCHAR 038E
ENCODING 910
SWIDTH 920 0
DWIDTH 23 0
BBX 23 19 0 0
BITMAP
F7E03E
F3E07E
F1F07C
F1F0F8
70F8F8
00F9F0
007DF0
007FE0
003FE0
001FC0
001F80
000F80
000F80
000F80
000F80
000F80
000F80
000F80
000F80
ENDCHAR
STARTCHAR 038F
ENCODING 911
SWIDTH 960 0
DWIDTH 24 0
BBX 24 19 0 0
BITMAP
F03F80
F0FFE0
F1FFF8
F3F0FC
77C07C
07C03E
07C03E
07C03E
07803E
07C03E
07C07C
03E07C
03F1F8
00F9F0
0079C0
0039C0
0FF9FF
0FF9FF
0FF9FF
ENDCHAR
STARTCHAR 0390
ENCODING 912
SWIDTH 360 0
DWIDTH 9 0
BBX 11 21 -1 0
BITMAP
0E00
0E00
EEE0
ECE0
ECE0
0000
0000
1E00
1E00
1E00
1E00
1E00
1E00
1E00
1E00
1E00
1E00
1E00
1E00
1E00
1E00
ENDCHAR
STARTCHAR 0391
ENCODING 913
SWIDTH 760 0
DWIDTH 19 0
BBX 19 19 0 0
BITMAP
01F800
03F800
03F800
03FC00
07FC00
07BC00
07BE00
0FBE00
0F9E00
0F1F00
1F1F00
1F0F00
1FFF80
3FFF80
3FFFC0
3C07C0
7C07C0
7C03E0
F803E0
ENDCHAR
STARTCHAR 0392
ENCODING 914
SWIDTH 760 0
DWIDTH 19 0
BBX 16 19 2 0
BITMAP
FFF0
FFF8
FFFC
F87E
F83E
F83E
F83C
F87C
FFF8
FFF8
FFFE
F83E
F81F
F81F
F81F
F83E
FFFE
FFFC
FFF0
ENDCHAR
STARTCHAR 0393
ENCODING 915
SWIDTH 640 0
DWIDTH 16 0
BBX 13 19 2 0
BITMAP
FFF8
FFF8
FFF8
F800
F800
F800
F800
F800
F800
F800
F800
F800
F800
F800
F800
F800
F800
F800
F800
ENDCHAR
STARTCHAR 0394
ENCODING 916
SWIDTH 800 0
DWIDTH 20 0
BBX 19 19 1 0
BITMAP
03F000
03F000
07F800
07F800
07F800
0FFC00
0F3C00
0F3E00
1F3E00
1E1E00
1E1F00
3E1F00
3C0F00
7C0F80
7C0F80
7C0780
FFFFC0
FFFFC0
FFFFE0
ENDCHAR
STARTCHAR 0395
ENCODING 917
SWIDTH 680 0
DWIDTH 17 0
BBX 13 19 2 0
BITMAP
FFF8
FFF8
FFF8
F800
F800
F800
F800
FFF8
FFF8
FFF8
F800
F800
F800
F800
F800
F800
FFF8
FFF8
FFF8
ENDCHAR
STARTCHAR 0396
ENCODING 918
SWIDTH 680 0
DWIDTH 17 0
BBX 15 19 1 0
BITMAP
7FFE
7FFE
7FFE
007E
00FC
01F8
01F0
03F0
07E0
07C0
0FC0
1F80
1F00
3F00
7E00
FC00
FFFE
FFFE
FFFE
ENDCHAR
STARTCHAR 0397
ENCODING 919
SWIDTH 840 0
DWIDTH 21 0
BBX 17 19 2 0
BITMAP
F80F80
F80F80
F80F80
F80F80
F80F80
F80F80
F80F80
FFFF80
FFFF80
FFFF80
F80F80
F80F80
F80F80
F80F80
F80F80
F80F80
F80F80
F80F80
F80F80
ENDCHAR
STARTCHAR 0398
ENCODING 920
SWIDTH 840 0
DWIDTH 21 0
BBX 19 19 1 0
BITMAP
03F800
0FFE00
1FFF00
3F0F80
7C07C0
7C07C0
7C03E0
F9FBE0
F9FBE0
F9FBE0
F803E0
F803E0
7C03E0
7C07C0
7C07C0
3F0F80
1FFF00
0FFE00
03F800
ENDCHAR
STARTCHAR 0399
ENCODING 921
SWIDTH 560 0
DWIDTH 14 0
BBX 11 19 1 0
BITMAP
FFE0
FFE0
FFE0
1F00
1F00
1F00
1F00
1F00
1F00
1F00
1F00
1F00
1F00
1F00
1F00
1F00
FFE0
FFE0
FFE0
ENDCHAR
STARTCHAR 039A
ENCODING 922
SWIDTH 760 0
DWIDTH 19 0
BBX 17 19 2 0
BITMAP
F81F80
F83F00
F83E00
F87C00
F8F800
F9F800
F9F000
FBE000
FFC000
FFC000
FFE000
FFF000
F9F800
F8F800
F8FC00
F87E00
F83E00
F83F00
F81F80
ENDCHAR
STARTCHAR 039B
ENCODING 923
SWIDTH 760 0
DWIDTH 19 0
BBX 19 19 0 0
BITMAP
01F000
01F800
03F800
03FC00
07FC00
07FC00
07BE00
0FBE00
0F9E00
0F1F00
1F1F00
1F0F00
1E0F80
3E0F80
3E0780
3C07C0
7C07C0
7C03E0
F803E0
ENDCHAR
STARTCHAR 039C
ENCODING 924
SWIDTH 960 0
DWIDTH 24 0
BBX 19 19 2 0
BITMAP
FC03E0
FC07E0
FE07E0
FE0FE0
FF0FE0
FF0FE0
FF1FE0
FF9DE0
FBBDE0
FBFDE0
FBF9E0
F9F9E0
F9F1E0
F8F1E0
F8F1E0
F801E0
F801E0
F801E0
F801E0
ENDCHAR
STARTCHAR 039D
ENCODING 925
SWIDTH 840 0
DWIDTH 21 0
BBX 17 19 2 0
BITMAP
FC0780
FE0780
FE0780
FF0780
FF8780
FF8780
FFC780
FBC780
FBE780
F9F780
F9F780
F8FF80
F8FF80
F87F80
F83F80
F83F80
F81F80
F81F80
F80F80
ENDCHAR
STARTCHAR 039E
ENCODING 926
SWIDTH 720 0
DWIDTH 18 0
BBX 14 19 2 0
BITMAP
FFFC
FFFC
FFFC
FFFC
0000
0000
0000
FFFC
FFFC
FFFC
FFFC
0000
0000
0000
0000
FFFC
FFFC
FFFC
FFFC
ENDCHAR
STARTCHAR 039F
ENCODING 927
SWIDTH 840 0
DWIDTH 21 0
BBX 19 19 1 0
BITMAP
03F800
0FFE00
1FFF00
3F0F80
7C07C0
7C07C0
7C03E0
F803E0
F803E0
F803E0
F803E0
F803E0
7C03E0
7C07C0
7C07C0
3F0F80
1FFF00
0FFE00
03F800
ENDCHAR
STARTCHAR 03A0
ENCODING 928
SWIDTH 840 0
DWIDTH 21 0
BBX 17 19 2 0
BITMAP
FFFF80
FFFF80
FFFF80
F80F80
F80F80
F80F80
F80F80
F80F80
F80F80
F80F80
F80F80
F80F80
F80F80
F80F80
F80F80
F80F80
F80F80
F80F80
F80F80
ENDCHAR
STARTCHAR 03A1
ENCODING 929
SWIDTH 720 0
DWIDTH 18 0
BBX 15 19 2 0
BITMAP
FFE0
FFF8
FFFC
F87E
F83E
F83E
F83E
F83E
F83E
F87E
FFFC
FFF8
FFE0
F800
F800
F800
F800
F800
F800
ENDCHAR
STARTCHAR 03A3
ENCODING 931
SWIDTH 680 0
DWIDTH 17 0
BBX 15 19 1 0
BITMAP
FFFE
FFFE
FFFE
7E00
3F00
1F80
0FC0
07E0
03F0
03F0
07E0
0FC0
0F80
1F00
3E00
7E00
FFFE
FFFE
FFFE
ENDCHAR
STARTCHAR 03A4
ENCODING 932
SWIDTH 680 0
DWIDTH 17 0
BBX 17 19 0 0
BITMAP
FFFF80
FFFF80
FFFF80
03E000
03E000
03E000
03E000
03E000
03E000
03E000
03E000
03E000
03E000
03E000
03E000
03E000
03E000
03E000
03E000
ENDCHAR
STARTCHAR 03A5
ENCODING 933
SWIDTH 720 0
DWIDTH 18 0
BBX 18 19 0 0
BITMAP
FC07C0
7C0F80
3E0F80
3E1F00
1F1F00
1F3E00
0FBE00
0FFC00
07F800
03F800
03F000
01F000
01F000
01F000
01F000
01F000
01F000
01F000
01F000
ENDCHAR
STARTCHAR 03A6
ENCODING 934
SWIDTH 960 0
DWIDTH 24 0
BBX 22 19 1 0
BITMAP
007800
007800
03FF00
1FFFE0
3FFFF0
7E79F8
7C78F8
F87878
F8787C
F8787C
F8787C
F878F8
7C78F8
7E79F8
3FFFF0
1FFFC0
03FF00
007800
007800
ENDCHAR
STARTCHAR 03A7
ENCODING 935
SWIDTH 760 0
DWIDTH 19 0
BBX 17 19 1 0
BITMAP
F80F80
FC0F80
7C1F00
3E3E00
3F3E00
1F7C00
0FF800
0FF800
07F000
03F000
07F000
0FF800
0FFC00
1F7C00
3E3E00
3E3E00
7C1F00
F81F80
F80F80
ENDCHAR
STARTCHAR 03A8
ENCODING 936
SWIDTH 960 0
DWIDTH 24 0
BBX 21 19 2 0
BITMAP
F0F8F8
F0F8F8
F0F8F8
F0F8F8
F0F8F8
F0F8F8
F0F8F8
F0F8F8
F0F8F8
F8F8F0
F8F9F0
7CFBF0
7FFFE0
1FFFC0
07FE00
00F800
00F800
00F800
00F800
ENDCHAR
STARTCHAR 03A9
ENCODING 937
SWIDTH 840 0
DWIDTH 21 0
BBX 19 19 1 0
BITMAP
03F800
0FFE00
1FFF80
3E0F80
7C07C0
7C07C0
F803E0
F803E0
7803E0
7C03C0
7C07C0
7E07C0
3F1F80
1F1F00
071C00
071C00
FF1FE0
FF1FE0
FF1FE0
ENDCHAR
STARTCHAR 03AA
ENCODING 938
SWIDTH 560 0
DWIDTH 14 0
BBX 11 24 1 0
BITMAP
71E0
71E0
71E0
0000
0000
FFE0
FFE0
FFE0
1F00
1F00
1F00
1F00
1F00
1F00
1F00
1F00
1F00
1F00
1F00
1F00
1F00
FFE0
FFE0
FFE0
ENDCHAR
STARTCHAR 03AB
ENCODING 939
SWIDTH 720 0
DWIDTH 18 0
BBX 18 24 0 0
BITMAP
0F1C00
0F1C00
0F1C00
000000
000000
FC07C0
7C0F80
3E0F80
3E1F00
1F1F00
1F3E00
0FBE00
0FFC00
07F800
03F800
03F000
01F000
01F000
01F000
01F000
01F000
01F000
01F000
01F000
ENDCHAR
STARTCHAR 03AC
ENCODING 940
SWIDTH 680 0
DWIDTH 17 0
BBX 14 21 1 0
BITMAP
07C0
07C0
0380
0380
0380
0000
0000
1FBC
3FFC
7FFC
7C3C
F83C
F83C
F83C
F83C
F83C
F83C
7C7C
7FFC
3FFC
1FBC
ENDCHAR
STARTCHAR 03AD
ENCODING 941
SWIDTH 600 0
DWIDTH 15 0
BBX 13 21 1 0
BITMAP
0780
0780
0780
0780
0780
0000
0000
0FE0
3FF0
7FF0
7810
7800
7FC0
1FC0
7FC0
F800
F800
F818
FFF8
7FF8
1FE0
ENDCHAR
STARTCHAR 03AE
ENCODING 942
SWIDTH 720 0
DWIDTH 18 0
BBX 14 26 2 -5
BITMAP
07C0
0780
0780
0380
0380
0000
0000
F1E0
F7F8
FFF8
FFFC
F87C
F07C
F07C
F07C
F07C
F07C
F07C
F07C
F07C
F07C
007C
007C
007C
007C
007C
ENDCHAR
STARTCHAR 03AF
ENCODING 943
SWIDTH 360 0
DWIDTH 9 0
BBX 5 21 2 0
BITMAP
F8
F0
F0
70
70
00
00
F0
F0
F0
F0
F0
F0
F0
F0
F0
F0
F0
F0
F0
F0
ENDCHAR
STARTCHAR 03B0
ENCODING 944
SWIDTH 720 0
DWIDTH 18 0
BBX 14 21 2 0
BITMAP
0780
0780
F738
F738
F338
0000
0000
F07C
F07C
F07C
F07C
F07C
F07C
F07C
F07C
F07C
F87C
F878
7FF8
3FF0
1FC0
ENDCHAR
STARTCHAR 03B1
ENCODING 945
SWIDTH 680 0
DWIDTH 17 0
BBX 14 14 1 0
BITMAP
1FBC
3FFC
7FFC
7C3C
F83C
F83C
F83C
F83C
F83C
F83C
7C7C
7FFC
3FFC
1FBC
ENDCHAR
STARTCHAR 03B2
ENCODING 946
SWIDTH 720 0
DWIDTH 18 0
BBX 15 25 2 -5
BITMAP
0FE0
3FF0
7FF8
7C7C
F87C
F87C
F07C
F0F8
F3F0
F3E0
F3F8
F07C
F03E
F03E
F03E
F03E
F07C
FFFC
FFF8
F7E0
F000
F000
F000
F000
F000
ENDCHAR
STARTCHAR 03B3
ENCODING 947
SWIDTH 640 0
DWIDTH 16 0
BBX 15 19 1 -5
BITMAP
F03E
F83C
F87C
7878
7C78
3CF8
3CF0
3EF0
1FE0
1FE0
0FE0
0FC0
0FC0
0780
0780
0780
0780
0780
0780
ENDCHAR
STARTCHAR 03B4
ENCODING 948
SWIDTH 680 0
DWIDTH 17 0
BBX 15 20 1 0
BITMAP
3FFC
3FFC
3FFC
1F80
0FC0
03E0
07F8
1FF8
3E7C
7C3E
F83E
F83E
F81E
F83E
F83E
F83E
7C7C
7FFC
3FF0
0FE0
ENDCHAR
STARTCHAR 03B5
ENCODING 949
SWIDTH 600 0
DWIDTH 15 0
BBX 13 14 1 0
BITMAP
0FE0
3FF0
7FF0
7810
7800
7FC0
1FC0
7FC0
F800
F800
F818
FFF8
7FF8
1FE0
ENDCHAR
STARTCHAR 03B6
ENCODING 950
SWIDTH 560 0
DWIDTH 14 0
BBX 13 25 1 -5
BITMAP
7FF8
7FF8
7FF8
03E0
07C0
0F80
1F00
1E00
3C00
7C00
7800
7800
F800
F800
F800
F800
FC00
7FE0
7FF0
1FF8
0078
0078
0078
00F0
00F0
ENDCHAR
STARTCHAR 03B7
ENCODING 951
SWIDTH 720 0
DWIDTH 18 0
BBX 14 19 2 -5
BITMAP
F1E0
F7F8
FFF8
FFFC
F87C
F07C
F07C
F07C
F07C
F07C
F07C
F07C
F07C
F07C
007C
007C
007C
007C
007C
ENDCHAR
STARTCHAR 03B8
ENCODING 952
SWIDTH 720 0
DWIDTH 18 0
BBX 15 20 1 0
BITMAP
07E0
1FF0
3FF8
3C7C
7C3C
783E
781E
781E
FFFE
FFFE
FFFE
F81E
781E
783E
783E
7C3C
3C7C
3FF8
1FF0
07E0
ENDCHAR
STARTCHAR 03B9
ENCODING 953
SWIDTH 360 0
DWIDTH 9 0
BBX 4 14 2 0
BITMAP
F0
F0
F0
F0
F0
F0
F0
F0
F0
F0
F0
F0
F0
F0
ENDCHAR
STARTCHAR 03BA
ENCODING 954
SWIDTH 680 0
DWIDTH 17 0
BBX 14 14 2 0
BITMAP
F078
F0F8
F1F8
F1F8
F3E0
F7C0
FFC0
FFC0
FBE0
F1F0
F1F0
F0F8
F07C
F07C
ENDCHAR
STARTCHAR 03BB
ENCODING 955
SWIDTH 640 0
DWIDTH 16 0
BBX 16 20 0 0
BITMAP
0F80
0F80
07C0
07C0
07C0
03E0
03E0
07E0
07F0
0FF0
0FF0
0F78
1F78
1E7C
3E3C
3E3C
3C3E
7C1E
781E
F81F
ENDCHAR
STARTCHAR 03BC
ENCODING 956
SWIDTH 720 0
DWIDTH 18 0
BBX 14 19 2 -5
BITMAP
F03C
F03C
F03C
F03C
F03C
F03C
F03C
F03C
F03C
F03C
F87C
FFFC
FFFC
F7BC
F000
F000
F000
F000
F000
ENDCHAR
STARTCHAR 03BD
ENCODING 957
SWIDTH 640 0
DWIDTH 16 0
BBX 15 14 1 0
BITMAP
F03E
F83C
F83C
787C
7C78
7C78
3CF0
3CF0
1EF0
1FE0
1FE0
0FE0
0FC0
0FC0
ENDCHAR
STARTCHAR 03BE
ENCODING 958
SWIDTH 600 0
DWIDTH 15 0
BBX 14 25 1 -5
BITMAP
FFF8
FFF8
FFF8
1E00
3C00
7C00
7C00
7E00
3FF0
0FF0
3FF0
7C00
F800
F800
F800
F800
FC00
7FF0
3FF8
1FF8
007C
003C
0038
0078
00F0
ENDCHAR
STARTCHAR 03BF
ENCODING 959
SWIDTH 680 0
DWIDTH 17 0
BBX 15 14 1 0
BITMAP
0FE0
3FF8
7FFC
7C7C
F83E
F83E
F81E
F81E
F83E
F83E
7C7C
7FFC
3FF8
0FE0
ENDCHAR
STARTCHAR 03C0
ENCODING 960
SWIDTH 720 0
DWIDTH 18 0
BBX 14 14 2 0
BITMAP
FFFC
FFFC
FFFC
F03C
F03C
F03C
F03C
F03C
F03C
F03C
F03C
F03C
F03C
F03C
ENDCHAR
STARTCHAR 03C1
ENCODING 961
SWIDTH 680 0
DWIDTH 17 0
BBX 14 19 2 -5
BITMAP
0FC0
3FF0
7FF8
787C
F87C
F03C
F03C
F03C
F03C
F07C
F0FC
FFF8
FFF0
F7E0
F000
F000
F000
F000
F000
ENDCHAR
STARTCHAR 03C2
ENCODING 962
SWIDTH 560 0
DWIDTH 14 0
BBX 13 19 1 -5
BITMAP
07E0
1FF8
3FF8
7C38
7808
F800
F800
F800
F800
F800
7C00
7FE0
3FF0
0FF8
0078
0078
0078
00F0
00E0
ENDCHAR
STARTCHAR 03C3
ENCODING 963
SWIDTH 720 0
DWIDTH 18 0
BBX 17 14 1 0
BITMAP
0FFF80
3FFF80
7FFF80
7C7C00
F83E00
F83E00
F81E00
F81E00
F83E00
F83E00
7C7C00
7FFC00
3FF800
0FE000
ENDCHAR
STARTCHAR 03C4
ENCODING 964
SWIDTH 520 0
DWIDTH 13 0
BBX 13 14 0 0
BITMAP
FFF8
FFF8
FFF8
0F80
0F80
0F80
0F80
0F80
0F80
0F80
0F80
0F80
0F80
0F80
ENDCHAR
STARTCHAR 03C5
ENCODING 965
SWIDTH 720 0
DWIDTH 18 0
BBX 14 14 2 0
BITMAP
F07C
F07C
F07C
F07C
F07C
F07C
F07C
F07C
F07C
F87C
F878
7FF8
3FF0
1FC0
ENDCHAR
STARTCHAR 03C6
ENCODING 966
SWIDTH 920 0
DWIDTH 23 0
BBX 21 19 1 -5
BITMAP
3EFF00
3CFFC0
7CFFE0
78F9F0
F8F8F0
F8F8F8
F8F8F8
F8F8F8
F8F8F8
7CF8F0
7EFBF0
3FFFE0
1FFFC0
03FE00
00F800
00F800
00F800
00F800
00F800
ENDCHAR
STARTCHAR 03C7
ENCODING 967
SWIDTH 640 0
DWIDTH 16 0
BBX 16 19 0 -5
BITMAP
781E
7C3E
3C3C
3E7C
1E78
1FF8
0FF0
0FF0
07E0
07E0
07E0
0FF0
0FF0
1EF8
3E78
3C7C
7C3C
783E
F81F
ENDCHAR
STARTCHAR 03C8
ENCODING 968
SWIDTH 960 0
DWIDTH 24 0
BBX 20 19 2 -5
BITMAP
F0F1F0
F0F1F0
F0F1F0
F0F1F0
F0F1F0
F0F1F0
F0F1F0
F0F1F0
F0F1F0
F8F1E0
7CF3E0
7FFFC0
3FFF80
07FE00
00F000
00F000
00F000
00F000
00F000
ENDCHAR
STARTCHAR 03C9
ENCODING 969
SWIDTH 880 0
DWIDTH 22 0
BBX 20 14 1 0
BITMAP
1F0780
3E03C0
7C03E0
78F1E0
78F1F0
F8F0F0
F8F0F0
F8F0F0
F8F0F0
F8F1F0
78F1F0
7FFFE0
3FDFC0
1F0F80
ENDCHAR
STARTCHAR 03CA
ENCODING 970
SWIDTH 360 0
DWIDTH 9 0
BBX 9 19 0 0
BITMAP
E780
E780
E780
0000
0000
3C00
3C00
3C00
3C00
3C00
3C00
3C00
3C00
3C00
3C00
3C00
3C00
3C00
3C00
ENDCHAR
STARTCHAR 03CB
ENCODING 971
SWIDTH 720 0
DWIDTH 18 0
BBX 14 19 2 0
BITMAP
38F0
38F0
38F0
0000
0000
F07C
F07C
F07C
F07C
F07C
F07C
F07C
F07C
F07C
F87C
F878
7FF8
3FF0
1FC0
ENDCHAR
STARTCHAR 03CC
ENCODING 972
SWIDTH 680 0
DWIDTH 17 0
BBX 15 21 1 0
BITMAP
07C0
03C0
0380
0380
0380
0000
0000
0FE0
3FF8
7FFC
7C7C
F83E
F83E
F81E
F81E
F83E
F83E
7C7C
7FFC
3FF8
0FE0
ENDCHAR
STARTCHAR 03CD
ENCODING 973
SWIDTH 720 0
DWIDTH 18 0
BBX 14 21 2 0
BITMAP
0780
0780
0780
0780
0700
0000
0000
F07C
F07C
F07C
F07C
F07C
F07C
F07C
F07C
F07C
F87C
F878
7FF8
3FF0
1FC0
ENDCHAR
STARTCHAR 03CE
ENCODING 974
SWIDTH 880 0
DWIDTH 22 0
BBX 20 21 1 0
BITMAP
00F000
00F000
00F000
00F000
007000
000000
000000
1F0780
3E03C0
7C03E0
78F1E0
78F1F0
F8F0F0
F8F0F0
F8F0F0
F8F0F0
F8F1F0
78F1F0
7FFFE0
3FDFC0
1F0F80
ENDCHAR
STARTCHAR 0401
ENCODING 1025
SWIDTH 680 0
DWIDTH 17 0
BBX 13 24 2 0
BITMAP
38F0
38F0
38F0
0000
0000
FFF8
FFF8
FFF8
F800
F800
F800
F800
FFF8
FFF8
FFF8
F800
F800
F800
F800
F800
F800
FFF8
FFF8
FFF8
ENDCHAR
STARTCHAR 0402
ENCODING 1026
SWIDTH 920 0
DWIDTH 23 0
BBX 22 19 0 0
BITMAP
FFFF00
FFFF00
FFFF00
03C000
03C000
03C000
03C000
03FFC0
03FFF0
03FFF8
03C0F8
03C07C
03C07C
03C07C
03C078
03C0F8
03C7F8
03C7F0
03C7C0
ENDCHAR
STARTCHAR 0403
ENCODING 1027
SWIDTH 640 0
DWIDTH 16 0
BBX 13 26 2 0
BITMAP
01E0
03E0
03C0
0780
0700
0000
0000
FFF8
FFF8
FFF8
F800
F800
F800
F800
F800
F800
F800
F800
F800
F800
F800
F800
F800
F800
F800
F800
ENDCHAR
STARTCHAR 0404
ENCODING 1028
SWIDTH 760 0
DWIDTH 19 0
BBX 16 19 1 0
BITMAP
03FC
0FFF
1FFF
3F0F
7C03
7C01
7800
FFF8
FFF8
FFF8
F800
F800
7800
7C01
7E03
3F07
1FFF
0FFF
03FC
ENDCHAR
STARTCHAR 0405
ENCODING 1029
SWIDTH 720 0
DWIDTH 18 0
BBX 16 19 1 0
BITMAP
07F8
1FFE
3FFE
7C0E
7802
F800
FC00
7FC0
7FF8
3FFE
1FFE
01FF
003F
801F
E01F
F83E
FFFE
FFF8
1FE0
ENDCHAR
STARTCHAR 0406
ENCODING 1030
SWIDTH 560 0
DWIDTH 14 0
BBX 11 19 1 0
BITMAP
FFE0
FFE0
FFE0
1F00
1F00
1F00
1F00
1F00
1F00
1F00
1F00
1F00
1F00
1F00
1F00
1F00
FFE0
FFE0
FFE0
ENDCHAR
STARTCHAR 0407
ENCODING 1031
SWIDTH 560 0
DWIDTH 14 0
BBX 11 24 1 0
BITMAP
71E0
71E0
71E0
0000
0000
FFE0
FFE0
FFE0
1F00
1F00
1F00
1F00
1F00
1F00
1F00
1F00
1F00
1F00
1F00
1F00
1F00
FFE0
FFE0
FFE0
ENDCHAR
STARTCHAR 0408
ENCODING 1032
SWIDTH 560 0
DWIDTH 14 0
BBX 11 19 1 0
BITMAP
3FE0
3FE0
3FE0
03E0
03E0
03E0
03E0
03E0
03E0
03E0
03E0
03E0
03E0
03E0
03E0
87C0
FFC0
FF80
FE00
ENDCHAR
STARTCHAR 0409
ENCODING 1033
SWIDTH 1240 0
DWIDTH 31 0
BBX 29 19 0 0
BITMAP
07FFE000
0FFFE000
0FFFE000
0F83E000
0F83E000
0F83E000
0F83E000
0F83FFC0
0F83FFF0
0F83FFF8
0F03E0F8
0F03E0F8
0F03E078
1F03E078
1F03E0F8
FE03E1F8
FE03FFF0
FC03FFE0
F003FFC0
ENDCHAR
STARTCHAR 040A
ENCODING 1034
SWIDTH 1200 0
DWIDTH 30 0
BBX 27 19 2 0
BITMAP
F80F0000
F80F0000
F80F0000
F80F0000
F80F0000
F80F0000
F80F0000
FFFFFF00
FFFFFFC0
FFFFFFC0
F80F07E0
F80F03E0
F80F03E0
F80F03E0
F80F03E0
F80F07E0
F80FFFC0
F80FFF80
F80FFE00
ENDCHAR
STARTCHAR 040B
ENCODING 1035
SWIDTH 920 0
DWIDTH 23 0
BBX 22 19 0 0
BITMAP
FFFF00
FFFF00
FFFF00
03E000
03E000
03E000
03E000
03FFE0
03FFF0
03FFF8
03E0F8
03E07C
03E07C
03E07C
03E07C
03E07C
03E07C
03E07C
03E07C
ENDCHAR
STARTCHAR 040C
ENCODING 1036
SWIDTH 760 0
DWIDTH 19 0
BBX 17 26 2 0
BITMAP
00F000
01E000
01C000
038000
078000
000000
000000
F80F00
F83F00
F83F00
F87F00
F87C00
F8F800
F8F000
F9F000
FFE000
FFC000
FFE000
FBF000
F9F800
F8F800
F8FC00
F87E00
F83E00
F81F00
F81F80
ENDCHAR
STARTCHAR 040E
ENCODING 1038
SWIDTH 720 0
DWIDTH 18 0
BBX 18 24 0 0
BITMAP
1E0F00
1E1F00
0FFE00
03F800
000000
F807C0
7C07C0
7C0F80
3E0F80
3E0F00
1F1F00
0F1E00
0FBE00
07BE00
07FC00
03FC00
03F800
01F800
01F000
01F000
3FF000
3FE000
3FC000
3F8000
ENDCHAR
STARTCHAR 040F
ENCODING 1039
SWIDTH 840 0
DWIDTH 21 0
BBX 17 23 2 -4
BITMAP
F80F80
F80F80
F80F80
F80F80
F80F80
F80F80
F80F80
F80F80
F80F80
F80F80
F80F80
F80F80
F80F80
F80F80
F80F80
F80F80
FFFF80
FFFF80
FFFF80
03E000
03E000
03E000
03E000
ENDCHAR
STARTCHAR 0410
ENCODING 1040
SWIDTH 760 0
DWIDTH 19 0
BBX 19 19 0 0
BITMAP
01F800
03F800
03F800
03FC00
07FC00
07BC00
07BE00
0FBE00
0F9E00
0F1F00
1F1F00
1F0F00
1FFF80
3FFF80
3FFFC0
3C07C0
7C07C0
7C03E0
F803E0
ENDCHAR
STARTCHAR 0411
ENCODING 1041
SWIDTH 760 0
DWIDTH 19 0
BBX 16 19 2 0
BITMAP
FFFC
FFFC
FFFC
F800
F800
F800
F800
FFF0
FFFC
FFFE
F83E
F81F
F81F
F81F
F81F
F83E
FFFE
FFFC
FFF0
ENDCHAR
STARTCHAR 0412
ENCODING 1042
SWIDTH 760 0
DWIDTH 19 0
BBX 16 19 2 0
BITMAP
FFF0
FFF8
FFFC
F87E
F83E
F83E
F83C
F87C
FFF8
FFF8
FFFE
F83E
F81F
F81F
F81F
F83E
FFFE
FFFC
FFF0
ENDCHAR
STARTCHAR 0413
ENCODING 1043
SWIDTH 640 0
DWIDTH 16 0
BBX 13 19 2 0
BITMAP
FFF8
FFF8
FFF8
F800
F800
F800
F800
F800
F800
F800
F800
F800
F800
F800
F800
F800
F800
F800
F800
ENDCHAR
STARTCHAR 0414
ENCODING 1044
SWIDTH 840 0
DWIDTH 21 0
BBX 19 23 1 -4
BITMAP
0FFF80
0FFF80
0FFF80
0F0780
0F0780
0F0780
1F0780
1F0780
1E0780
1E0780
1E0780
3E0780
3E0780
3C0780
7C0780
7C0780
FFFFE0
FFFFE0
FFFFE0
F001E0
F001E0
F001E0
F001E0
ENDCHAR
STARTCHAR 0415
ENCODING 1045
SWIDTH 680 0
DWIDTH 17 0
BBX 13 19 2 0
BITMAP
FFF8
FFF8
FFF8
F800
F800
F800
F800
FFF8
FFF8
FFF8
F800
F800
F800
F800
F800
F800
FFF8
FFF8
FFF8
ENDCHAR
STARTCHAR 0416
ENCODING 1046
SWIDTH 1120 0
DWIDTH 28 0
BBX 26 19 1 0
BITMAP
F81E07C0
FC1E0FC0
FE1E1FC0
FE1E1FC0
1E1E1E00
1F1E3E00
0F1E3C00
0F9E7C00
07FFF800
07FFF800
0FFFF800
0F9E7C00
1F9E7E00
1F1E3E00
3E1E3F00
7E1E1F80
7C1E0F80
FC1E0FC0
F81E07C0
ENDCHAR
STARTCHAR 0417
ENCODING 1047
SWIDTH 720 0
DWIDTH 18 0
BBX 15 19 1 0
BITMAP
1FE0
7FF8
7FFC
707E
403E
003E
007C
1FF8
1FE0
1FFC
007E
003E
003E
003E
803E
E07E
FFFC
FFF8
3FE0
ENDCHAR
STARTCHAR 0418
ENCODING 1048
SWIDTH 840 0
DWIDTH 21 0
BBX 17 19 2 0
BITMAP
F80F80
F81F80
F83F80
F83F80
F87F80
F87F80
F8FF80
F9FF80
F9EF80
FBCF80
FFCF80
FF8F80
FF8F80
FF0F80
FE0F80
FE0F80
FC0F80
FC0F80
F80F80
ENDCHAR
STARTCHAR 0419
ENCODING 1049
SWIDTH 840 0
DWIDTH 21 0
BBX 17 24 2 0
BITMAP
3C1E00
3E1E00
1FFC00
07F000
000000
F80F80
F81F80
F83F80
F83F80
F87F80
F87F80
F8FF80
F9FF80
F9EF80
FBCF80
FFCF80
FF8F80
FF8F80
FF0F80
FE0F80
FE0F80
FC0F80
FC0F80
F80F80
ENDCHAR
STARTCHAR 041A
ENCODING 1050
SWIDTH 760 0
DWIDTH 19 0
BBX 17 19 2 0
BITMAP
F80F00
F83F00
F83F00
F87F00
F87C00
F8F800
F8F000
F9F000
FFE000
FFC000
FFE000
FBF000
F9F800
F8F800
F8FC00
F87E00
F83E00
F81F00
F81F80
ENDCHAR
STARTCHAR 041B
ENCODING 1051
SWIDTH 840 0
DWIDTH 21 0
BBX 19 19 0 0
BITMAP
07FFE0
0FFFE0
0FFFE0
0F83E0
0F83E0
0F83E0
0F83E0
0F83E0
0F83E0
0F83E0
0F03E0
0F03E0
0F03E0
1F03E0
1F03E0
FE03E0
FE03E0
FC03E0
F003E0
ENDCHAR
STARTCHAR 041C
ENCODING 1052
SWIDTH 960 0
DWIDTH 24 0
BBX 19 19 2 0
BITMAP
FC03E0
FC07E0
FE07E0
FE0FE0
FF0FE0
FF0FE0
FF1FE0
FF9DE0
FBBDE0
FBFDE0
FBF9E0
F9F9E0
F9F1E0
F8F1E0
F8F1E0
F801E0
F801E0
F801E0
F801E0
ENDCHAR
STARTCHAR 041D
ENCODING 1053
SWIDTH 840 0
DWIDTH 21 0
BBX 17 19 2 0
BITMAP
F80F80
F80F80
F80F80
F80F80
F80F80
F80F80
F80F80
FFFF80
FFFF80
FFFF80
F80F80
F80F80
F80F80
F80F80
F80F80
F80F80
F80F80
F80F80
F80F80
ENDCHAR
STARTCHAR 041E
ENCODING 1054
SWIDTH 840 0
DWIDTH 21 0
BBX 19 19 1 0
BITMAP
03F800
0FFE00
1FFF00
3F0F80
7C07C0
7C07C0
7C03E0
F803E0
F803E0
F803E0
F803E0
F803E0
7C03E0
7C07C0
7C07C0
3F0F80
1FFF00
0FFE00
03F800
ENDCHAR
STARTCHAR 041F
ENCODING 1055
SWIDTH 840 0
DWIDTH 21 0
BBX 17 19 2 0
BITMAP
FFFF80
FFFF80
FFFF80
F80F80
F80F80
F80F80
F80F80
F80F80
F80F80
F80F80
F80F80
F80F80
F80F80
F80F80
F80F80
F80F80
F80F80
F80F80
F80F80
ENDCHAR
STARTCHAR 0420
ENCODING 1056
SWIDTH 720 0
DWIDTH 18 0
BBX 15 19 2 0
BITMAP
FFE0
FFF8
FFFC
F87E
F83E
F83E
F83E
F83E
F83E
F87E
FFFC
FFF8
FFE0
F800
F800
F800
F800
F800
F800
ENDCHAR
STARTCHAR 0421
ENCODING 1057
SWIDTH 720 0
DWIDTH 18 0
BBX 16 19 1 0
BITMAP
03F8
0FFF
1FFF
3F0F
7E03
7C01
7C00
F800
F800
F800
F800
F800
7C00
7C01
7E03
3F0F
1FFF
0FFF
03F8
ENDCHAR
STARTCHAR 0422
ENCODING 1058
SWIDTH 680 0
DWIDTH 17 0
BBX 17 19 0 0
BITMAP
FFFF80
FFFF80
FFFF80
03E000
03E000
03E000
03E000
03E000
03E000
03E000
03E000
03E000
03E000
03E000
03E000
03E000
03E000
03E000
03E000
ENDCHAR
STARTCHAR 0423
ENCODING 1059
SWIDTH 720 0
DWIDTH 18 0
BBX 18 19 0 0
BITMAP
F807C0
7C07C0
7C0F80
3E0F80
3E0F00
1F1F00
0F1E00
0FBE00
07BE00
07FC00
03FC00
03F800
01F800
01F000
01F000
3FF000
3FE000
3FC000
3F8000
ENDCHAR
STARTCHAR 0424
ENCODING 1060
SWIDTH 960 0
DWIDTH 24 0
BBX 22 19 1 0
BITMAP
007800
007800
03FF00
1FFFE0
3FFFF0
7E79F8
7C78F8
F87878
F8787C
F8787C
F8787C
F878F8
7C78F8
7E79F8
3FFFF0
1FFFC0
03FF00
007800
007800
ENDCHAR
STARTCHAR 0425
ENCODING 1061
SWIDTH 760 0
DWIDTH 19 0
BBX 17 19 1 0
BITMAP
F80F80
FC0F80
7C1F00
3E3E00
3F3E00
1F7C00
0FF800
0FF800
07F000
03F000
07F000
0FF800
0FFC00
1F7C00
3E3E00
3E3E00
7C1F00
F81F80
F80F80
ENDCHAR
STARTCHAR 0426
ENCODING 1062
SWIDTH 840 0
DWIDTH 21 0
BBX 18 23 2 -4
BITMAP
F80F80
F80F80
F80F80
F80F80
F80F80
F80F80
F80F80
F80F80
F80F80
F80F80
F80F80
F80F80
F80F80
F80F80
F80F80
F80F80
FFFFC0
FFFFC0
FFFFC0
0003C0
0003C0
0003C0
0003C0
ENDCHAR
STARTCHAR 0427
ENCODING 1063
SWIDTH 800 0
DWIDTH 20 0
BBX 15 19 2 0
BITMAP
F01E
F01E
F01E
F01E
F01E
F01E
F01E
F01E
F81E
FC1E
FFFE
7FFE
1FDE
001E
001E
001E
001E
001E
001E
ENDCHAR
STARTCHAR 0428
ENCODING 1064
SWIDTH 1160 0
DWIDTH 29 0
BBX 25 19 2 0
BITMAP
F83E0F80
F83E0F80
F83E0F80
F83E0F80
F83E0F80
F83E0F80
F83E0F80
F83E0F80
F83E0F80
F83E0F80
F83E0F80
F83E0F80
F83E0F80
F83E0F80
F83E0F80
F83E0F80
FFFFFF80
FFFFFF80
FFFFFF80
ENDCHAR
STARTCHAR 0429
ENCODING 1065
SWIDTH 1160 0
DWIDTH 29 0
BBX 27 23 2 -4
BITMAP
F83E0F80
F83E0F80
F83E0F80
F83E0F80
F83E0F80
F83E0F80
F83E0F80
F83E0F80
F83E0F80
F83E0F80
F83E0F80
F83E0F80
F83E0F80
F83E0F80
F83E0F80
F83E0F80
FFFFFFE0
FFFFFFE0
FFFFFFE0
000003E0
000003E0
000003E0
000003E0
ENDCHAR
STARTCHAR 042A
ENCODING 1066
SWIDTH 920 0
DWIDTH 23 0
BBX 22 19 0 0
BITMAP
FFE000
FFE000
FFE000
03E000
03E000
03E000
03E000
03FFC0
03FFF0
03FFF8
03E0F8
03E0F8
03E07C
03E07C
03E0F8
03E0F8
03FFF0
03FFF0
03FFC0
ENDCHAR
STARTCHAR 042B
ENCODING 1067
SWIDTH 1080 0
DWIDTH 27 0
BBX 22 19 2 0
BITMAP
F8003C
F8003C
F8003C
F8003C
F8003C
F8003C
F8003C
FFF03C
FFFC3C
FFFE3C
F83E3C
F81F3C
F81F3C
F81F3C
F81F3C
F83E3C
FFFE3C
FFFC3C
FFF03C
ENDCHAR
STARTCHAR 042C
ENCODING 1068
SWIDTH 760 0
DWIDTH 19 0
BBX 16 19 2 0
BITMAP
F800
F800
F800
F800
F800
F800
F800
FFF0
FFFC
FFFE
F83E
F81F
F81F
F81F
F81F
F83E
FFFE
FFFC
FFF0
ENDCHAR
STARTCHAR 042D
ENCODING 1069
SWIDTH 760 0
DWIDTH 19 0
BBX 16 19 1 0
BITMAP
1FC0
FFF8
FFFC
F07E
C03E
801F
001F
0FFF
0FFF
0FFF
000F
001F
001F
801F
C03E
F0FC
FFFC
FFF0
1FC0
ENDCHAR
STARTCHAR 042E
ENCODING 1070
SWIDTH 1200 0
DWIDTH 30 0
BBX 27 19 2 0
BITMAP
F803F800
F80FFE00
F81FFF00
F83F1F80
F87C0FC0
F87C07C0
F87807C0
FFF803C0
FFF803E0
FFF803E0
F8F803E0
F8F803C0
F87807C0
F87C07C0
F87C0FC0
F83F1F80
F81FFF00
F80FFE00
F803F800
ENDCHAR
STARTCHAR 042F
ENCODING 1071
SWIDTH 800 0
DWIDTH 20 0
BBX 17 19 1 0
BITMAP
07FF80
1FFF80
3FFF80
7E0F80
7C0F80
7C0F80
7C0F80
7C0F80
3E0F80
3FFF80
0FFF80
0FFF80
0F8F80
1F0F80
3F0F80
3E0F80
7C0F80
FC0F80
F80F80
ENDCHAR
STARTCHAR 0430
ENCODING 1072
SWIDTH 680 0
DWIDTH 17 0
BBX 14 14 1 0
BITMAP
3FE0
7FF0
7FF8
607C
007C
07FC
3FFC
7FFC
FC7C
F87C
F87C
FFFC
7FFC
3F7C
ENDCHAR
STARTCHAR 0431
ENCODING 1073
SWIDTH 680 0
DWIDTH 17 0
BBX 15 20 1 0
BITMAP
01FC
0FFC
1FFC
3F00
3C00
7800
79F0
7FF8
7FFC
F87E
F83E
F81E
F81E
781E
781E
7C3E
3C7C
3FFC
1FF8
07E0
ENDCHAR
STARTCHAR 0432
ENCODING 1074
SWIDTH 680 0
DWIDTH 17 0
BBX 14 14 2 0
BITMAP
FFF0
FFF8
FFF8
F0F8
F0F8
FFF0
FFF0
FFF8
F07C
F07C
F07C
FFF8
FFF8
FFE0
ENDCHAR
STARTCHAR 0433
ENCODING 1075
SWIDTH 520 0
DWIDTH 13 0
BBX 11 14 2 0
BITMAP
FFE0
FFE0
FFE0
F000
F000
F000
F000
F000
F000
F000
F000
F000
F000
F000
ENDCHAR
STARTCHAR 0434
ENCODING 1076
SWIDTH 680 0
DWIDTH 17 0
BBX 16 17 0 -3
BITMAP
0FFE
0FFE
0FFE
1F1E
1E1E
1E1E
1E1E
1E1E
3E1E
3C1E
3C1E
FFFF
FFFF
FFFF
F00F
F00F
F00F
ENDCHAR
STARTCHAR 0435
ENCODING 1077
SWIDTH 680 0
DWIDTH 17 0
BBX 15 14 1 0
BITMAP
07E0
1FF8
3FFC
783C
F83C
FFFE
FFFE
FFFE
F800
F804
7C1C
7FFC
1FFC
07F0
ENDCHAR
STARTCHAR 0436
ENCODING 1078
SWIDTH 1000 0
DWIDTH 25 0
BBX 23 14 1 0
BITMAP
F07C1E
F87C3E
FC7C7E
FE7CFE
1E7CF0
1FFFE0
0FFFE0
0FFFE0
1F7DF0
3E7CF8
3E7CF8
7C7C7C
F87C3C
F87C3E
ENDCHAR
STARTCHAR 0437
ENCODING 1079
SWIDTH 600 0
DWIDTH 15 0
BBX 13 14 1 0
BITMAP
3FC0
FFE0
FFF0
C0F0
00F0
1FE0
1FC0
1FF0
00F0
00F8
C1F8
FFF0
FFE0
3F80
ENDCHAR
STARTCHAR 0438
ENCODING 1080
SWIDTH 720 0
DWIDTH 18 0
BBX 14 14 2 0
BITMAP
F07C
F07C
F0FC
F1FC
F1FC
F3FC
F7BC
FF3C
FF3C
FE3C
FC3C
F83C
F83C
F03C
ENDCHAR
STARTCHAR 0439
ENCODING 1081
SWIDTH 720 0
DWIDTH 18 0
BBX 14 21 2 0
BITMAP
3870
3870
3CF0
1FE0
0FC0
0000
0000
F07C
F07C
F0FC
F1FC
F1FC
F3FC
F7BC
FF3C
FF3C
FE3C
FC3C
F83C
F83C
F03C
ENDCHAR
STARTCHAR 043A
ENCODING 1082
SWIDTH 680 0
DWIDTH 17 0
BBX 14 14 2 0
BITMAP
F03C
F07C
F0FC
F0FC
F1E0
F3E0
FFC0
FFC0
FFE0
F3E0
F1F0
F0F8
F0FC
F07C
ENDCHAR
STARTCHAR 043B
ENCODING 1083
SWIDTH 720 0
DWIDTH 18 0
BBX 16 14 0 0
BITMAP
0FFF
0FFF
0FFF
0F1F
0F1F
1F1F
1F1F
1E1F
1E1F
3E1F
FE1F
FC1F
FC1F
F01F
ENDCHAR
STARTCHAR 043C
ENCODING 1084
SWIDTH 840 0
DWIDTH 21 0
BBX 17 14 2 0
BITMAP
F80F80
FC1F80
FC1F80
FE3F80
FE7F80
FF7F80
F7FF80
F7EF80
F3EF80
F1CF80
F1CF80
F00F80
F00F80
F00F80
ENDCHAR
STARTCHAR 043D
ENCODING 1085
SWIDTH 720 0
DWIDTH 18 0
BBX 14 14 2 0
BITMAP
F03C
F03C
F03C
F03C
F03C
FFFC
FFFC
FFFC
F03C
F03C
F03C
F03C
F03C
F03C
ENDCHAR
STARTCHAR 043E
ENCODING 1086
SWIDTH 680 0
DWIDTH 17 0
BBX 15 14 1 0
BITMAP
0FE0
3FF8
7FFC
7C7C
F83E
F83E
F81E
F81E
F83E
F83E
7C7C
7FFC
3FF8
0FE0
ENDCHAR
STARTCHAR 043F
ENCODING 1087
SWIDTH 720 0
DWIDTH 18 0
BBX 14 14 2 0
BITMAP
FFFC
FFFC
FFFC
F03C
F03C
F03C
F03C
F03C
F03C
F03C
F03C
F03C
F03C
F03C
ENDCHAR
STARTCHAR 0440
ENCODING 1088
SWIDTH 680 0
DWIDTH 17 0
BBX 14 19 2 -5
BITMAP
F3E0
FFF8
FFF8
F87C
F07C
F03C
F03C
F03C
F03C
F07C
F0FC
FFF8
FFF0
F7E0
F000
F000
F000
F000
F000
ENDCHAR
STARTCHAR 0441
ENCODING 1089
SWIDTH 600 0
DWIDTH 15 0
BBX 13 14 1 0
BITMAP
07E0
1FF8
3FF8
7C38
F808
F800
F800
F800
F800
F808
7C38
3FF8
1FF8
07E0
ENDCHAR
STARTCHAR 0442
ENCODING 1090
SWIDTH 520 0
DWIDTH 13 0
BBX 13 14 0 0
BITMAP
FFF8
FFF8
FFF8
0F80
0F80
0F80
0F80
0F80
0F80
0F80
0F80
0F80
0F80
0F80
ENDCHAR
STARTCHAR 0443
ENCODING 1091
SWIDTH 640 0
DWIDTH 16 0
BBX 15 19 1 -5
BITMAP
F03E
F83C
F83C
787C
7C78
7CF8
3CF0
3EF0
1FF0
1FE0
1FE0
0FC0
0FC0
07C0
0F80
0F80
0F00
1F00
1E00
ENDCHAR
STARTCHAR 0444
ENCODING 1092
SWIDTH 960 0
DWIDTH 24 0
BBX 22 25 1 -5
BITMAP
007800
007800
007800
007800
007800
007800
0F7BE0
3FFFF0
7FFFF8
7C78FC
F8787C
F8787C
F8783C
F8783C
F8787C
F8787C
7C78F8
7FFFF8
3FFFF0
1FFBC0
007800
007800
007800
007800
007800
ENDCHAR
STARTCHAR 0445
ENCODING 1093
SWIDTH 680 0
DWIDTH 17 0
BBX 15 14 1 0
BITMAP
F83E
7C7C
7C78
3EF8
1FF0
0FE0
0FC0
0FC0
0FE0
1FF0
3EF8
7C7C
F87C
F83E
ENDCHAR
STARTCHAR 0446
ENCODING 1094
SWIDTH 720 0
DWIDTH 18 0
BBX 15 17 2 -3
BITMAP
F07C
F07C
F07C
F07C
F07C
F07C
F07C
F07C
F07C
F07C
F07C
FFFE
FFFE
FFFE
001E
001E
001E
ENDCHAR
STARTCHAR 0447
ENCODING 1095
SWIDTH 680 0
DWIDTH 17 0
BBX 14 14 1 0
BITMAP
F83C
F83C
F83C
F83C
F83C
F83C
FC3C
7FFC
7FFC
1FBC
003C
003C
003C
003C
ENDCHAR
STARTCHAR 0448
ENCODING 1096
SWIDTH 1000 0
DWIDTH 25 0
BBX 21 14 2 0
BITMAP
F0F878
F0F878
F0F878
F0F878
F0F878
F0F878
F0F878
F0F878
F0F878
F0F878
F0F878
FFFFF8
FFFFF8
FFFFF8
ENDCHAR
STARTCHAR 0449
ENCODING 1097
SWIDTH 1000 0
DWIDTH 25 0
BBX 22 17 2 -3
BITMAP
F0F878
F0F878
F0F878
F0F878
F0F878
F0F878
F0F878
F0F878
F0F878
F0F878
F0F878
FFFFFC
FFFFFC
FFFFFC
00003C
00003C
00003C
ENDCHAR
STARTCHAR 044A
ENCODING 1098
SWIDTH 760 0
DWIDTH 19 0
BBX 18 14 0 0
BITMAP
FF8000
FF8000
FF8000
0F8000
0F8000
0FFE00
0FFF80
0FFF80
0F87C0
0F87C0
0F87C0
0FFF80
0FFF80
0FFE00
ENDCHAR
STARTCHAR 044B
ENCODING 1099
SWIDTH 920 0
DWIDTH 23 0
BBX 19 14 2 0
BITMAP
F001E0
F001E0
F001E0
F001E0
F001E0
FFE1E0
FFF1E0
FFF9E0
F0F9E0
F079E0
F0F9E0
FFF9E0
FFF1E0
FFE1E0
ENDCHAR
STARTCHAR 044C
ENCODING 1100
SWIDTH 640 0
DWIDTH 16 0
BBX 13 14 2 0
BITMAP
F000
F000
F000
F000
F000
FFE0
FFF0
FFF8
F0F8
F078
F0F8
FFF8
FFF0
FFE0
ENDCHAR
STARTCHAR 044D
ENCODING 1101
SWIDTH 600 0
DWIDTH 15 0
BBX 13 14 1 0
BITMAP
3F80
FFE0
FFF0
E0F0
8078
1FF8
1FF8
1FF8
0078
00F8
C1F0
FFE0
FFC0
7F00
ENDCHAR
STARTCHAR 044E
ENCODING 1102
SWIDTH 1000 0
DWIDTH 25 0
BBX 22 14 2 0
BITMAP
F01FC0
F07FE0
F0FFF0
F0F8F8
F1F078
FFF07C
FFE07C
FFE07C
F1F07C
F1F078
F0F8F8
F0FFF0
F07FE0
F01FC0
ENDCHAR
STARTCHAR 044F
ENCODING 1103
SWIDTH 680 0
DWIDTH 17 0
BBX 14 14 1 0
BITMAP
1FFC
3FFC
7FFC
783C
783C
783C
7FFC
3FFC
1FFC
1E3C
3E3C
7C3C
F83C
F83C
ENDCHAR
STARTCHAR 0451
ENCODING 1105
SWIDTH 680 0
DWIDTH 17 0
BBX 15 19 1 0
BITMAP
1C78
1C78
1C78
0000
0000
07E0
1FF8
3FFC
783C
F83C
FFFE
FFFE
FFFE
F800
F804
7C1C
7FFC
1FFC
07F0
ENDCHAR
STARTCHAR 0452
ENCODING 1106
SWIDTH 720 0
DWIDTH 18 0
BBX 16 25 0 -5
BITMAP
3C00
3C00
FFC0
FFC0
FFC0
3C00
3C78
3DFE
3FFE
3FFF
3E1F
3C1F
3C1F
3C1F
3C1F
3C1F
3C1F
3C1F
3C1F
3C1F
001E
003E
01FC
01FC
01F0
ENDCHAR
STARTCHAR 0453
ENCODING 1107
SWIDTH 520 0
DWIDTH 13 0
BBX 11 21 2 0
BITMAP
03C0
0780
0700
0E00
1E00
0000
0000
FFE0
FFE0
FFE0
F000
F000
F000
F000
F000
F000
F000
F000
F000
F000
F000
ENDCHAR
STARTCHAR 0454
ENCODING 1108
SWIDTH 600 0
DWIDTH 15 0
BBX 13 14 1 0
BITMAP
07E0
1FF8
3FF8
7C38
F808
FFE0
FFE0
FFE0
F000
F800
7C18
3FF8
1FF8
07F0
ENDCHAR
STARTCHAR 0455
ENCODING 1109
SWIDTH 600 0
DWIDTH 15 0
BBX 13 14 1 0
BITMAP
0FE0
3FF0
7FF0
F810
F800
FF80
7FE0
3FF0
0FF8
80F8
E0F8
FFF0
FFE0
3F80
ENDCHAR
STARTCHAR 0456
ENCODING 1110
SWIDTH 360 0
DWIDTH 9 0
BBX 5 20 2 0
BITMAP
F8
F8
F8
00
00
00
F0
F0
F0
F0
F0
F0
F0
F0
F0
F0
F0
F0
F0
F0
ENDCHAR
STARTCHAR 0457
ENCODING 1111
SWIDTH 360 0
DWIDTH 9 0
BBX 9 19 0 0
BITMAP
E780
E780
E780
0000
0000
3C00
3C00
3C00
3C00
3C00
3C00
3C00
3C00
3C00
3C00
3C00
3C00
3C00
3C00
ENDCHAR
STARTCHAR 0458
ENCODING 1112
SWIDTH 400 0
DWIDTH 10 0
BBX 9 25 -1 -5
BITMAP
0F80
0F80
0F80
0000
0000
0000
3F80
3F80
3F80
0780
0780
0780
0780
0780
0780
0780
0780
0780
0780
0780
0F80
0F80
FF00
FF00
FC00
ENDCHAR
STARTCHAR 0459
ENCODING 1113
SWIDTH 1000 0
DWIDTH 25 0
BBX 24 14 0 0
BITMAP
0FFF00
0FFF00
0FFF00
0F1F00
0F1F00
1F1FFC
1F1FFE
1E1FFF
1E1F0F
3E1F0F
FE1F0F
FC1FFF
FC1FFE
F01FFC
ENDCHAR
STARTCHAR 045A
ENCODING 1114
SWIDTH 1000 0
DWIDTH 25 0
BBX 23 14 2 0
BITMAP
F07C00
F07C00
F07C00
F07C00
F07C00
FFFFF0
FFFFFC
FFFFFC
F07C3E
F07C3E
F07C3E
F07FFC
F07FF8
F07FF0
ENDCHAR
STARTCHAR 045B
ENCODING 1115
SWIDTH 720 0
DWIDTH 18 0
BBX 16 20 0 0
BITMAP
3C00
3C00
FFC0
FFC0
FFC0
3C00
3C78
3DFE
3FFE
3FFF
3E1F
3C1F
3C1F
3C1F
3C1F
3C1F
3C1F
3C1F
3C1F
3C1F
ENDCHAR
STARTCHAR 045C
ENCODING 1116
SWIDTH 680 0
DWIDTH 17 0
BBX 14 21 2 0
BITMAP
01E0
03E0
03C0
0780
0700
0000
0000
F03C
F07C
F0FC
F0FC
F1E0
F3E0
FFC0
FFC0
FFE0
F3E0
F1F0
F0F8
F0FC
F07C
ENDCHAR
STARTCHAR 045E
ENCODING 1118
SWIDTH 640 0
DWIDTH 16 0
BBX 15 26 1 -5
BITMAP
3878
3878
3C70
1FE0
07C0
0000
0000
F03E
F83C
F83C
787C
7C78
7CF8
3CF0
3EF0
1FF0
1FE0
1FE0
0FC0
0FC0
07C0
0F80
0F80
0F00
1F00
1E00
ENDCHAR
STARTCHAR 045F
ENCODING 1119
SWIDTH 720 0
DWIDTH 18 0
BBX 14 17 2 -3
BITMAP
F03C
F03C
F03C
F03C
F03C
F03C
F03C
F03C
F03C
F03C
F03C
FFFC
FFFC
FFFC
0780
0780
0780
ENDCHAR
STARTCHAR 0490
ENCODING 1168
SWIDTH 640 0
DWIDTH 16 0
BBX 13 24 2 0
BITMAP
0078
0078
0078
0078
0078
FFF8
FFF8
FFF8
F800
F800
F800
F800
F800
F800
F800
F800
F800
F800
F800
F800
F800
F800
F800
F800
ENDCHAR
STARTCHAR 0491
ENCODING 1169
SWIDTH 520 0
DWIDTH 13 0
BBX 11 19 2 0
BITMAP
01E0
01E0
01E0
01E0
01E0
FFE0
FFE0
FFE0
F000
F000
F000
F000
F000
F000
F000
F000
F000
F000
F000
ENDCHAR
STARTCHAR 1E80
ENCODING 7808
SWIDTH 1120 0
DWIDTH 28 0
BBX 26 26 1 0
BITMAP
00780000
003C0000
001C0000
000E0000
00070000
00000000
00000000
F81F03C0
F83F07C0
F83F07C0
783F07C0
7C3F8780
7C7F8F80
7C7F8F80
3C7F8F00
3E7BCF00
3EF3DF00
1EF3DF00
1EF3DE00
1EF1FE00
1FE1FE00
0FE1FE00
0FE1FC00
0FE0FC00
0FC0FC00
07C0FC00
ENDCHAR
STARTCHAR 1E81
ENCODING 7809
SWIDTH 960 0
DWIDTH 24 0
BBX 23 21 1 0
BITMAP
01E000
00F000
007000
007800
003C00
000000
000000
F0783E
F87C3C
F87C3C
78FC3C
78FE7C
78EE78
7DEE78
3DCE78
3DCFF0
3DC7F0
1FC7F0
1F87E0
1F83E0
0F83E0
ENDCHAR
STARTCHAR 1E82
ENCODING 7810
SWIDTH 1120 0
DWIDTH 28 0
BBX 26 26 1 0
BITMAP
00078000
000F8000
000F0000
001E0000
001C0000
00000000
00000000
F81F03C0
F83F07C0
F83F07C0
783F07C0
7C3F8780
7C7F8F80
7C7F8F80
3C7F8F00
3E7BCF00
3EF3DF00
1EF3DF00
1EF3DE00
1EF1FE00
1FE1FE00
0FE1FE00
0FE1FC00
0FE0FC00
0FC0FC00
07C0FC00
ENDCHAR
STARTCHAR 1E83
ENCODING 7811
SWIDTH 960 0
DWIDTH 24 0
BBX 23 21 1 0
BITMAP
000F00
001E00
003C00
003800
007000
000000
000000
F0783E
F87C3C
F87C3C
78FC3C
78FE7C
78EE78
7DEE78
3DCE78
3DCFF0
3DC7F0
1FC7F0
1F87E0
1F83E0
0F83E0
ENDCHAR
STARTCHAR 1E84
ENCODING 7812
SWIDTH 1120 0
DWIDTH 28 0
BBX 26 24 1 0
BITMAP
00F1C000
00F1C000
00F1C000
00000000
00000000
F81F03C0
F83F07C0
F83F07C0
783F07C0
7C3F8780
7C7F8F80
7C7F8F80
3C7F8F00
3E7BCF00
3EF3DF00
1EF3DF00
1EF3DE00
1EF1FE00
1FE1FE00
0FE1FE00
0FE1FC00
0FE0FC00
0FC0FC00
07C0FC00
ENDCHAR
STARTCHAR 1E85
ENCODING 7813
SWIDTH 960 0
DWIDTH 24 0
BBX 23 19 1 0
BITMAP
03C700
03C700
03C700
000000
000000
F0783E
F87C3C
F87C3C
78FC3C
78FE7C
78EE78
7DEE78
3DCE78
3DCFF0
3DC7F0
1FC7F0
1F87E0
1F83E0
0F83E0
ENDCHAR
STARTCHAR 1EA0
ENCODING 7840
SWIDTH 760 0
DWIDTH 19 0
BBX 19 24 0 -5
BITMAP
01F800
03F800
03F800
03FC00
07FC00
07BC00
07BE00
0FBE00
0F9E00
0F1F00
1F1F00
1F0F00
1FFF80
3FFF80
3FFFC0
3C07C0
7C07C0
7C03E0
F803E0
000000
000000
01F000
01F000
01F000
ENDCHAR
STARTCHAR 1EA1
ENCODING 7841
SWIDTH 680 0
DWIDTH 17 0
BBX 14 19 1 -5
BITMAP
3FE0
7FF0
7FF8
607C
007C
07FC
3FFC
7FFC
FC7C
F87C
F87C
FFFC
7FFC
3F7C
0000
0000
0780
0780
0780
ENDCHAR
STARTCHAR 1EA2
ENCODING 7842
SWIDTH 760 0
DWIDTH 19 0
BBX 19 26 0 0
BITMAP
00E000
003000
003000
007000
00E000
000000
000000
01F800
03F800
03F800
03FC00
07FC00
07BC00
07BE00
0FBE00
0F9E00
0F1F00
1F1F00
1F0F00
1FFF80
3FFF80
3FFFC0
3C07C0
7C07C0
7C03E0
F803E0
ENDCHAR
STARTCHAR 1EA3
ENCODING 7843
SWIDTH 680 0
DWIDTH 17 0
BBX 14 21 1 0
BITMAP
0780
0180
01C0
0380
0380
0000
0000
3FE0
7FF0
7FF8
607C
007C
07FC
3FFC
7FFC
FC7C
F87C
F87C
FFFC
7FFC
3F7C
ENDCHAR
STARTCHAR 1EA4
ENCODING 7844
SWIDTH 760 0
DWIDTH 19 0
BBX 19 25 0 0
BITMAP
00F0E0
01F0C0
03B980
079C00
070E00
000000
01F800
03F800
03F800
03FC00
07FC00
07BC00
07BE00
0FBE00
0F9E00
0F1F00
1F1F00
1F0F00
1FFF80
3FFF80
3FFFC0
3C07C0
7C07C0
7C03E0
F803E0
ENDCHAR
STARTCHAR 1EA5
ENCODING 7845
SWIDTH 680 0
DWIDTH 17 0
BBX 16 21 1 0
BITMAP
0787
0FC7
0FEE
1CE0
3870
0000
0000
3FE0
7FF0
7FF8
607C
007C
07FC
3FFC
7FFC
FC7C
F87C
F87C
FFFC
7FFC
3F7C
ENDCHAR
STARTCHAR 1EA6
ENCODING 7846
SWIDTH 760 0
DWIDTH 19 0
BBX 19 25 0 0
BITMAP
E0F000
71F000
33B800
079C00
070E00
000000
01F800
03F800
03F800
03FC00
07FC00
07BC00
07BE00
0FBE00
0F9E00
0F1F00
1F1F00
1F0F00
1FFF80
3FFF80
3FFFC0
3C07C0
7C07C0
7C03E0
F803E0
ENDCHAR
STARTCHAR 1EA7
ENCODING 7847
SWIDTH 680 0
DWIDTH 17 0
BBX 16 21 -1 0
BITMAP
E1E0
E3F0
73F8
0738
0E1C
0000
0000
0FF8
1FFC
1FFE
181F
001F
01FF
0FFF
1FFF
3F1F
3E1F
3E1F
3FFF
1FFF
0FDF
ENDCHAR
STARTCHAR 1EA8
ENCODING 7848
SWIDTH 760 0
DWIDTH 19 0
BBX 19 25 0 0
BITMAP
0001C0
00F0E0
01F860
03BCE0
071FC0
000000
01F800
03F800
03F800
03FC00
07FC00
07BC00
07BE00
0FBE00
0F9E00
0F1F00
1F1F00
1F0F00
1FFF80
3FFF80
3FFFC0
3C07C0
7C07C0
7C03E0
F803E0
ENDCHAR
STARTCHAR 1EA9
ENCODING 7849
SWIDTH 680 0
DWIDTH 17 0
BBX 15 24 1 0
BITMAP
001C
0006
0006
078E
0FCE
0FE0
1CE0
3870
0000
0000
3FE0
7FF0
7FF8
607C
007C
07FC
3FFC
7FFC
FC7C
F87C
F87C
FFFC
7FFC
3F7C
ENDCHAR
STARTCHAR 1EAA
ENCODING 7850
SWIDTH 760 0
DWIDTH 19 0
BBX 19 26 0 0
BITMAP
03CC00
03FC00
063800
000000
01F000
03BC00
000000
01F800
03F800
03F800
03FC00
07FC00
07BC00
07BE00
0FBE00
0F9E00
0F1F00
1F1F00
1F0F00
1FFF80
3FFF80
3FFFC0
3C07C0
7C07C0
7C03E0
F803E0
ENDCHAR
STARTCHAR 1EAB
ENCODING 7851
SWIDTH 680 0
DWIDTH 17 0
BBX 14 26 1 0
BITMAP
1E30
3FF0
3FF0
31E0
0000
0780
0FC0
0FE0
1CE0
3870
0000
0000
3FE0
7FF0
7FF8
607C
007C
07FC
3FFC
7FFC
FC7C
F87C
F87C
FFFC
7FFC
3F7C
ENDCHAR
STARTCHAR 1EAC
ENCODING 7852
SWIDTH 760 0
DWIDTH 19 0
BBX 19 30 0 -5
BITMAP
00F000
01F000
03B800
079C00
070E00
000000
01F800
03F800
03F800
03FC00
07FC00
07BC00
07BE00
0FBE00
0F9E00
0F1F00
1F1F00
1F0F00
1FFF80
3FFF80
3FFFC0
3C07C0
7C07C0
7C03E0
F803E0
000000
000000
01F000
01F000
01F000
ENDCHAR
STARTCHAR 1EAD
ENCODING 7853
SWIDTH 680 0
DWIDTH 17 0
BBX 14 26 1 -5
BITMAP
0780
0FC0
0FE0
1CE0
3870
0000
0000
3FE0
7FF0
7FF8
607C
007C
07FC
3FFC
7FFC
FC7C
F87C
F87C
FFFC
7FFC
3F7C
0000
0000
0780
0780
0780
ENDCHAR
STARTCHAR 1EAE
ENCODING 7854
SWIDTH 760 0
DWIDTH 19 0
BBX 19 26 0 0
BITMAP
003800
007000
006000
071C00
03FC00
01F000
000000
01F800
03F800
03F800
03FC00
07FC00
07BC00
07BE00
0FBE00
0F9E00
0F1F00
1F1F00
1F0F00
1FFF80
3FFF80
3FFFC0
3C07C0
7C07C0
7C03E0
F803E0
ENDCHAR
STARTCHAR 1EAF
ENCODING 7855
SWIDTH 680 0
DWIDTH 17 0
BBX 14 23 1 0
BITMAP
01C0
0380
0300
3870
3870
1CE0
1FE0
0780
0000
3FE0
7FF0
7FF8
607C
007C
07FC
3FFC
7FFC
FC7C
F87C
F87C
FFFC
7FFC
3F7C
ENDCHAR
STARTCHAR 1EB0
ENCODING 7856
SWIDTH 760 0
DWIDTH 19 0
BBX 19 26 0 0
BITMAP
01C000
00C000
00E000
071C00
03FC00
01F000
000000
01F800
03F800
03F800
03FC00
07FC00
07BC00
07BE00
0FBE00
0F9E00
0F1F00
1F1F00
1F0F00
1FFF80
3FFF80
3FFFC0
3C07C0
7C07C0
7C03E0
F803E0
ENDCHAR
STARTCHAR 1EB1
ENCODING 7857
SWIDTH 680 0
DWIDTH 17 0
BBX 14 23 1 0
BITMAP
0E00
0700
0300
3870
3870
1CE0
1FE0
0780
0000
3FE0
7FF0
7FF8
607C
007C
07FC
3FFC
7FFC
FC7C
F87C
F87C
FFFC
7FFC
3F7C
ENDCHAR
STARTCHAR 1EB2
ENCODING 7858
SWIDTH 760 0
DWIDTH 19 0
BBX 19 26 0 0
BITMAP
00E000
002000
002000
075C00
03FC00
01F000
000000
01F800
03F800
03F800
03FC00
07FC00
07BC00
07BE00
0FBE00
0F9E00
0F1F00
1F1F00
1F0F00
1FFF80
3FFF80
3FFFC0
3C07C0
7C07C0
7C03E0
F803E0
ENDCHAR
STARTCHAR 1EB3
ENCODING 7859
SWIDTH 680 0
DWIDTH 17 0
BBX 14 25 1 0
BITMAP
0780
01C0
01C0
01C0
0380
3870
3870
1CE0
1FE0
0780
0000
3FE0
7FF0
7FF8
607C
007C
07FC
3FFC
7FFC
FC7C
F87C
F87C
FFFC
7FFC
3F7C
ENDCHAR
STARTCHAR 1EB4
ENCODING 7860
SWIDTH 760 0
DWIDTH 19 0
BBX 19 25 0 0
BITMAP
03CC00
063800
000000
071C00
03F800
000000
01F800
03F800
03F800
03FC00
07FC00
07BC00
07BE00
0FBE00
0F9E00
0F1F00
1F1F00
1F0F00
1FFF80
3FFF80
3FFFC0
3C07C0
7C07C0
7C03E0
F803E0
ENDCHAR
STARTCHAR 1EB5
ENCODING 7861
SWIDTH 680 0
DWIDTH 17 0
BBX 14 25 1 0
BITMAP
1E30
3FF0
3FF0
31E0
0000
3870
3870
1CE0
1FE0
0780
0000
3FE0
7FF0
7FF8
607C
007C
07FC
3FFC
7FFC
FC7C
F87C
F87C
FFFC
7FFC
3F7C
ENDCHAR
STARTCHAR 1EB6
ENCODING 7862
SWIDTH 760 0
DWIDTH 19 0
BBX 19 30 0 -5
BITMAP
070C00
071C00
071C00
03F800
01F000
000000
01F800
03F800
03F800
03FC00
07FC00
07BC00
07BE00
0FBE00
0F9E00
0F1F00
1F1F00
1F0F00
1FFF80
3FFF80
3FFFC0
3C07C0
7C07C0
7C03E0
F803E0
000000
000000
01F000
01F000
01F000
ENDCHAR
STARTCHAR 1EB7
ENCODING 7863
SWIDTH 680 0
DWIDTH 17 0
BBX 14 25 1 -5
BITMAP
3870
3870
1CE0
1FE0
0780
0000
3FE0
7FF0
7FF8
607C
007C
07FC
3FFC
7FFC
FC7C
F87C
F87C
FFFC
7FFC
3F7C
0000
0000
0780
0780
0780
ENDCHAR
STARTCHAR 1EB8
ENCODING 7864
SWIDTH 680 0
DWIDTH 17 0
BBX 13 24 2 -5
BITMAP
FFF8
FFF8
FFF8
F800
F800
F800
F800
FFF8
FFF8
FFF8
F800
F800
F800
F800
F800
F800
FFF8
FFF8
FFF8
0000
0000
0780
0780
0780
ENDCHAR
STARTCHAR 1EB9
ENCODING 7865
SWIDTH 680 0
DWIDTH 17 0
BBX 15 19 1 -5
BITMAP
07E0
1FF8
3FFC
783C
F83C
FFFE
FFFE
FFFE
F800
F804
7C1C
7FFC
1FFC
07F0
0000
0000
07C0
07C0
07C0
ENDCHAR
STARTCHAR 1EBA
ENCODING 7866
SWIDTH 680 0
DWIDTH 17 0
BBX 13 26 2 0
BITMAP
0700
0380
0180
0380
0700
0000
0000
FFF8
FFF8
FFF8
F800
F800
F800
F800
FFF8
FFF8
FFF8
F800
F800
F800
F800
F800
F800
FFF8
FFF8
FFF8
ENDCHAR
STARTCHAR 1EBB
ENCODING 7867
SWIDTH 680 0
DWIDTH 17 0
BBX 15 21 1 0
BITMAP
0380
01C0
00C0
01C0
0380
0000
0000
07E0
1FF8
3FFC
783C
F83C
FFFE
FFFE
FFFE
F800
F804
7C1C
7FFC
1FFC
07F0
ENDCHAR
STARTCHAR 1EBC
ENCODING 7868
SWIDTH 680 0
DWIDTH 17 0
BBX 13 25 2 0
BITMAP
1E30
3FF0
3FF0
71E0
0000
0000
FFF8
FFF8
FFF8
F800
F800
F800
F800
FFF8
FFF8
FFF8
F800
F800
F800
F800
F800
F800
FFF8
FFF8
FFF8
ENDCHAR
STARTCHAR 1EBD
ENCODING 7869
SWIDTH 680 0
DWIDTH 17 0
BBX 15 20 1 0
BITMAP
0F38
1FF8
3FF0
38E0
0000
0000
07E0
1FF8
3FFC
783C
F83C
FFFE
FFFE
FFFE
F800
F804
7C1C
7FFC
1FFC
07F0
ENDCHAR
STARTCHAR 1EBE
ENCODING 7870
SWIDTH 680 0
DWIDTH 17 0
BBX 16 26 2 0
BITMAP
0787
0FC7
1FCE
1CE0
3870
0000
0000
FFF8
FFF8
FFF8
F800
F800
F800
F800
FFF8
FFF8
FFF8
F800
F800
F800
F800
F800
F800
FFF8
FFF8
FFF8
ENDCHAR
STARTCHAR 1EBF
ENCODING 7871
SWIDTH 680 0
DWIDTH 17 0
BBX 17 21 1 0
BITMAP
03C380
07C300
0EE600
1E7000
1C7800
000000
000000
07E000
1FF800
3FFC00
783C00
F83C00
FFFE00
FFFE00
FFFE00
F80000
F80400
7C1C00
7FFC00
1FFC00
07F000
ENDCHAR
STARTCHAR 1EC0
ENCODING 7872
SWIDTH 680 0
DWIDTH 17 0
BBX 16 26 -1 0
BITMAP
E0F0
71F8
3BF8
039C
070E
0000
0000
1FFF
1FFF
1FFF
1F00
1F00
1F00
1F00
1FFF
1FFF
1FFF
1F00
1F00
1F00
1F00
1F00
1F00
1FFF
1FFF
1FFF
ENDCHAR
STARTCHAR 1EC1
ENCODING 7873
SWIDTH 680 0
DWIDTH 17 0
BBX 17 21 -1 0
BITMAP
E0F000
71F000
33B800
079C00
071E00
000000
000000
01F800
07FE00
0FFF00
1E0F00
3E0F00
3FFF80
3FFF80
3FFF80
3E0000
3E0100
1F0700
1FFF00
07FF00
01FC00
ENDCHAR
STARTCHAR 1EC2
ENCODING 7874
SWIDTH 680 0
DWIDTH 17 0
BBX 16 25 2 0
BITMAP
000E
0783
0FC3
1DE7
38F7
0000
FFF8
FFF8
FFF8
F800
F800
F800
F800
FFF8
FFF8
FFF8
F800
F800
F800
F800
F800
F800
FFF8
FFF8
FFF8
ENDCHAR
STARTCHAR 1EC3
ENCODING 7875
SWIDTH 680 0
DWIDTH 17 0
BBX 16 24 1 0
BITMAP
001E
0007
0007
03C7
07CE
0EE0
1E70
1C78
0000
0000
07E0
1FF8
3FFC
783C
F83C
FFFE
FFFE
FFFE
F800
F804
7C1C
7FFC
1FFC
07F0
ENDCHAR
STARTCHAR 1EC4
ENCODING 7876
SWIDTH 680 0
DWIDTH 17 0
BBX 13 26 2 0
BITMAP
0E60
1FE0
39C0
0000
0780
1CE0
0000
FFF8
FFF8
FFF8
F800
F800
F800
F800
FFF8
FFF8
FFF8
F800
F800
F800
F800
F800
F800
FFF8
FFF8
FFF8
ENDCHAR
STARTCHAR 1EC5
ENCODING 7877
SWIDTH 680 0
DWIDTH 17 0
BBX 15 26 1 0
BITMAP
0F38
1FF8
3FF0
38E0
0000
03C0
07C0
0EE0
1E70
1C78
0000
0000
07E0
1FF8
3FFC
783C
F83C
FFFE
FFFE
FFFE
F800
F804
7C1C
7FFC
1FFC
07F0
ENDCHAR
STARTCHAR 1EC6
ENCODING 7878
SWIDTH 680 0
DWIDTH 17 0
BBX 13 31 2 -5
BITMAP
0780
0FC0
1FC0
1CE0
3870
0000
0000
FFF8
FFF8
FFF8
F800
F800
F800
F800
FFF8
FFF8
FFF8
F800
F800
F800
F800
F800
F800
FFF8
FFF8
FFF8
0000
0000
0780
0780
0780
ENDCHAR
STARTCHAR 1EC7
ENCODING 7879
SWIDTH 680 0
DWIDTH 17 0
BBX 15 26 1 -5
BITMAP
03C0
07C0
0EE0
1E70
1C78
0000
0000
07E0
1FF8
3FFC
783C
F83C
FFFE
FFFE
FFFE
F800
F804
7C1C
7FFC
1FFC
07F0
0000
0000
07C0
07C0
07C0
ENDCHAR
STARTCHAR 1EC8
ENCODING 7880
SWIDTH 560 0
DWIDTH 14 0
BBX 11 26 1 0
BITMAP
0E00
0300
0300
0700
0700
0000
0000
FFE0
FFE0
FFE0
1F00
1F00
1F00
1F00
1F00
1F00
1F00
1F00
1F00
1F00
1F00
1F00
1F00
FFE0
FFE0
FFE0
ENDCHAR
STARTCHAR 1EC9
ENCODING 7881
SWIDTH 360 0
DWIDTH 9 0
BBX 5 21 2 0
BITMAP
F0
38
38
38
70
00
00
F0
F0
F0
F0
F0
F0
F0
F0
F0
F0
F0
F0
F0
F0
ENDCHAR
STARTCHAR 1ECA
ENCODING 7882
SWIDTH 560 0
DWIDTH 14 0
BBX 11 24 1 -5
BITMAP
FFE0
FFE0
FFE0
1F00
1F00
1F00
1F00
1F00
1F00
1F00
1F00
1F00
1F00
1F00
1F00
1F00
FFE0
FFE0
FFE0
0000
0000
0F00
0F00
0F00
ENDCHAR
STARTCHAR 1ECB
ENCODING 7883
SWIDTH 360 0
DWIDTH 9 0
BBX 5 25 2 -5
BITMAP
F8
F8
F8
00
00
00
F0
F0
F0
F0
F0
F0
F0
F0
F0
F0
F0
F0
F0
F0
00
00
F8
F8
F8
ENDCHAR
STARTCHAR 1ECC
ENCODING 7884
SWIDTH 840 0
DWIDTH 21 0
BBX 19 24 1 -5
BITMAP
03F800
0FFE00
1FFF00
3F0F80
7C07C0
7C07C0
7C03E0
F803E0
F803E0
F803E0
F803E0
F803E0
7C03E0
7C07C0
7C07C0
3F0F80
1FFF00
0FFE00
03F800
000000
000000
01F000
01F000
01F000
ENDCHAR
STARTCHAR 1ECD
ENCODING 7885
SWIDTH 680 0
DWIDTH 17 0
BBX 15 19 1 -5
BITMAP
0FE0
3FF8
7FFC
7C7C
F83E
F83E
F81E
F81E
F83E
F83E
7C7C
7FFC
3FF8
0FE0
0000
0000
07C0
07C0
07C0
ENDCHAR
STARTCHAR 1ECE
ENCODING 7886
SWIDTH 840 0
DWIDTH 21 0
BBX 19 26 1 0
BITMAP
00E000
007000
003000
007000
00E000
000000
000000
03F800
0FFE00
1FFF00
3F0F80
7C07C0
7C07C0
7C03E0
F803E0
F803E0
F803E0
F803E0
F803E0
7C03E0
7C07C0
7C07C0
3F0F80
1FFF00
0FFE00
03F800
ENDCHAR
STARTCHAR 1ECF
ENCODING 7887
SWIDTH 680 0
DWIDTH 17 0
BBX 15 21 1 0
BITMAP
0780
01C0
01C0
01C0
0380
0000
0000
0FE0
3FF8
7FFC
7C7C
F83E
F83E
F81E
F81E
F83E
F83E
7C7C
7FFC
3FF8
0FE0
ENDCHAR
STARTCHAR 1ED0
ENCODING 7888
SWIDTH 840 0
DWIDTH 21 0
BBX 19 26 1 0
BITMAP
00F0E0
01F0C0
03B980
079C00
071E00
000000
000000
03F800
0FFE00
1FFF00
3F0F80
7C07C0
7C07C0
7C03E0
F803E0
F803E0
F803E0
F803E0
F803E0
7C03E0
7C07C0
7C07C0
3F0F80
1FFF00
0FFE00
03F800
ENDCHAR
STARTCHAR 1ED1
ENCODING 7889
SWIDTH 680 0
DWIDTH 17 0
BBX 17 21 1 0
BITMAP
03C380
07C700
0EE600
1E7000
1C7800
000000
000000
0FE000
3FF800
7FFC00
7C7C00
F83E00
F83E00
F81E00
F81E00
F83E00
F83E00
7C7C00
7FFC00
3FF800
0FE000
ENDCHAR
STARTCHAR 1ED2
ENCODING 7890
SWIDTH 840 0
DWIDTH 21 0
BBX 19 26 1 0
BITMAP
E0F000
71F000
33B800
079C00
071E00
000000
000000
03F800
0FFE00
1FFF00
3F0F80
7C07C0
7C07C0
7C03E0
F803E0
F803E0
F803E0
F803E0
F803E0
7C03E0
7C07C0
7C07C0
3F0F80
1FFF00
0FFE00
03F800
ENDCHAR
STARTCHAR 1ED3
ENCODING 7891
SWIDTH 680 0
DWIDTH 17 0
BBX 17 21 -1 0
BITMAP
E0F000
71F000
33B800
079C00
071E00
000000
000000
03F800
0FFE00
1FFF00
1F1F00
3E0F80
3E0F80
3E0780
3E0780
3E0F80
3E0F80
1F1F00
1FFF00
0FFE00
03F800
ENDCHAR
STARTCHAR 1ED4
ENCODING 7892
SWIDTH 840 0
DWIDTH 21 0
BBX 19 25 1 0
BITMAP
0003C0
00F0E0
01F8E0
03B8E0
071DC0
000000
03F800
0FFE00
1FFF00
3F0F80
7C07C0
7C07C0
7C03E0
F803E0
F803E0
F803E0
F803E0
F803E0
7C03E0
7C07C0
7C07C0
3F0F80
1FFF00
0FFE00
03F800
ENDCHAR
STARTCHAR 1ED5
ENCODING 7893
SWIDTH 680 0
DWIDTH 17 0
BBX 16 24 1 0
BITMAP
001E
0007
0007
03C7
07CE
0EE0
1E70
1C78
0000
0000
0FE0
3FF8
7FFC
7C7C
F83E
F83E
F81E
F81E
F83E
F83E
7C7C
7FFC
3FF8
0FE0
ENDCHAR
STARTCHAR 1ED6
ENCODING 7894
SWIDTH 840 0
DWIDTH 21 0
BBX 19 26 1 0
BITMAP
03CC00
07FC00
067800
000000
01F000
03BC00
000000
03F800
0FFE00
1FFF00
3F0F80
7C07C0
7C07C0
7C03E0
F803E0
F803E0
F803E0
F803E0
F803E0
7C03E0
7C07C0
7C07C0
3F0F80
1FFF00
0FFE00
03F800
ENDCHAR
STARTCHAR 1ED7
ENCODING 7895
SWIDTH 680 0
DWIDTH 17 0
BBX 15 26 1 0
BITMAP
0F38
1FF8
3FF0
39E0
0000
03C0
07C0
0EE0
1E70
1C78
0000
0000
0FE0
3FF8
7FFC
7C7C
F83E
F83E
F81E
F81E
F83E
F83E
7C7C
7FFC
3FF8
0FE0
ENDCHAR
STARTCHAR 1ED8
ENCODING 7896
SWIDTH 840 0
DWIDTH 21 0
BBX 19 31 1 -5
BITMAP
00F000
01F000
03B800
079C00
071E00
000000
000000
03F800
0FFE00
1FFF00
3F0F80
7C07C0
7C07C0
7C03E0
F803E0
F803E0
F803E0
F803E0
F803E0
7C03E0
7C07C0
7C07C0
3F0F80
1FFF00
0FFE00
03F800
000000
000000
01F000
01F000
01F000
ENDCHAR
STARTCHAR 1ED9
ENCODING 7897
SWIDTH 680 0
DWIDTH 17 0
BBX 15 26 1 -5
BITMAP
03C0
07C0
0EE0
1E70
1C78
0000
0000
0FE0
3FF8
7FFC
7C7C
F83E
F83E
F81E
F81E
F83E
F83E
7C7C
7FFC
3FF8
0FE0
0000
0000
07C0
07C0
07C0
ENDCHAR
STARTCHAR 1EDA
ENCODING 7898
SWIDTH 920 0
DWIDTH 23 0
BBX 22 26 1 0
BITMAP
007C00
007800
00F000
00E000
01C000
000000
000000
03F81C
0FFE1C
1FFF0C
3F0F9C
7C07FC
7C07F0
7C03E0
F803E0
F803E0
F803E0
F803E0
F803E0
7C03E0
7C07C0
7C07C0
3F0F80
1FFF00
0FFE00
03F800
ENDCHAR
STARTCHAR 1EDB
ENCODING 7899
SWIDTH 680 0
DWIDTH 17 0
BBX 16 21 1 0
BITMAP
01F0
01E0
03C0
0787
0703
0003
0007
0FFF
3FFE
7FFC
7C7C
F83E
F83E
F81E
F81E
F83E
F83E
7C7C
7FFC
3FF8
0FE0
ENDCHAR
STARTCHAR 1EDC
ENCODING 7900
SWIDTH 920 0
DWIDTH 23 0
BBX 22 26 1 0
BITMAP
03C000
03C000
01E000
00F000
007000
000000
000000
03F81C
0FFE1C
1FFF0C
3F0F9C
7C07FC
7C07F0
7C03E0
F803E0
F803E0
F803E0
F803E0
F803E0
7C03E0
7C07C0
7C07C0
3F0F80
1FFF00
0FFE00
03F800
ENDCHAR
STARTCHAR 1EDD
ENCODING 7901
SWIDTH 680 0
DWIDTH 17 0
BBX 16 21 1 0
BITMAP
1F00
0F00
0780
03C7
01C3
0003
0007
0FFF
3FFE
7FFC
7C7C
F83E
F83E
F81E
F81E
F83E
F83E
7C7C
7FFC
3FF8
0FE0
ENDCHAR
STARTCHAR 1EDE
ENCODING 7902
SWIDTH 920 0
DWIDTH 23 0
BBX 22 26 1 0
BITMAP
00E000
007000
003000
007000
00E000
000000
000000
03F81C
0FFE1C
1FFF0C
3F0F9C
7C07FC
7C07F0
7C03E0
F803E0
F803E0
F803E0
F803E0
F803E0
7C03E0
7C07C0
7C07C0
3F0F80
1FFF00
0FFE00
03F800
ENDCHAR
STARTCHAR 1EDF
ENCODING 7903
SWIDTH 680 0
DWIDTH 17 0
BBX 16 21 1 0
BITMAP
0780
01C0
01C0
01C7
0383
0003
0007
0FFF
3FFE
7FFC
7C7C
F83E
F83E
F81E
F81E
F83E
F83E
7C7C
7FFC
3FF8
0FE0
ENDCHAR
STARTCHAR 1EE0
ENCODING 7904
SWIDTH 920 0
DWIDTH 23 0
BBX 22 25 1 0
BITMAP
03CE00
07FE00
0FFC00
0E3800
000000
000000
03F81C
0FFE1C
1FFF0C
3F0F9C
7C07FC
7C07F0
7C03E0
F803E0
F803E0
F803E0
F803E0
F803E0
7C03E0
7C07C0
7C07C0
3F0F80
1FFF00
0FFE00
03F800
ENDCHAR
STARTCHAR 1EE1
ENCODING 7905
SWIDTH 680 0
DWIDTH 17 0
BBX 16 20 1 0
BITMAP
0F38
1FF8
3FF7
39E3
0003
0007
0FFF
3FFE
7FFC
7C7C
F83E
F83E
F81E
F81E
F83E
F83E
7C7C
7FFC
3FF8
0FE0
ENDCHAR
STARTCHAR 1EE2
ENCODING 7906
SWIDTH 920 0
DWIDTH 23 0
BBX 22 24 1 -5
BITMAP
03F81C
0FFE1C
1FFF0C
3F0F9C
7C07FC
7C07F0
7C03E0
F803E0
F803E0
F803E0
F803E0
F803E0
7C03E0
7C07C0
7C07C0
3F0F80
1FFF00
0FFE00
03F800
000000
000000
01F000
01F000
01F000
ENDCHAR
STARTCHAR 1EE3
ENCODING 7907
SWIDTH 680 0
DWIDTH 17 0
BBX 16 23 1 -5
BITMAP
0007
0003
0003
0007
0FFF
3FFE
7FFC
7C7C
F83E
F83E
F81E
F81E
F83E
F83E
7C7C
7FFC
3FF8
0FE0
0000
0000
07C0
07C0
07C0
ENDCHAR
STARTCHAR 1EE4
ENCODING 7908
SWIDTH 800 0
DWIDTH 20 0
BBX 16 24 2 -5
BITMAP
F80F
F80F
F80F
F80F
F80F
F80F
F80F
F80F
F80F
F80F
F80F
F80F
F80F
F81F
F81F
7C3E
7FFE
1FFC
0FF0
0000
0000
03C0
03C0
03C0
ENDCHAR
STARTCHAR 1EE5
ENCODING 7909
SWIDTH 720 0
DWIDTH 18 0
BBX 14 19 2 -5
BITMAP
F07C
F07C
F07C
F07C
F07C
F07C
F07C
F07C
F87C
F87C
FFFC
FFFC
7FFC
3E7C
0000
0000
0780
0780
0780
ENDCHAR
STARTCHAR 1EE6
ENCODING 7910
SWIDTH 800 0
DWIDTH 20 0
BBX 16 26 2 0
BITMAP
03C0
00E0
00E0
00E0
01C0
0000
0000
F80F
F80F
F80F
F80F
F80F
F80F
F80F
F80F
F80F
F80F
F80F
F80F
F80F
F81F
F81F
7C3E
7FFE
1FFC
0FF0
ENDCHAR
STARTCHAR 1EE7
ENCODING 7911
SWIDTH 720 0
DWIDTH 18 0
BBX 14 21 2 0
BITMAP
0700
0180
01C0
0380
0380
0000
0000
F07C
F07C
F07C
F07C
F07C
F07C
F07C
F07C
F87C
F87C
FFFC
FFFC
7FFC
3E7C
ENDCHAR
STARTCHAR 1EE8
ENCODING 7912
SWIDTH 840 0
DWIDTH 21 0
BBX 20 26 2 0
BITMAP
00F000
01E000
01C000
03C070
078070
000070
000070
F80FE0
F80FC0
F80F00
F80F00
F80F00
F80F00
F80F00
F80F00
F80F00
F80F00
F80F00
F80F00
F80F00
F81F00
F81F00
7C3E00
7FFE00
1FFC00
0FF000
ENDCHAR
STARTCHAR 1EE9
ENCODING 7913
SWIDTH 760 0
DWIDTH 19 0
BBX 17 21 2 0
BITMAP
01E000
03C000
078000
070380
0E0180
000180
000380
F07F80
F07F00
F07C00
F07C00
F07C00
F07C00
F07C00
F07C00
F87C00
F87C00
FFFC00
FFFC00
7FFC00
3E7C00
ENDCHAR
STARTCHAR 1EEA
ENCODING 7914
SWIDTH 840 0
DWIDTH 21 0
BBX 20 26 2 0
BITMAP
0F0000
078000
03C000
01C070
00E070
000070
000070
F80FE0
F80FC0
F80F00
F80F00
F80F00
F80F00
F80F00
F80F00
F80F00
F80F00
F80F00
F80F00
F80F00
F81F00
F81F00
7C3E00
7FFE00
1FFC00
0FF000
ENDCHAR
STARTCHAR 1EEB
ENCODING 7915
SWIDTH 760 0
DWIDTH 19 0
BBX 17 21 2 0
BITMAP
1E0000
0F0000
070000
038380
03C180
000180
000380
F07F80
F07F00
F07C00
F07C00
F07C00
F07C00
F07C00
F07C00
F87C00
F87C00
FFFC00
FFFC00
7FFC00
3E7C00
ENDCHAR
STARTCHAR 1EEC
ENCODING 7916
SWIDTH 840 0
DWIDTH 21 0
BBX 20 26 2 0
BITMAP
03C000
00E000
00E000
00E070
01C070
000070
000070
F80FE0
F80FC0
F80F00
F80F00
F80F00
F80F00
F80F00
F80F00
F80F00
F80F00
F80F00
F80F00
F80F00
F81F00
F81F00
7C3E00
7FFE00
1FFC00
0FF000
ENDCHAR
STARTCHAR 1EED
ENCODING 7917
SWIDTH 760 0
DWIDTH 19 0
BBX 17 21 2 0
BITMAP
070000
018000
01C000
038380
038180
000180
000380
F07F80
F07F00
F07C00
F07C00
F07C00
F07C00
F07C00
F07C00
F87C00
F87C00
FFFC00
FFFC00
7FFC00
3E7C00
ENDCHAR
STARTCHAR 1EEE
ENCODING 7918
SWIDTH 840 0
DWIDTH 21 0
BBX 20 24 2 0
BITMAP
0F1C00
1FF870
1FF870
1CF070
000070
F80FE0
F80FC0
F80F00
F80F00
F80F00
F80F00
F80F00
F80F00
F80F00
F80F00
F80F00
F80F00
F80F00
F81F00
F81F00
7C3E00
7FFE00
1FFC00
0FF000
ENDCHAR
STARTCHAR 1EEF
ENCODING 7919
SWIDTH 760 0
DWIDTH 19 0
BBX 17 20 2 0
BITMAP
1E3000
3FF000
3FF380
31E180
000180
000380
F07F80
F07F00
F07C00
F07C00
F07C00
F07C00
F07C00
F07C00
F87C00
F87C00
FFFC00
FFFC00
7FFC00
3E7C00
ENDCHAR
STARTCHAR 1EF0
ENCODING 7920
SWIDTH 840 0
DWIDTH 21 0
BBX 20 28 2 -5
BITMAP
000070
000070
000070
000070
F80FE0
F80FC0
F80F00
F80F00
F80F00
F80F00
F80F00
F80F00
F80F00
F80F00
F80F00
F80F00
F80F00
F81F00
F81F00
7C3E00
7FFE00
1FFC00
0FF000
000000
000000
03C000
03C000
03C000
ENDCHAR
STARTCHAR 1EF1
ENCODING 7921
SWIDTH 760 0
DWIDTH 19 0
BBX 17 23 2 -5
BITMAP
000380
000180
000180
000380
F07F80
F07F00
F07C00
F07C00
F07C00
F07C00
F07C00
F07C00
F87C00
F87C00
FFFC00
FFFC00
7FFC00
3E7C00
000000
000000
078000
078000
078000
ENDCHAR
STARTCHAR 1EF2
ENCODING 7922
SWIDTH 720 0
DWIDTH 18 0
BBX 18 26 0 0
BITMAP
03C000
03E000
01E000
00F000
007000
000000
000000
FC07C0
7C0F80
3E0F80
3E1F00
1F1F00
1F3E00
0FBE00
0FFC00
07F800
03F800
03F000
01F000
01F000
01F000
01F000
01F000
01F000
01F000
01F000
ENDCHAR
STARTCHAR 1EF3
ENCODING 7923
SWIDTH 640 0
DWIDTH 16 0
BBX 15 26 1 -5
BITMAP
1F00
0F00
0780
0380
01C0
0000
0000
F03E
F83C
F83C
787C
7C78
7CF8
3CF0
3EF0
1FF0
1FE0
1FE0
0FC0
0FC0
07C0
0F80
0F80
0F00
1F00
1E00
ENDCHAR
STARTCHAR 1EF4
ENCODING 7924
SWIDTH 720 0
DWIDTH 18 0
BBX 18 24 0 -5
BITMAP
FC07C0
7C0F80
3E0F80
3E1F00
1F1F00
1F3E00
0FBE00
0FFC00
07F800
03F800
03F000
01F000
01F000
01F000
01F000
01F000
01F000
01F000
01F000
000000
000000
01F000
01F000
01F000
ENDCHAR
STARTCHAR 1EF5
ENCODING 7925
SWIDTH 640 0
DWIDTH 16 0
BBX 15 19 1 -5
BITMAP
F03E
F83C
F83C
787C
7C78
7CF8
3CF0
3EF0
1FF0
1FE0
1FE0
0FC0
0FC0
07C0
0F80
0F80
0F3E
1F3E
1E3E
ENDCHAR
STARTCHAR 1EF6
ENCODING 7926
SWIDTH 720 0
DWIDTH 18 0
BBX 18 26 0 0
BITMAP
01E000
007000
007000
007000
00E000
000000
000000
FC07C0
7C0F80
3E0F80
3E1F00
1F1F00
1F3E00
0FBE00
0FFC00
07F800
03F800
03F000
01F000
01F000
01F000
01F000
01F000
01F000
01F000
01F000
ENDCHAR
STARTCHAR 1EF7
ENCODING 7927
SWIDTH 640 0
DWIDTH 16 0
BBX 15 26 1 -5
BITMAP
0780
01C0
01C0
01C0
0380
0000
0000
F03E
F83C
F83C
787C
7C78
7CF8
3CF0
3EF0
1FF0
1FE0
1FE0
0FC0
0FC0
07C0
0F80
0F80
0F00
1F00
1E00
ENDCHAR
STARTCHAR 1EF8
ENCODING 7928
SWIDTH 720 0
DWIDTH 18 0
BBX 18 25 0 0
BITMAP
038E00
07FC00
0FFC00
0E7800
000000
000000
FC07C0
7C0F80
3E0F80
3E1F00
1F1F00
1F3E00
0FBE00
0FFC00
07F800
03F800
03F000
01F000
01F000
01F000
01F000
01F000
01F000
01F000
01F000
ENDCHAR
STARTCHAR 1EF9
ENCODING 7929
SWIDTH 640 0
DWIDTH 16 0
BBX 15 25 1 -5
BITMAP
0E38
1FF0
3FF0
39E0
0000
0000
F03E
F83C
F83C
787C
7C78
7CF8
3CF0
3EF0
1FF0
1FE0
1FE0
0FC0
0FC0
07C0
0F80
0F80
0F00
1F00
1E00
ENDCHAR
STARTCHAR 2013
ENCODING 8211
SWIDTH 720 0
DWIDTH 18 0
BBX 14 3 2 7
BITMAP
FFFC
FFFC
FFFC
ENDCHAR
STARTCHAR 2014
ENCODING 8212
SWIDTH 1000 0
DWIDTH 25 0
BBX 21 3 2 7
BITMAP
FFFFF8
FFFFF8
FFFFF8
ENDCHAR
STARTCHAR 2015
ENCODING 8213
SWIDTH 1000 0
DWIDTH 25 0
BBX 21 3 2 7
BITMAP
FFFFF8
FFFFF8
FFFFF8
ENDCHAR
STARTCHAR 2017
ENCODING 8215
SWIDTH 720 0
DWIDTH 18 0
BBX 18 4 0 -5
BITMAP
FFFFC0
000000
000000
FFFFC0
ENDCHAR
STARTCHAR 2018
ENCODING 8216
SWIDTH 320 0
DWIDTH 8 0
BBX 6 7 1 13
BITMAP
F0
F0
78
78
38
38
1C
ENDCHAR
STARTCHAR 2019
ENCODING 8217
SWIDTH 320 0
DWIDTH 8 0
BBX 6 7 2 13
BITMAP
7C
78
78
F0
F0
E0
E0
ENDCHAR
STARTCHAR 201A
ENCODING 8218
SWIDTH 320 0
DWIDTH 8 0
BBX 6 7 1 -2
BITMAP
7C
78
78
70
F0
E0
E0
ENDCHAR
STARTCHAR 201B
ENCODING 8219
SWIDTH 320 0
DWIDTH 8 0
BBX 6 7 1 13
BITMAP
1C
38
38
78
78
F0
F0
ENDCHAR
STARTCHAR 201C
ENCODING 8220
SWIDTH 600 0
DWIDTH 15 0
BBX 13 7 0 13
BITMAP
F9E0
78F0
78F0
3C70
3C78
1C38
1C38
ENDCHAR
STARTCHAR 201D
ENCODING 8221
SWIDTH 600 0
DWIDTH 15 0
BBX 12 7 2 13
BITMAP
7CF0
78F0
79E0
F1E0
F1C0
E1C0
E380
ENDCHAR
STARTCHAR 201E
ENCODING 8222
SWIDTH 600 0
DWIDTH 15 0
BBX 12 7 1 -2
BITMAP
7CF0
78F0
78E0
71E0
F1C0
E1C0
E380
ENDCHAR
STARTCHAR 2020
ENCODING 8224
SWIDTH 720 0
DWIDTH 18 0
BBX 12 18 3 2
BITMAP
0E00
0E00
0E00
0E00
0E00
FFF0
FFF0
FFF0
0E00
0E00
0E00
0E00
0E00
0E00
0E00
0E00
0E00
0E00
ENDCHAR
STARTCHAR 2021
ENCODING 8225
SWIDTH 720 0
DWIDTH 18 0
BBX 12 18 3 2
BITMAP
0E00
0E00
0E00
0E00
0E00
FFF0
FFF0
FFF0
0E00
0E00
FFF0
FFF0
FFF0
0E00
0E00
0E00
0E00
0E00
ENDCHAR
STARTCHAR 2022
ENCODING 8226
SWIDTH 720 0
DWIDTH 18 0
BBX 12 12 3 3
BITMAP
1F00
3FC0
7FE0
FFF0
FFF0
FFF0
FFF0
FFF0
FFF0
7FE0
3FC0
1F00
ENDCHAR
STARTCHAR 2026
ENCODING 8230
SWIDTH 1040 0
DWIDTH 26 0
BBX 22 5 2 0
BITMAP
F8783C
F8783C
F8783C
F8783C
F8783C
ENDCHAR
STARTCHAR 2030
ENCODING 8240
SWIDTH 1760 0
DWIDTH 44 0
BBX 41 19 2 0
BITMAP
1F0070000000
7F80F0000000
FFC0E0000000
F1C1E0000000
E1E1C0000000
E1E3C0000000
E1E380000000
E1E78F807C00
F1C73FE1FE00
FFCF3FE3FF00
7F8E78F3CF00
1F1E78F38780
001C78F38780
003C78F38780
003878F38780
007878F3CF00
00703FE3FF00
00F03FE1FE00
00E00F80FC00
ENDCHAR
STARTCHAR 2032
ENCODING 8242
SWIDTH 360 0
DWIDTH 9 0
BBX 6 8 2 11
BITMAP
3C
3C
78
78
70
F0
E0
E0
ENDCHAR
STARTCHAR 2033
ENCODING 8243
SWIDTH 600 0
DWIDTH 15 0
BBX 13 8 2 11
BITMAP
3C78
3CF0
78F0
78E0
71E0
F1C0
E1C0
E380
ENDCHAR
STARTCHAR 2039
ENCODING 8249
SWIDTH 560 0
DWIDTH 14 0
BBX 7 13 3 2
BITMAP
02
06
0E
3E
7C
F8
E0
F8
7C
3E
0E
06
02
ENDCHAR
STARTCHAR 203A
ENCODING 8250
SWIDTH 560 0
DWIDTH 14 0
BBX 7 13 4 2
BITMAP
80
C0
E0
F0
78
3E
1E
3E
78
F0
E0
C0
80
ENDCHAR
STARTCHAR 203C
ENCODING 8252
SWIDTH 720 0
DWIDTH 18 0
BBX 12 19 3 0
BITMAP
F9F0
F9F0
F1F0
F1F0
F1F0
F1F0
F1F0
F1F0
F1F0
F1F0
F1F0
F1F0
F0F0
F0F0
0000
0000
F9F0
F9F0
F9F0
ENDCHAR
STARTCHAR 203E
ENCODING 8254
SWIDTH 720 0
DWIDTH 18 0
BBX 18 3 0 19
BITMAP
FFFFC0
FFFFC0
FFFFC0
ENDCHAR
STARTCHAR 2044
ENCODING 8260
SWIDTH 440 0
DWIDTH 11 0
BBX 13 19 -1 0
BITMAP
0078
0070
00F0
00E0
01E0
01C0
03C0
0380
0780
0700
0F00
0E00
1E00
1C00
3C00
3800
7800
7000
F000
ENDCHAR
STARTCHAR 207F
ENCODING 8319
SWIDTH 600 0
DWIDTH 15 0
BBX 11 11 2 8
BITMAP
F780
FFE0
FFE0
F1E0
F1E0
F0E0
F0E0
F0E0
F0E0
F0E0
F0E0
ENDCHAR
STARTCHAR 20A3
ENCODING 8355
SWIDTH 720 0
DWIDTH 18 0
BBX 15 19 1 0
BITMAP
3FFE
3FFE
3FFE
3E00
3E00
3E00
3E00
3E00
3FFC
3FFC
3FFC
3E00
3E00
FFE0
FFE0
FFE0
3E00
3E00
3E00
ENDCHAR
STARTCHAR 20A4
ENCODING 8356
SWIDTH 720 0
DWIDTH 18 0
BBX 14 19 2 0
BITMAP
03F8
0FF8
1FF8
1F08
1E00
3E00
3E00
FFF0
FFF0
3E00
3E00
FFF0
FFF0
3C00
3C00
7800
FFFC
FFFC
FFFC
ENDCHAR
STARTCHAR 20A7
ENCODING 8359
SWIDTH 1360 0
DWIDTH 34 0
BBX 31 19 2 0
BITMAP
FF800000
FFE00000
FFF3C000
F9F3C000
F8FBC1F8
F8FFFFFC
F8FFFFFC
F8FFFF84
F9F3CF80
FFF3CFC0
FFE3C7F0
FF83C7FC
F803C1FC
F803C07E
F803C83E
F803CC3E
F803CFFC
F803CFF8
F803C3F0
ENDCHAR
STARTCHAR 20AB
ENCODING 8363
SWIDTH 680 0
DWIDTH 17 0
BBX 16 25 1 -5
BITMAP
003C
003C
03FF
03FF
03FF
003C
0FBC
3FFC
7FFC
7C3C
F83C
F83C
F83C
F83C
F83C
F83C
7C7C
7FFC
3FFC
1FBC
0000
0000
3FFC
3FFC
3FFC
ENDCHAR
STARTCHAR 20AC
ENCODING 8364
SWIDTH 720 0
DWIDTH 18 0
BBX 17 19 0 0
BITMAP
01FC00
07FF00
0FFF80
1F8780
3F0180
3E0080
3E0000
FFC000
FFC000
7C0000
7C0000
FF8000
FF0000
3E0080
3E0180
1F8780
1FFF80
07FF00
01FC00
ENDCHAR
STARTCHAR 2105
ENCODING 8453
SWIDTH 1280 0
DWIDTH 32 0
BBX 28 19 2 0
BITMAP
1F807000
3FC0E000
7FC0E000
F8C1C000
F001C000
F0038000
E0038000
F0070F80
F0C73FE0
7FCE3FE0
7FCE78F0
1F9C78F0
001C78F0
003878F0
003878F0
007078F0
00703FE0
00E03FE0
00E00F80
ENDCHAR
STARTCHAR 2113
ENCODING 8467
SWIDTH 400 0
DWIDTH 10 0
BBX 10 19 0 0
BITMAP
0700
1F80
1DC0
3CC0
3D80
3D80
3F00
3E00
3E00
3C00
3C00
7C00
FC00
7C00
3C00
3C00
3C80
1F80
0F00
ENDCHAR
STARTCHAR 2116
ENCODING 8470
SWIDTH 1280 0
DWIDTH 32 0
BBX 29 19 2 0
BITMAP
FC1E0FC0
FE1E1FE0
FE1E3CF0
FE1E7870
FF1E7878
FF1E7878
FF9E7878
FF9E7878
FBDE7870
FBDE38F0
F9FE1FE0
F9FE0FC0
F8FE0000
F8FE0000
F87E1FE0
F87E1FE0
F83E1FE0
F83E0000
F81E0000
ENDCHAR
STARTCHAR 2122
ENCODING 8482
SWIDTH 960 0
DWIDTH 24 0
BBX 20 9 2 10
BITMAP
FE78F0
FE79F0
3879F0
386DF0
386F70
386770
386670
386070
386070
ENDCHAR
STARTCHAR 2126
ENCODING 8486
SWIDTH 840 0
DWIDTH 21 0
BBX 19 19 1 0
BITMAP
03F800
0FFE00
1FFF80
3E0F80
7C07C0
7C07C0
7803E0
F803E0
F803E0
7803C0
7C07C0
7C07C0
3F1F80
1F1F00
0F1E00
071C00
FF1FE0
FF1FE0
FF1FE0
ENDCHAR
STARTCHAR 212E
ENCODING 8494
SWIDTH 760 0
DWIDTH 19 0
BBX 15 16 2 0
BITMAP
07E0
1FF8
3FFC
7C7C
F83E
F03E
FFFE
FFFE
FFFE
F000
F000
F802
7C0E
7FFE
1FFE
07F8
ENDCHAR
STARTCHAR 215B
ENCODING 8539
SWIDTH 1200 0
DWIDTH 30 0
BBX 26 19 2 0
BITMAP
1C01C000
3C038000
FC038000
FC070000
1C070000
1C0E0000
1C0E0000
1C1C3F00
1C1CFF80
1C38E380
1C38E380
1C70F380
00707F00
00E0FF80
00E1E7C0
01C1E3C0
01C1E3C0
0380FF80
03807F00
ENDCHAR
STARTCHAR 215C
ENCODING 8540
SWIDTH 1200 0
DWIDTH 30 0
BBX 27 19 2 0
BITMAP
7F00E000
FF80E000
C381C000
0381C000
03838000
3F038000
3F870000
03C71F80
03CE7FC0
83CE71C0
FF9C71E0
7F1C79C0
00383F80
00387FC0
0070F1E0
0070F1E0
00E0F1E0
00E07FC0
01C03F80
ENDCHAR
STARTCHAR 215D
ENCODING 8541
SWIDTH 1200 0
DWIDTH 30 0
BBX 27 19 2 0
BITMAP
7F80E000
7F80E000
7001C000
7001C000
7F038000
7F838000
07C70000
03C71F80
03CE7FC0
838E71C0
FF9C71E0
FE3C79C0
00383F80
00787FC0
0070F1E0
00F0F1E0
00E0F1E0
01E07FC0
01C03F80
ENDCHAR
STARTCHAR 215E
ENCODING 8542
SWIDTH 1200 0
DWIDTH 30 0
BBX 26 19 2 0
BITMAP
FFC1C000
FFC3C000
03C38000
03878000
07870000
0F0F0000
0F0E0000
1E1E3F00
1C1CFF80
3C3CF3C0
3838E3C0
7878F380
00707F00
00F07F80
00E0E3C0
01E1E1C0
01C0E3C0
03C0FF80
03803F00
ENDCHAR
STARTCHAR 2202
ENCODING 8706
SWIDTH 720 0
DWIDTH 18 0
BBX 14 19 2 0
BITMAP
1FC0
3FF0
3FF8
20F8
007C
007C
003C
1F3C
3FFC
7FFC
F87C
F87C
F07C
F078
F078
F8F0
FFF0
7FE0
1F80
ENDCHAR
STARTCHAR 2206
ENCODING 8710
SWIDTH 800 0
DWIDTH 20 0
BBX 19 19 1 0
BITMAP
03F000
03F000
07F800
07F800
07F800
0FFC00
0F3C00
0F3E00
1F3E00
1E1E00
1E1F00
3E1F00
3C0F00
7C0F80
7C0F80
7C0780
FFFFC0
FFFFC0
FFFFE0
ENDCHAR
STARTCHAR 220F
ENCODING 8719
SWIDTH 880 0
DWIDTH 22 0
BBX 21 21 0 -2
BITMAP
FFFFF8
FFFFF8
FFFFF8
1F03C0
1F03C0
1F03C0
1F03C0
1F03C0
1F03C0
1F03C0
1F03C0
1F03C0
1F03C0
1F03C0
1F03C0
1F03C0
1F03C0
1F03C0
1F03C0
1F03C0
1F03C0
ENDCHAR
STARTCHAR 2211
ENCODING 8721
SWIDTH 680 0
DWIDTH 17 0
BBX 15 21 1 -2
BITMAP
FFFE
FFFE
FFFE
7E00
3E00
3F00
1F80
0FC0
07E0
03E0
01F0
03F0
07E0
0FC0
1F80
3F00
3E00
7C00
FFFE
FFFE
FFFE
ENDCHAR
STARTCHAR 2212
ENCODING 8722
SWIDTH 880 0
DWIDTH 22 0
BBX 16 3 3 7
BITMAP
FFFF
FFFF
FFFF
ENDCHAR
STARTCHAR 2215
ENCODING 8725
SWIDTH 440 0
DWIDTH 11 0
BBX 13 19 -1 0
BITMAP
0078
0070
00F0
00E0
01E0
01C0
03C0
0380
0780
0700
0F00
0E00
1E00
1C00
3C00
3800
7800
7000
F000
ENDCHAR
STARTCHAR 2219
ENCODING 8729
SWIDTH 360 0
DWIDTH 9 0
BBX 5 5 2 6
BITMAP
F8
F8
F8
F8
F8
ENDCHAR
STARTCHAR 221A
ENCODING 8730
SWIDTH 880 0
DWIDTH 22 0
BBX 21 25 2 -3
BITMAP
000038
000038
000070
000070
0000E0
0000E0
0000C0
0001C0
000180
000380
FC0380
FC0700
FE0700
1E0E00
1F0E00
0F0C00
0F1C00
079C00
07B800
03F800
03F000
03F000
01E000
01E000
00C000
ENDCHAR
STARTCHAR 221E
ENCODING 8734
SWIDTH 1040 0
DWIDTH 26 0
BBX 22 14 2 1
BITMAP
0F03E0
3FC7F0
7FEFF8
78FE3C
F07C1C
F03C1C
E0381C
E0781C
E0781C
F0F81C
71FC3C
7FEFF8
3FCFF0
1F03E0
ENDCHAR
STARTCHAR 222B
ENCODING 8747
SWIDTH 520 0
DWIDTH 13 0
BBX 13 25 0 -5
BITMAP
01F8
03F8
07F8
0780
0780
0780
0780
0780
0780
0780
0780
0780
0780
0780
0780
0780
0780
0780
0780
0780
0F80
0F80
FF00
FF00
FC00
ENDCHAR
STARTCHAR 2248
ENCODING 8776
SWIDTH 880 0
DWIDTH 22 0
BBX 18 14 2 1
BITMAP
1F03C0
7F83C0
7FE380
F1FF80
E0FF00
E03E00
000000
000000
1F03C0
7F83C0
7FE380
F1FF80
F0FF00
E03E00
ENDCHAR
STARTCHAR 2260
ENCODING 8800
SWIDTH 880 0
DWIDTH 22 0
BBX 16 17 3 0
BITMAP
0038
0078
0070
00F0
FFFF
FFFF
FFFF
01C0
0380
0380
FFFF
FFFF
FFFF
0E00
1E00
1C00
1C00
ENDCHAR
STARTCHAR 2264
ENCODING 8804
SWIDTH 880 0
DWIDTH 22 0
BBX 16 18 3 0
BITMAP
0003
001F
00FF
07FF
3FF8
FFC0
FC00
FC00
FF80
3FF8
07FF
00FF
001F
0003
0000
FFFF
FFFF
FFFF
ENDCHAR
STARTCHAR 2265
ENCODING 8805
SWIDTH 880 0
DWIDTH 22 0
BBX 16 18 3 0
BITMAP
8000
F000
FE00
FFC0
1FFC
03FF
007F
003F
03FF
1FFC
FFC0
FE00
F000
8000
0000
FFFF
FFFF
FFFF
ENDCHAR
STARTCHAR 25A1
ENCODING 9633
SWIDTH 600 0
DWIDTH 15 0
BBX 11 12 2 0
BITMAP
FFE0
8020
8020
8020
8020
8020
8020
8020
8020
8020
8020
FFE0
ENDCHAR
STARTCHAR 25AA
ENCODING 9642
SWIDTH 360 0
DWIDTH 9 0
BBX 5 6 2 5
BITMAP
F8
F8
F8
F8
F8
F8
ENDCHAR
STARTCHAR 25AB
ENCODING 9643
SWIDTH 360 0
DWIDTH 9 0
BBX 5 6 2 5
BITMAP
F8
88
88
88
88
F8
ENDCHAR
STARTCHAR 25CA
ENCODING 9674
SWIDTH 880 0
DWIDTH 22 0
BBX 19 19 1 -1
BITMAP
004000
00E000
01F000
03F800
07FC00
0F9E00
1F0F00
3E0780
7C03C0
F801E0
7C03C0
3E0780
1F0F00
0F9E00
07FC00
03F800
01F000
00E000
004000
ENDCHAR
STARTCHAR 25CF
ENCODING 9679
SWIDTH 600 0
DWIDTH 15 0
BBX 11 11 2 1
BITMAP
1F00
3F80
7FC0
FFE0
FFE0
FFE0
FFE0
7FE0
7FC0
3F80
1F00
ENDCHAR
STARTCHAR 25E6
ENCODING 9702
SWIDTH 360 0
DWIDTH 9 0
BBX 6 6 1 5
BITMAP
38
44
84
84
44
38
ENDCHAR
STARTCHAR F001
ENCODING 61441
SWIDTH 720 0
DWIDTH 18 0
BBX 15 20 1 0
BITMAP
0FDE
1FDE
3FDE
3C00
7C00
7C00
FFFE
FFFE
FFFE
7C1E
7C1E
7C1E
7C1E
7C1E
7C1E
7C1E
7C1E
7C1E
7C1E
7C1E
ENDCHAR
STARTCHAR F002
ENCODING 61442
SWIDTH 720 0
DWIDTH 18 0
BBX 15 20 1 0
BITMAP
07FE
1FFE
3FFE
3E1E
7C1E
7C1E
FF9E
FF9E
FF9E
7C1E
7C1E
7C1E
7C1E
7C1E
7C1E
7C1E
7C1E
7C1E
7C1E
7C1E
ENDCHAR
STARTCHAR F004
ENCODING 61444
SWIDTH 320 0
DWIDTH 8 0
BBX 6 7 2 -5
BITMAP
3C
7C
78
78
70
F0
E0
ENDCHAR
STARTCHAR F005
ENCODING 61445
SWIDTH 720 0
DWIDTH 18 0
BBX 7 5 5 -5
BITMAP
0E
0E
0E
FE
F8
ENDCHAR
STARTCHAR F006
ENCODING 61446
SWIDTH 600 0
DWIDTH 15 0
BBX 11 12 2 7
BITMAP
0780
0F80
1F80
3B80
7380
6380
C380
FFE0
FFE0
0380
0380
0380
ENDCHAR
STARTCHAR F007
ENCODING 61447
SWIDTH 600 0
DWIDTH 15 0
BBX 9 12 3 7
BITMAP
FF80
FF80
F000
F000
FE00
FF80
0780
0380
0380
8780
FF00
FE00
ENDCHAR
STARTCHAR F008
ENCODING 61448
SWIDTH 600 0
DWIDTH 15 0
BBX 10 12 3 7
BITMAP
FFC0
FFC0
0380
0780
0700
0F00
1E00
1C00
3C00
3800
7800
F000
ENDCHAR
STARTCHAR F009
ENCODING 61449
SWIDTH 600 0
DWIDTH 15 0
BBX 11 12 2 7
BITMAP
1F80
7FC0
71C0
71C0
79C0
3F80
7FC0
F3E0
F1E0
F1E0
7FC0
3F00
ENDCHAR
STARTCHAR F00A
ENCODING 61450
SWIDTH 600 0
DWIDTH 15 0
BBX 7 12 3 7
BITMAP
1E
1E
FE
FE
1E
1E
1E
1E
1E
1E
1E
1E
ENDCHAR
STARTCHAR FB01
ENCODING 64257
SWIDTH 720 0
DWIDTH 18 0
BBX 15 20 1 0
BITMAP
0FDE
1FDE
3FDE
3C00
7C00
7C00
FFFE
FFFE
FFFE
7C1E
7C1E
7C1E
7C1E
7C1E
7C1E
7C1E
7C1E
7C1E
7C1E
7C1E
ENDCHAR
STARTCHAR FB02
ENCODING 64258
SWIDTH 720 0
DWIDTH 18 0
BBX 15 20 1 0
BITMAP
07FE
1FFE
3FFE
3E1E
7C1E
7C1E
FF9E
FF9E
FF9E
7C1E
7C1E
7C1E
7C1E
7C1E
7C1E
7C1E
7C1E
7C1E
7C1E
7C1E
ENDCHAR
ENDFONT
